%FSAX25Y25*%
%MOIN*%
G70*
G01*
G75*
G04 Layer_Color=65535*
%ADD10C,0.00800*%
%ADD11C,0.01000*%
%ADD12R,0.05500X0.03800*%
%ADD13O,0.05500X0.03800*%
%ADD14C,0.02000*%
%ADD15C,0.01200*%
%ADD16R,0.39370X0.23622*%
%ADD17R,3.14961X0.23622*%
%ADD18C,0.02000*%
%ADD19R,4.01575X0.31496*%
%ADD20R,4.01575X0.31496*%
%ADD21C,0.00701*%
%ADD22C,0.00700*%
G36*
X0403615Y0453515D02*
Y0453442D01*
Y0453370D01*
X0403542D01*
Y0453297D01*
X0403397D01*
Y0453224D01*
X0403324D01*
Y0453152D01*
X0403251D01*
Y0453079D01*
Y0453006D01*
X0403179D01*
Y0452934D01*
Y0452861D01*
Y0452788D01*
Y0452715D01*
Y0452643D01*
Y0452570D01*
Y0452497D01*
Y0452425D01*
Y0452352D01*
Y0452279D01*
Y0452207D01*
Y0452134D01*
Y0452061D01*
Y0451989D01*
Y0451916D01*
Y0451843D01*
Y0451770D01*
Y0451698D01*
Y0451625D01*
Y0451552D01*
Y0451480D01*
Y0451407D01*
Y0451334D01*
Y0451262D01*
Y0451189D01*
Y0451116D01*
Y0451043D01*
Y0450971D01*
Y0450898D01*
Y0450825D01*
Y0450753D01*
Y0450680D01*
Y0450607D01*
Y0450534D01*
Y0450462D01*
Y0450389D01*
Y0450316D01*
Y0450244D01*
Y0450171D01*
Y0450098D01*
Y0450026D01*
Y0449953D01*
Y0449880D01*
Y0449808D01*
Y0449735D01*
Y0449662D01*
Y0449589D01*
Y0449517D01*
Y0449444D01*
Y0449371D01*
Y0449299D01*
Y0449226D01*
Y0449153D01*
Y0449081D01*
Y0449008D01*
Y0448935D01*
Y0448862D01*
Y0448790D01*
Y0448717D01*
Y0448644D01*
Y0448572D01*
Y0448499D01*
Y0448426D01*
Y0448353D01*
Y0448281D01*
Y0448208D01*
Y0448135D01*
Y0448063D01*
Y0447990D01*
Y0447917D01*
Y0447845D01*
X0402888D01*
Y0447917D01*
X0402815D01*
Y0447990D01*
X0402742D01*
Y0448063D01*
X0402670D01*
Y0448135D01*
Y0448208D01*
X0402597D01*
Y0448281D01*
X0402524D01*
Y0448353D01*
X0402452D01*
Y0448426D01*
X0402379D01*
Y0448499D01*
X0402306D01*
Y0448572D01*
X0402234D01*
Y0448644D01*
X0402161D01*
Y0448717D01*
Y0448790D01*
X0402088D01*
Y0448862D01*
X0402015D01*
Y0448935D01*
X0401943D01*
Y0449008D01*
X0401870D01*
Y0449081D01*
X0401797D01*
Y0449153D01*
X0401725D01*
Y0449226D01*
X0401652D01*
Y0449299D01*
Y0449371D01*
X0401579D01*
Y0449444D01*
X0401507D01*
Y0449517D01*
X0401434D01*
Y0449589D01*
X0401361D01*
Y0449662D01*
X0401289D01*
Y0449735D01*
X0401216D01*
Y0449808D01*
X0401143D01*
Y0449880D01*
Y0449953D01*
X0401070D01*
Y0450026D01*
X0400998D01*
Y0450098D01*
X0400925D01*
Y0450171D01*
X0400852D01*
Y0450244D01*
X0400780D01*
Y0450316D01*
X0400707D01*
Y0450389D01*
X0400634D01*
Y0450462D01*
Y0450534D01*
X0400562D01*
Y0450607D01*
X0400489D01*
Y0450680D01*
X0400416D01*
Y0450753D01*
X0400343D01*
Y0450825D01*
X0400271D01*
Y0450898D01*
X0400198D01*
Y0450971D01*
X0400125D01*
Y0451043D01*
Y0451116D01*
X0400053D01*
Y0451189D01*
X0399980D01*
Y0451262D01*
X0399907D01*
Y0451334D01*
X0399834D01*
Y0451407D01*
X0399762D01*
Y0451480D01*
X0399689D01*
Y0451552D01*
X0399616D01*
Y0451625D01*
Y0451698D01*
X0399544D01*
Y0451770D01*
X0399471D01*
Y0451843D01*
X0399398D01*
Y0451916D01*
X0399326D01*
Y0451989D01*
X0399253D01*
Y0452061D01*
X0399180D01*
Y0451989D01*
Y0451916D01*
Y0451843D01*
Y0451770D01*
Y0451698D01*
Y0451625D01*
Y0451552D01*
Y0451480D01*
Y0451407D01*
Y0451334D01*
Y0451262D01*
Y0451189D01*
Y0451116D01*
Y0451043D01*
Y0450971D01*
Y0450898D01*
Y0450825D01*
Y0450753D01*
Y0450680D01*
Y0450607D01*
Y0450534D01*
Y0450462D01*
Y0450389D01*
Y0450316D01*
Y0450244D01*
Y0450171D01*
Y0450098D01*
Y0450026D01*
Y0449953D01*
Y0449880D01*
Y0449808D01*
Y0449735D01*
Y0449662D01*
Y0449589D01*
Y0449517D01*
Y0449444D01*
Y0449371D01*
Y0449299D01*
Y0449226D01*
Y0449153D01*
Y0449081D01*
Y0449008D01*
Y0448935D01*
Y0448862D01*
Y0448790D01*
Y0448717D01*
Y0448644D01*
Y0448572D01*
Y0448499D01*
X0399253D01*
Y0448426D01*
Y0448353D01*
X0399326D01*
Y0448281D01*
X0399398D01*
Y0448208D01*
X0399544D01*
Y0448135D01*
X0399762D01*
Y0448063D01*
Y0447990D01*
Y0447917D01*
X0397871D01*
Y0447990D01*
Y0448063D01*
Y0448135D01*
X0398090D01*
Y0448208D01*
X0398162D01*
Y0448281D01*
X0398235D01*
Y0448353D01*
X0398308D01*
Y0448426D01*
X0398380D01*
Y0448499D01*
Y0448572D01*
Y0448644D01*
Y0448717D01*
Y0448790D01*
Y0448862D01*
Y0448935D01*
Y0449008D01*
Y0449081D01*
Y0449153D01*
Y0449226D01*
Y0449299D01*
Y0449371D01*
Y0449444D01*
Y0449517D01*
Y0449589D01*
Y0449662D01*
Y0449735D01*
Y0449808D01*
Y0449880D01*
Y0449953D01*
Y0450026D01*
Y0450098D01*
Y0450171D01*
Y0450244D01*
Y0450316D01*
Y0450389D01*
Y0450462D01*
Y0450534D01*
Y0450607D01*
Y0450680D01*
Y0450753D01*
Y0450825D01*
Y0450898D01*
Y0450971D01*
Y0451043D01*
Y0451116D01*
Y0451189D01*
Y0451262D01*
Y0451334D01*
Y0451407D01*
Y0451480D01*
Y0451552D01*
Y0451625D01*
Y0451698D01*
Y0451770D01*
Y0451843D01*
Y0451916D01*
Y0451989D01*
Y0452061D01*
Y0452134D01*
Y0452207D01*
Y0452279D01*
Y0452352D01*
Y0452425D01*
Y0452497D01*
Y0452570D01*
Y0452643D01*
Y0452715D01*
Y0452788D01*
Y0452861D01*
Y0452934D01*
Y0453006D01*
X0398308D01*
Y0453079D01*
X0398235D01*
Y0453152D01*
X0398162D01*
Y0453224D01*
X0398090D01*
Y0453297D01*
X0397944D01*
Y0453370D01*
X0397871D01*
Y0453442D01*
Y0453515D01*
Y0453588D01*
X0399544D01*
Y0453515D01*
X0399616D01*
Y0453442D01*
X0399689D01*
Y0453370D01*
X0399762D01*
Y0453297D01*
X0399834D01*
Y0453224D01*
X0399907D01*
Y0453152D01*
Y0453079D01*
X0399980D01*
Y0453006D01*
X0400053D01*
Y0452934D01*
X0400125D01*
Y0452861D01*
X0400198D01*
Y0452788D01*
X0400271D01*
Y0452715D01*
X0400343D01*
Y0452643D01*
X0400416D01*
Y0452570D01*
Y0452497D01*
X0400489D01*
Y0452425D01*
X0400562D01*
Y0452352D01*
X0400634D01*
Y0452279D01*
X0400707D01*
Y0452207D01*
X0400780D01*
Y0452134D01*
X0400852D01*
Y0452061D01*
X0400925D01*
Y0451989D01*
Y0451916D01*
X0400998D01*
Y0451843D01*
X0401070D01*
Y0451770D01*
X0401143D01*
Y0451698D01*
X0401216D01*
Y0451625D01*
X0401289D01*
Y0451552D01*
X0401361D01*
Y0451480D01*
X0401434D01*
Y0451407D01*
Y0451334D01*
X0401507D01*
Y0451262D01*
X0401579D01*
Y0451189D01*
X0401652D01*
Y0451116D01*
X0401725D01*
Y0451043D01*
X0401797D01*
Y0450971D01*
X0401870D01*
Y0450898D01*
X0401943D01*
Y0450825D01*
X0402015D01*
Y0450753D01*
Y0450680D01*
X0402088D01*
Y0450607D01*
X0402161D01*
Y0450534D01*
X0402234D01*
Y0450462D01*
X0402306D01*
Y0450389D01*
X0402379D01*
Y0450462D01*
Y0450534D01*
Y0450607D01*
Y0450680D01*
Y0450753D01*
Y0450825D01*
Y0450898D01*
Y0450971D01*
Y0451043D01*
Y0451116D01*
Y0451189D01*
Y0451262D01*
Y0451334D01*
Y0451407D01*
Y0451480D01*
Y0451552D01*
Y0451625D01*
Y0451698D01*
Y0451770D01*
Y0451843D01*
Y0451916D01*
Y0451989D01*
Y0452061D01*
Y0452134D01*
Y0452207D01*
Y0452279D01*
Y0452352D01*
Y0452425D01*
Y0452497D01*
Y0452570D01*
Y0452643D01*
Y0452715D01*
Y0452788D01*
Y0452861D01*
Y0452934D01*
Y0453006D01*
X0402306D01*
Y0453079D01*
Y0453152D01*
X0402234D01*
Y0453224D01*
X0402161D01*
Y0453297D01*
X0402015D01*
Y0453370D01*
X0401870D01*
Y0453442D01*
Y0453515D01*
Y0453588D01*
X0403615D01*
Y0453515D01*
D02*
G37*
G36*
X0417282D02*
X0417791D01*
Y0453442D01*
X0418082D01*
Y0453370D01*
X0418227D01*
Y0453297D01*
X0418373D01*
Y0453224D01*
X0418518D01*
Y0453152D01*
X0418591D01*
Y0453079D01*
X0418736D01*
Y0453006D01*
X0418809D01*
Y0452934D01*
Y0452861D01*
X0418882D01*
Y0452788D01*
X0418955D01*
Y0452715D01*
Y0452643D01*
X0419027D01*
Y0452570D01*
Y0452497D01*
Y0452425D01*
X0419100D01*
Y0452352D01*
Y0452279D01*
Y0452207D01*
Y0452134D01*
Y0452061D01*
Y0451989D01*
Y0451916D01*
Y0451843D01*
Y0451770D01*
Y0451698D01*
Y0451625D01*
X0419027D01*
Y0451552D01*
Y0451480D01*
Y0451407D01*
X0418955D01*
Y0451334D01*
Y0451262D01*
X0418882D01*
Y0451189D01*
Y0451116D01*
X0418809D01*
Y0451043D01*
X0418736D01*
Y0450971D01*
X0418664D01*
Y0450898D01*
X0418518D01*
Y0450825D01*
X0418446D01*
Y0450753D01*
X0418300D01*
Y0450680D01*
X0418155D01*
Y0450607D01*
X0417864D01*
Y0450534D01*
X0417646D01*
Y0450462D01*
X0417791D01*
Y0450389D01*
X0417937D01*
Y0450316D01*
X0418082D01*
Y0450244D01*
X0418155D01*
Y0450171D01*
X0418227D01*
Y0450098D01*
X0418300D01*
Y0450026D01*
X0418373D01*
Y0449953D01*
X0418446D01*
Y0449880D01*
X0418518D01*
Y0449808D01*
X0418591D01*
Y0449735D01*
Y0449662D01*
X0418664D01*
Y0449589D01*
X0418736D01*
Y0449517D01*
Y0449444D01*
X0418809D01*
Y0449371D01*
X0418882D01*
Y0449299D01*
Y0449226D01*
X0418955D01*
Y0449153D01*
Y0449081D01*
X0419027D01*
Y0449008D01*
X0419100D01*
Y0448935D01*
Y0448862D01*
X0419173D01*
Y0448790D01*
X0419245D01*
Y0448717D01*
Y0448644D01*
X0419318D01*
Y0448572D01*
X0419391D01*
Y0448499D01*
X0419463D01*
Y0448426D01*
X0419536D01*
Y0448353D01*
X0419682D01*
Y0448281D01*
X0419827D01*
Y0448208D01*
X0420045D01*
Y0448135D01*
X0420118D01*
Y0448063D01*
Y0447990D01*
X0420045D01*
Y0447917D01*
X0419900D01*
Y0447845D01*
X0418664D01*
Y0447917D01*
X0418518D01*
Y0447990D01*
X0418373D01*
Y0448063D01*
X0418227D01*
Y0448135D01*
X0418155D01*
Y0448208D01*
X0418010D01*
Y0448281D01*
X0417937D01*
Y0448353D01*
Y0448426D01*
X0417864D01*
Y0448499D01*
X0417791D01*
Y0448572D01*
X0417719D01*
Y0448644D01*
Y0448717D01*
X0417646D01*
Y0448790D01*
X0417573D01*
Y0448862D01*
Y0448935D01*
X0417501D01*
Y0449008D01*
Y0449081D01*
X0417428D01*
Y0449153D01*
Y0449226D01*
Y0449299D01*
X0417355D01*
Y0449371D01*
Y0449444D01*
X0417282D01*
Y0449517D01*
Y0449589D01*
X0417210D01*
Y0449662D01*
Y0449735D01*
X0417137D01*
Y0449808D01*
X0417064D01*
Y0449880D01*
Y0449953D01*
X0416992D01*
Y0450026D01*
X0416919D01*
Y0450098D01*
X0416774D01*
Y0450171D01*
X0416628D01*
Y0450244D01*
X0415683D01*
Y0450171D01*
Y0450098D01*
Y0450026D01*
Y0449953D01*
Y0449880D01*
Y0449808D01*
Y0449735D01*
Y0449662D01*
Y0449589D01*
Y0449517D01*
Y0449444D01*
Y0449371D01*
Y0449299D01*
Y0449226D01*
Y0449153D01*
Y0449081D01*
Y0449008D01*
Y0448935D01*
Y0448862D01*
Y0448790D01*
Y0448717D01*
Y0448644D01*
Y0448572D01*
X0415756D01*
Y0448499D01*
Y0448426D01*
Y0448353D01*
X0415828D01*
Y0448281D01*
X0415901D01*
Y0448208D01*
X0416047D01*
Y0448135D01*
X0416265D01*
Y0448063D01*
Y0447990D01*
Y0447917D01*
X0413866D01*
Y0447990D01*
Y0448063D01*
X0413938D01*
Y0448135D01*
X0414084D01*
Y0448208D01*
X0414229D01*
Y0448281D01*
X0414302D01*
Y0448353D01*
X0414374D01*
Y0448426D01*
Y0448499D01*
X0414447D01*
Y0448572D01*
Y0448644D01*
Y0448717D01*
Y0448790D01*
Y0448862D01*
Y0448935D01*
Y0449008D01*
Y0449081D01*
Y0449153D01*
Y0449226D01*
Y0449299D01*
Y0449371D01*
Y0449444D01*
Y0449517D01*
Y0449589D01*
Y0449662D01*
Y0449735D01*
Y0449808D01*
Y0449880D01*
Y0449953D01*
Y0450026D01*
Y0450098D01*
Y0450171D01*
Y0450244D01*
Y0450316D01*
Y0450389D01*
Y0450462D01*
Y0450534D01*
Y0450607D01*
Y0450680D01*
Y0450753D01*
Y0450825D01*
Y0450898D01*
Y0450971D01*
Y0451043D01*
Y0451116D01*
Y0451189D01*
Y0451262D01*
Y0451334D01*
Y0451407D01*
Y0451480D01*
Y0451552D01*
Y0451625D01*
Y0451698D01*
Y0451770D01*
Y0451843D01*
Y0451916D01*
Y0451989D01*
Y0452061D01*
Y0452134D01*
Y0452207D01*
Y0452279D01*
Y0452352D01*
Y0452425D01*
Y0452497D01*
Y0452570D01*
Y0452643D01*
Y0452715D01*
Y0452788D01*
Y0452861D01*
Y0452934D01*
X0414374D01*
Y0453006D01*
Y0453079D01*
Y0453152D01*
X0414302D01*
Y0453224D01*
X0414229D01*
Y0453297D01*
X0414011D01*
Y0453370D01*
X0413866D01*
Y0453442D01*
Y0453515D01*
Y0453588D01*
X0417282D01*
Y0453515D01*
D02*
G37*
G36*
X0353016Y0457804D02*
Y0457732D01*
Y0457659D01*
Y0457586D01*
Y0457514D01*
Y0457441D01*
Y0457368D01*
Y0457296D01*
Y0457223D01*
Y0457150D01*
Y0457078D01*
Y0457005D01*
Y0456932D01*
Y0456859D01*
Y0456787D01*
Y0456714D01*
Y0456641D01*
Y0456569D01*
Y0456496D01*
Y0456423D01*
Y0456351D01*
Y0456278D01*
Y0456205D01*
Y0456132D01*
Y0456060D01*
Y0455987D01*
Y0455914D01*
Y0455842D01*
Y0455769D01*
Y0455696D01*
Y0455623D01*
Y0455551D01*
Y0455478D01*
Y0455405D01*
Y0455333D01*
X0353888D01*
Y0455260D01*
Y0455187D01*
Y0455115D01*
Y0455042D01*
Y0454969D01*
X0353815D01*
Y0454896D01*
Y0454824D01*
Y0454751D01*
Y0454678D01*
Y0454606D01*
X0353743D01*
Y0454533D01*
Y0454460D01*
Y0454388D01*
Y0454315D01*
Y0454242D01*
X0353670D01*
Y0454170D01*
Y0454097D01*
Y0454024D01*
Y0453951D01*
Y0453879D01*
X0353597D01*
Y0453806D01*
Y0453733D01*
Y0453661D01*
Y0453588D01*
X0352652D01*
Y0453515D01*
X0352579D01*
Y0453442D01*
Y0453370D01*
Y0453297D01*
Y0453224D01*
Y0453152D01*
Y0453079D01*
X0352507D01*
Y0453006D01*
Y0452934D01*
Y0452861D01*
Y0452788D01*
Y0452715D01*
X0352434D01*
Y0452643D01*
Y0452570D01*
Y0452497D01*
Y0452425D01*
Y0452352D01*
X0352361D01*
Y0452279D01*
Y0452207D01*
Y0452134D01*
Y0452061D01*
X0353234D01*
Y0451989D01*
Y0451916D01*
Y0451843D01*
Y0451770D01*
Y0451698D01*
X0353161D01*
Y0451625D01*
Y0451552D01*
Y0451480D01*
Y0451407D01*
Y0451334D01*
X0353088D01*
Y0451262D01*
Y0451189D01*
Y0451116D01*
Y0451043D01*
Y0450971D01*
X0353016D01*
Y0450898D01*
Y0450825D01*
Y0450753D01*
Y0450680D01*
Y0450607D01*
X0352943D01*
Y0450534D01*
Y0450462D01*
Y0450389D01*
Y0450316D01*
Y0450244D01*
Y0450171D01*
X0352870D01*
Y0450098D01*
Y0450026D01*
Y0449953D01*
Y0449880D01*
Y0449808D01*
X0352798D01*
Y0449735D01*
Y0449662D01*
Y0449589D01*
Y0449517D01*
Y0449444D01*
X0352725D01*
Y0449371D01*
Y0449299D01*
Y0449226D01*
Y0449153D01*
X0352652D01*
Y0449081D01*
Y0449008D01*
Y0448935D01*
Y0448862D01*
Y0448790D01*
Y0448717D01*
Y0448644D01*
Y0448572D01*
Y0448499D01*
X0352725D01*
Y0448426D01*
Y0448353D01*
X0352798D01*
Y0448281D01*
X0352870D01*
Y0448208D01*
X0352943D01*
Y0448135D01*
X0353088D01*
Y0448063D01*
X0353234D01*
Y0447990D01*
X0353597D01*
Y0447917D01*
X0355924D01*
Y0447990D01*
Y0448063D01*
Y0448135D01*
Y0448208D01*
Y0448281D01*
X0355996D01*
Y0448353D01*
Y0448426D01*
Y0448499D01*
Y0448572D01*
Y0448644D01*
Y0448717D01*
X0356069D01*
Y0448790D01*
Y0448862D01*
Y0448935D01*
Y0449008D01*
Y0449081D01*
X0356142D01*
Y0449153D01*
Y0449226D01*
Y0449299D01*
Y0449371D01*
Y0449444D01*
X0356214D01*
Y0449517D01*
Y0449589D01*
X0355487D01*
Y0449662D01*
X0355342D01*
Y0449735D01*
Y0449808D01*
Y0449880D01*
Y0449953D01*
Y0450026D01*
Y0450098D01*
Y0450171D01*
Y0450244D01*
Y0450316D01*
X0355415D01*
Y0450389D01*
Y0450462D01*
Y0450534D01*
Y0450607D01*
X0355487D01*
Y0450680D01*
Y0450753D01*
Y0450825D01*
Y0450898D01*
Y0450971D01*
Y0451043D01*
X0355560D01*
Y0451116D01*
Y0451189D01*
Y0451262D01*
Y0451334D01*
Y0451407D01*
X0355633D01*
Y0451480D01*
Y0451552D01*
Y0451625D01*
Y0451698D01*
Y0451770D01*
X0355705D01*
Y0451843D01*
Y0451916D01*
Y0451989D01*
Y0452061D01*
X0356723D01*
Y0452134D01*
Y0452207D01*
Y0452279D01*
Y0452352D01*
X0356796D01*
Y0452425D01*
Y0452497D01*
Y0452570D01*
Y0452643D01*
Y0452715D01*
X0356869D01*
Y0452788D01*
Y0452861D01*
Y0452934D01*
Y0453006D01*
Y0453079D01*
X0356941D01*
Y0453152D01*
Y0453224D01*
Y0453297D01*
Y0453370D01*
Y0453442D01*
X0357014D01*
Y0453515D01*
Y0453588D01*
X0356069D01*
Y0453661D01*
Y0453733D01*
Y0453806D01*
Y0453879D01*
Y0453951D01*
X0356142D01*
Y0454024D01*
Y0454097D01*
Y0454170D01*
Y0454242D01*
Y0454315D01*
X0356214D01*
Y0454388D01*
Y0454460D01*
Y0454533D01*
Y0454606D01*
Y0454678D01*
X0356287D01*
Y0454751D01*
Y0454824D01*
Y0454896D01*
Y0454969D01*
Y0455042D01*
X0356360D01*
Y0455115D01*
Y0455187D01*
Y0455260D01*
Y0455333D01*
X0359122D01*
Y0455260D01*
Y0455187D01*
Y0455115D01*
Y0455042D01*
Y0454969D01*
Y0454896D01*
Y0454824D01*
Y0454751D01*
Y0454678D01*
Y0454606D01*
Y0454533D01*
Y0454460D01*
Y0454388D01*
Y0454315D01*
Y0454242D01*
Y0454170D01*
Y0454097D01*
Y0454024D01*
Y0453951D01*
Y0453879D01*
Y0453806D01*
Y0453733D01*
Y0453661D01*
Y0453588D01*
Y0453515D01*
Y0453442D01*
Y0453370D01*
Y0453297D01*
Y0453224D01*
Y0453152D01*
X0359195D01*
Y0453079D01*
Y0453006D01*
Y0452934D01*
X0359268D01*
Y0452861D01*
Y0452788D01*
Y0452715D01*
X0359341D01*
Y0452643D01*
Y0452570D01*
X0359413D01*
Y0452497D01*
X0359486D01*
Y0452425D01*
X0359559D01*
Y0452352D01*
X0359631D01*
Y0452279D01*
X0359704D01*
Y0452207D01*
X0359777D01*
Y0452134D01*
X0359849D01*
Y0452061D01*
Y0451989D01*
Y0451916D01*
Y0451843D01*
Y0451770D01*
Y0451698D01*
Y0451625D01*
Y0451552D01*
Y0451480D01*
Y0451407D01*
Y0451334D01*
Y0451262D01*
Y0451189D01*
Y0451116D01*
Y0451043D01*
Y0450971D01*
Y0450898D01*
Y0450825D01*
Y0450753D01*
Y0450680D01*
Y0450607D01*
Y0450534D01*
Y0450462D01*
Y0450389D01*
Y0450316D01*
Y0450244D01*
Y0450171D01*
Y0450098D01*
Y0450026D01*
Y0449953D01*
Y0449880D01*
Y0449808D01*
Y0449735D01*
Y0449662D01*
Y0449589D01*
Y0449517D01*
Y0449444D01*
Y0449371D01*
X0359777D01*
Y0449299D01*
X0359486D01*
Y0449226D01*
X0359268D01*
Y0449153D01*
X0359050D01*
Y0449081D01*
X0358832D01*
Y0449008D01*
X0358686D01*
Y0448935D01*
X0358468D01*
Y0448862D01*
X0358323D01*
Y0448790D01*
X0358177D01*
Y0448717D01*
X0358032D01*
Y0448644D01*
X0357887D01*
Y0448572D01*
X0357814D01*
Y0448499D01*
X0357668D01*
Y0448426D01*
X0357523D01*
Y0448353D01*
X0357450D01*
Y0448281D01*
X0357305D01*
Y0448208D01*
X0357232D01*
Y0448135D01*
X0357159D01*
Y0448063D01*
X0357087D01*
Y0447990D01*
X0356941D01*
Y0447917D01*
X0356869D01*
Y0447845D01*
X0356796D01*
Y0447772D01*
X0356723D01*
Y0447699D01*
X0356651D01*
Y0447626D01*
X0356578D01*
Y0447554D01*
Y0447481D01*
X0356505D01*
Y0447408D01*
X0356433D01*
Y0447336D01*
X0356360D01*
Y0447263D01*
X0356287D01*
Y0447190D01*
Y0447118D01*
X0356214D01*
Y0447045D01*
X0356142D01*
Y0446972D01*
Y0446900D01*
X0356069D01*
Y0446827D01*
Y0446754D01*
X0355996D01*
Y0446681D01*
Y0446609D01*
Y0446536D01*
X0355924D01*
Y0446463D01*
Y0446391D01*
Y0446318D01*
X0355851D01*
Y0446245D01*
Y0446173D01*
Y0446100D01*
Y0446027D01*
Y0445954D01*
Y0445882D01*
Y0445809D01*
Y0445736D01*
Y0445664D01*
Y0445591D01*
Y0445518D01*
Y0445445D01*
Y0445373D01*
Y0445300D01*
Y0445227D01*
X0355924D01*
Y0445155D01*
Y0445082D01*
Y0445009D01*
Y0444937D01*
X0355996D01*
Y0444864D01*
Y0444791D01*
Y0444719D01*
X0356069D01*
Y0444646D01*
Y0444573D01*
X0356142D01*
Y0444500D01*
X0355996D01*
Y0444428D01*
X0355778D01*
Y0444355D01*
X0354688D01*
Y0444428D01*
X0354470D01*
Y0444500D01*
X0354324D01*
Y0444573D01*
X0354179D01*
Y0444646D01*
X0354033D01*
Y0444719D01*
X0353888D01*
Y0444791D01*
X0353815D01*
Y0444864D01*
X0353670D01*
Y0444937D01*
X0353597D01*
Y0445009D01*
X0353524D01*
Y0445082D01*
X0353452D01*
Y0445155D01*
X0353379D01*
Y0445227D01*
X0353306D01*
Y0445300D01*
X0353234D01*
Y0445373D01*
X0353161D01*
Y0445445D01*
X0353088D01*
Y0445518D01*
X0353016D01*
Y0445591D01*
Y0445664D01*
X0352943D01*
Y0445736D01*
X0352870D01*
Y0445809D01*
Y0445882D01*
X0352798D01*
Y0445954D01*
X0352725D01*
Y0446027D01*
Y0446100D01*
X0352652D01*
Y0446173D01*
Y0446245D01*
X0352579D01*
Y0446318D01*
Y0446391D01*
X0352507D01*
Y0446463D01*
X0352434D01*
Y0446536D01*
Y0446609D01*
X0352361D01*
Y0446681D01*
Y0446754D01*
X0352289D01*
Y0446827D01*
Y0446900D01*
Y0446972D01*
X0352216D01*
Y0447045D01*
Y0447118D01*
X0352143D01*
Y0447190D01*
Y0447263D01*
X0352071D01*
Y0447336D01*
Y0447408D01*
X0351998D01*
Y0447481D01*
Y0447554D01*
X0351925D01*
Y0447626D01*
Y0447699D01*
X0351852D01*
Y0447772D01*
Y0447845D01*
Y0447917D01*
X0351780D01*
Y0447990D01*
Y0448063D01*
X0351707D01*
Y0448135D01*
Y0448208D01*
X0351634D01*
Y0448281D01*
Y0448353D01*
X0351562D01*
Y0448426D01*
X0351489D01*
Y0448499D01*
Y0448572D01*
X0351416D01*
Y0448644D01*
X0351344D01*
Y0448717D01*
Y0448790D01*
X0351271D01*
Y0448862D01*
X0351198D01*
Y0448935D01*
X0351126D01*
Y0449008D01*
X0351053D01*
Y0449081D01*
X0350907D01*
Y0449153D01*
X0350326D01*
Y0449081D01*
X0350108D01*
Y0449008D01*
X0350035D01*
Y0448935D01*
X0349962D01*
Y0448862D01*
X0349890D01*
Y0448790D01*
X0349817D01*
Y0448717D01*
X0349744D01*
Y0448644D01*
X0349672D01*
Y0448572D01*
X0349599D01*
Y0448499D01*
X0349526D01*
Y0448426D01*
X0349453D01*
Y0448353D01*
X0349235D01*
Y0448281D01*
X0348944D01*
Y0448353D01*
X0348726D01*
Y0448426D01*
X0348581D01*
Y0448499D01*
X0348508D01*
Y0448572D01*
X0348436D01*
Y0448644D01*
X0348363D01*
Y0448717D01*
X0348290D01*
Y0448790D01*
X0348218D01*
Y0448862D01*
Y0448935D01*
X0348145D01*
Y0449008D01*
Y0449081D01*
X0348072D01*
Y0449153D01*
Y0449226D01*
X0347999D01*
Y0449299D01*
Y0449371D01*
X0347927D01*
Y0449444D01*
Y0449517D01*
X0347854D01*
Y0449589D01*
Y0449662D01*
Y0449735D01*
X0347781D01*
Y0449808D01*
Y0449880D01*
X0347709D01*
Y0449953D01*
Y0450026D01*
Y0450098D01*
X0347636D01*
Y0450171D01*
Y0450244D01*
X0347563D01*
Y0450316D01*
X0347491D01*
Y0450389D01*
Y0450462D01*
X0347418D01*
Y0450534D01*
X0347345D01*
Y0450607D01*
X0347272D01*
Y0450680D01*
X0347200D01*
Y0450753D01*
X0347127D01*
Y0450825D01*
X0347054D01*
Y0450898D01*
X0346982D01*
Y0450971D01*
X0346909D01*
Y0451043D01*
X0346836D01*
Y0451116D01*
X0346763D01*
Y0451189D01*
X0346691D01*
Y0451262D01*
X0346618D01*
Y0451334D01*
X0346545D01*
Y0451407D01*
X0346473D01*
Y0451480D01*
X0346400D01*
Y0451552D01*
X0346327D01*
Y0451625D01*
X0346255D01*
Y0451698D01*
X0346182D01*
Y0451770D01*
Y0451843D01*
X0346109D01*
Y0451916D01*
Y0451989D01*
X0346037D01*
Y0452061D01*
Y0452134D01*
X0345964D01*
Y0452207D01*
Y0452279D01*
Y0452352D01*
Y0452425D01*
Y0452497D01*
X0345891D01*
Y0452570D01*
Y0452643D01*
X0349744D01*
Y0452715D01*
X0349817D01*
Y0452788D01*
Y0452861D01*
Y0452934D01*
Y0453006D01*
Y0453079D01*
Y0453152D01*
Y0453224D01*
Y0453297D01*
Y0453370D01*
Y0453442D01*
Y0453515D01*
Y0453588D01*
Y0453661D01*
Y0453733D01*
Y0453806D01*
Y0453879D01*
Y0453951D01*
Y0454024D01*
Y0454097D01*
Y0454170D01*
Y0454242D01*
Y0454315D01*
Y0454388D01*
Y0454460D01*
Y0454533D01*
Y0454606D01*
Y0454678D01*
Y0454751D01*
Y0454824D01*
Y0454896D01*
Y0454969D01*
Y0455042D01*
Y0455115D01*
Y0455187D01*
Y0455260D01*
Y0455333D01*
Y0455405D01*
Y0455478D01*
Y0455551D01*
Y0455623D01*
Y0455696D01*
Y0455769D01*
Y0455842D01*
Y0455914D01*
Y0455987D01*
Y0456060D01*
Y0456132D01*
Y0456205D01*
Y0456278D01*
Y0456351D01*
Y0456423D01*
Y0456496D01*
Y0456569D01*
Y0456641D01*
Y0456714D01*
Y0456787D01*
Y0456859D01*
Y0456932D01*
Y0457005D01*
Y0457078D01*
Y0457150D01*
Y0457223D01*
Y0457296D01*
Y0457368D01*
Y0457441D01*
Y0457514D01*
Y0457586D01*
Y0457659D01*
Y0457732D01*
Y0457804D01*
Y0457877D01*
X0353016D01*
Y0457804D01*
D02*
G37*
G36*
X0444690Y0453515D02*
Y0453442D01*
Y0453370D01*
X0444545D01*
Y0453297D01*
X0444472D01*
Y0453224D01*
X0444327D01*
Y0453152D01*
Y0453079D01*
X0444254D01*
Y0453006D01*
Y0452934D01*
X0444181D01*
Y0452861D01*
Y0452788D01*
Y0452715D01*
Y0452643D01*
Y0452570D01*
Y0452497D01*
Y0452425D01*
Y0452352D01*
Y0452279D01*
Y0452207D01*
Y0452134D01*
Y0452061D01*
Y0451989D01*
Y0451916D01*
Y0451843D01*
Y0451770D01*
Y0451698D01*
Y0451625D01*
Y0451552D01*
Y0451480D01*
Y0451407D01*
Y0451334D01*
Y0451262D01*
Y0451189D01*
Y0451116D01*
Y0451043D01*
Y0450971D01*
Y0450898D01*
Y0450825D01*
Y0450753D01*
Y0450680D01*
Y0450607D01*
Y0450534D01*
Y0450462D01*
Y0450389D01*
Y0450316D01*
Y0450244D01*
Y0450171D01*
Y0450098D01*
Y0450026D01*
Y0449953D01*
Y0449880D01*
Y0449808D01*
Y0449735D01*
Y0449662D01*
Y0449589D01*
Y0449517D01*
Y0449444D01*
Y0449371D01*
Y0449299D01*
Y0449226D01*
Y0449153D01*
Y0449081D01*
Y0449008D01*
Y0448935D01*
Y0448862D01*
Y0448790D01*
Y0448717D01*
Y0448644D01*
Y0448572D01*
Y0448499D01*
Y0448426D01*
Y0448353D01*
Y0448281D01*
Y0448208D01*
Y0448135D01*
Y0448063D01*
Y0447990D01*
Y0447917D01*
Y0447845D01*
X0443891D01*
Y0447917D01*
X0443818D01*
Y0447990D01*
Y0448063D01*
X0443745D01*
Y0448135D01*
X0443673D01*
Y0448208D01*
X0443600D01*
Y0448281D01*
X0443527D01*
Y0448353D01*
X0443454D01*
Y0448426D01*
X0443382D01*
Y0448499D01*
X0443309D01*
Y0448572D01*
X0443236D01*
Y0448644D01*
Y0448717D01*
X0443164D01*
Y0448790D01*
X0443091D01*
Y0448862D01*
X0443018D01*
Y0448935D01*
X0442946D01*
Y0449008D01*
X0442873D01*
Y0449081D01*
X0442800D01*
Y0449153D01*
X0442728D01*
Y0449226D01*
Y0449299D01*
X0442655D01*
Y0449371D01*
X0442582D01*
Y0449444D01*
X0442509D01*
Y0449517D01*
X0442437D01*
Y0449589D01*
X0442364D01*
Y0449662D01*
X0442291D01*
Y0449735D01*
X0442218D01*
Y0449808D01*
Y0449880D01*
X0442146D01*
Y0449953D01*
X0442073D01*
Y0450026D01*
X0442000D01*
Y0450098D01*
X0441928D01*
Y0450171D01*
X0441855D01*
Y0450244D01*
X0441782D01*
Y0450316D01*
X0441710D01*
Y0450389D01*
Y0450462D01*
X0441637D01*
Y0450534D01*
X0441564D01*
Y0450607D01*
X0441492D01*
Y0450680D01*
X0441419D01*
Y0450753D01*
X0441346D01*
Y0450825D01*
X0441273D01*
Y0450898D01*
X0441201D01*
Y0450971D01*
Y0451043D01*
X0441128D01*
Y0451116D01*
X0441055D01*
Y0451189D01*
X0440983D01*
Y0451262D01*
X0440910D01*
Y0451334D01*
X0440837D01*
Y0451407D01*
X0440765D01*
Y0451480D01*
X0440692D01*
Y0451552D01*
Y0451625D01*
X0440619D01*
Y0451698D01*
X0440547D01*
Y0451770D01*
X0440474D01*
Y0451843D01*
X0440401D01*
Y0451916D01*
X0440328D01*
Y0451989D01*
X0440256D01*
Y0452061D01*
X0440183D01*
Y0451989D01*
Y0451916D01*
Y0451843D01*
Y0451770D01*
Y0451698D01*
Y0451625D01*
Y0451552D01*
Y0451480D01*
Y0451407D01*
Y0451334D01*
Y0451262D01*
Y0451189D01*
Y0451116D01*
Y0451043D01*
Y0450971D01*
Y0450898D01*
Y0450825D01*
Y0450753D01*
Y0450680D01*
Y0450607D01*
Y0450534D01*
Y0450462D01*
Y0450389D01*
Y0450316D01*
Y0450244D01*
Y0450171D01*
Y0450098D01*
Y0450026D01*
Y0449953D01*
Y0449880D01*
Y0449808D01*
Y0449735D01*
Y0449662D01*
Y0449589D01*
Y0449517D01*
Y0449444D01*
Y0449371D01*
Y0449299D01*
Y0449226D01*
Y0449153D01*
Y0449081D01*
Y0449008D01*
Y0448935D01*
Y0448862D01*
Y0448790D01*
Y0448717D01*
Y0448644D01*
Y0448572D01*
X0440256D01*
Y0448499D01*
Y0448426D01*
X0440328D01*
Y0448353D01*
Y0448281D01*
X0440474D01*
Y0448208D01*
X0440547D01*
Y0448135D01*
X0440765D01*
Y0448063D01*
Y0447990D01*
Y0447917D01*
X0438874D01*
Y0447990D01*
Y0448063D01*
Y0448135D01*
X0439092D01*
Y0448208D01*
X0439238D01*
Y0448281D01*
X0439311D01*
Y0448353D01*
Y0448426D01*
X0439383D01*
Y0448499D01*
Y0448572D01*
Y0448644D01*
Y0448717D01*
X0439456D01*
Y0448790D01*
Y0448862D01*
Y0448935D01*
Y0449008D01*
Y0449081D01*
Y0449153D01*
Y0449226D01*
Y0449299D01*
Y0449371D01*
Y0449444D01*
Y0449517D01*
Y0449589D01*
Y0449662D01*
Y0449735D01*
Y0449808D01*
Y0449880D01*
Y0449953D01*
Y0450026D01*
Y0450098D01*
Y0450171D01*
Y0450244D01*
Y0450316D01*
Y0450389D01*
Y0450462D01*
Y0450534D01*
Y0450607D01*
Y0450680D01*
Y0450753D01*
Y0450825D01*
Y0450898D01*
Y0450971D01*
Y0451043D01*
Y0451116D01*
Y0451189D01*
Y0451262D01*
Y0451334D01*
Y0451407D01*
Y0451480D01*
Y0451552D01*
Y0451625D01*
Y0451698D01*
Y0451770D01*
Y0451843D01*
Y0451916D01*
Y0451989D01*
Y0452061D01*
Y0452134D01*
Y0452207D01*
Y0452279D01*
Y0452352D01*
Y0452425D01*
Y0452497D01*
Y0452570D01*
Y0452643D01*
Y0452715D01*
X0439383D01*
Y0452788D01*
Y0452861D01*
Y0452934D01*
Y0453006D01*
X0439311D01*
Y0453079D01*
Y0453152D01*
X0439238D01*
Y0453224D01*
X0439092D01*
Y0453297D01*
X0438947D01*
Y0453370D01*
X0438874D01*
Y0453442D01*
Y0453515D01*
Y0453588D01*
X0440547D01*
Y0453515D01*
X0440619D01*
Y0453442D01*
X0440692D01*
Y0453370D01*
X0440765D01*
Y0453297D01*
X0440837D01*
Y0453224D01*
X0440910D01*
Y0453152D01*
X0440983D01*
Y0453079D01*
Y0453006D01*
X0441055D01*
Y0452934D01*
X0441128D01*
Y0452861D01*
X0441201D01*
Y0452788D01*
X0441273D01*
Y0452715D01*
X0441346D01*
Y0452643D01*
X0441419D01*
Y0452570D01*
X0441492D01*
Y0452497D01*
Y0452425D01*
X0441564D01*
Y0452352D01*
X0441637D01*
Y0452279D01*
X0441710D01*
Y0452207D01*
X0441782D01*
Y0452134D01*
X0441855D01*
Y0452061D01*
X0441928D01*
Y0451989D01*
X0442000D01*
Y0451916D01*
Y0451843D01*
X0442073D01*
Y0451770D01*
X0442146D01*
Y0451698D01*
X0442218D01*
Y0451625D01*
X0442291D01*
Y0451552D01*
X0442364D01*
Y0451480D01*
X0442437D01*
Y0451407D01*
X0442509D01*
Y0451334D01*
X0442582D01*
Y0451262D01*
Y0451189D01*
X0442655D01*
Y0451116D01*
X0442728D01*
Y0451043D01*
X0442800D01*
Y0450971D01*
X0442873D01*
Y0450898D01*
X0442946D01*
Y0450825D01*
X0443018D01*
Y0450753D01*
X0443091D01*
Y0450680D01*
Y0450607D01*
X0443164D01*
Y0450534D01*
X0443236D01*
Y0450462D01*
X0443309D01*
Y0450389D01*
X0443382D01*
Y0450462D01*
Y0450534D01*
Y0450607D01*
Y0450680D01*
Y0450753D01*
Y0450825D01*
Y0450898D01*
Y0450971D01*
Y0451043D01*
Y0451116D01*
Y0451189D01*
Y0451262D01*
Y0451334D01*
Y0451407D01*
Y0451480D01*
Y0451552D01*
Y0451625D01*
Y0451698D01*
Y0451770D01*
Y0451843D01*
Y0451916D01*
Y0451989D01*
Y0452061D01*
Y0452134D01*
Y0452207D01*
Y0452279D01*
Y0452352D01*
Y0452425D01*
Y0452497D01*
Y0452570D01*
Y0452643D01*
Y0452715D01*
Y0452788D01*
Y0452861D01*
Y0452934D01*
Y0453006D01*
Y0453079D01*
X0443309D01*
Y0453152D01*
X0443236D01*
Y0453224D01*
X0443164D01*
Y0453297D01*
X0443018D01*
Y0453370D01*
X0442873D01*
Y0453442D01*
Y0453515D01*
Y0453588D01*
X0444690D01*
Y0453515D01*
D02*
G37*
G36*
X0433131D02*
Y0453442D01*
Y0453370D01*
X0433058D01*
Y0453297D01*
X0432840D01*
Y0453224D01*
X0432768D01*
Y0453152D01*
X0432695D01*
Y0453079D01*
Y0453006D01*
X0432622D01*
Y0452934D01*
Y0452861D01*
Y0452788D01*
Y0452715D01*
Y0452643D01*
Y0452570D01*
Y0452497D01*
Y0452425D01*
Y0452352D01*
Y0452279D01*
Y0452207D01*
Y0452134D01*
Y0452061D01*
Y0451989D01*
Y0451916D01*
Y0451843D01*
Y0451770D01*
Y0451698D01*
Y0451625D01*
Y0451552D01*
Y0451480D01*
Y0451407D01*
Y0451334D01*
Y0451262D01*
Y0451189D01*
Y0451116D01*
Y0451043D01*
Y0450971D01*
Y0450898D01*
Y0450825D01*
Y0450753D01*
Y0450680D01*
Y0450607D01*
Y0450534D01*
Y0450462D01*
Y0450389D01*
Y0450316D01*
Y0450244D01*
Y0450171D01*
Y0450098D01*
Y0450026D01*
Y0449953D01*
Y0449880D01*
Y0449808D01*
Y0449735D01*
Y0449662D01*
Y0449589D01*
Y0449517D01*
Y0449444D01*
Y0449371D01*
Y0449299D01*
Y0449226D01*
Y0449153D01*
Y0449081D01*
Y0449008D01*
Y0448935D01*
Y0448862D01*
Y0448790D01*
Y0448717D01*
Y0448644D01*
Y0448572D01*
Y0448499D01*
Y0448426D01*
X0432695D01*
Y0448353D01*
Y0448281D01*
X0432768D01*
Y0448208D01*
X0432913D01*
Y0448135D01*
X0433131D01*
Y0448063D01*
Y0447990D01*
Y0447917D01*
X0430805D01*
Y0447990D01*
Y0448063D01*
Y0448135D01*
X0431023D01*
Y0448208D01*
X0431168D01*
Y0448281D01*
X0431241D01*
Y0448353D01*
Y0448426D01*
X0431314D01*
Y0448499D01*
Y0448572D01*
Y0448644D01*
Y0448717D01*
Y0448790D01*
Y0448862D01*
Y0448935D01*
Y0449008D01*
Y0449081D01*
Y0449153D01*
Y0449226D01*
Y0449299D01*
Y0449371D01*
Y0449444D01*
Y0449517D01*
Y0449589D01*
Y0449662D01*
Y0449735D01*
Y0449808D01*
Y0449880D01*
Y0449953D01*
Y0450026D01*
Y0450098D01*
Y0450171D01*
Y0450244D01*
Y0450316D01*
Y0450389D01*
Y0450462D01*
Y0450534D01*
Y0450607D01*
Y0450680D01*
Y0450753D01*
Y0450825D01*
Y0450898D01*
Y0450971D01*
Y0451043D01*
Y0451116D01*
Y0451189D01*
Y0451262D01*
Y0451334D01*
Y0451407D01*
Y0451480D01*
Y0451552D01*
Y0451625D01*
Y0451698D01*
Y0451770D01*
Y0451843D01*
Y0451916D01*
Y0451989D01*
Y0452061D01*
Y0452134D01*
Y0452207D01*
X0431241D01*
Y0452134D01*
Y0452061D01*
X0431168D01*
Y0451989D01*
Y0451916D01*
Y0451843D01*
X0431095D01*
Y0451770D01*
Y0451698D01*
X0431023D01*
Y0451625D01*
Y0451552D01*
X0430950D01*
Y0451480D01*
Y0451407D01*
Y0451334D01*
X0430877D01*
Y0451262D01*
Y0451189D01*
X0430805D01*
Y0451116D01*
Y0451043D01*
X0430732D01*
Y0450971D01*
Y0450898D01*
X0430659D01*
Y0450825D01*
Y0450753D01*
Y0450680D01*
X0430586D01*
Y0450607D01*
Y0450534D01*
X0430514D01*
Y0450462D01*
Y0450389D01*
X0430441D01*
Y0450316D01*
Y0450244D01*
Y0450171D01*
X0430369D01*
Y0450098D01*
Y0450026D01*
X0430296D01*
Y0449953D01*
Y0449880D01*
X0430223D01*
Y0449808D01*
Y0449735D01*
Y0449662D01*
X0430150D01*
Y0449589D01*
Y0449517D01*
X0430078D01*
Y0449444D01*
Y0449371D01*
X0430005D01*
Y0449299D01*
Y0449226D01*
X0429932D01*
Y0449153D01*
Y0449081D01*
Y0449008D01*
X0429860D01*
Y0448935D01*
Y0448862D01*
X0429787D01*
Y0448790D01*
Y0448717D01*
X0429714D01*
Y0448644D01*
Y0448572D01*
Y0448499D01*
X0429641D01*
Y0448426D01*
Y0448353D01*
X0429569D01*
Y0448281D01*
Y0448208D01*
X0429496D01*
Y0448135D01*
Y0448063D01*
Y0447990D01*
X0429423D01*
Y0447917D01*
Y0447845D01*
X0429205D01*
Y0447917D01*
X0429133D01*
Y0447990D01*
Y0448063D01*
X0429060D01*
Y0448135D01*
Y0448208D01*
X0428987D01*
Y0448281D01*
Y0448353D01*
X0428914D01*
Y0448426D01*
Y0448499D01*
Y0448572D01*
X0428842D01*
Y0448644D01*
Y0448717D01*
X0428769D01*
Y0448790D01*
Y0448862D01*
X0428696D01*
Y0448935D01*
Y0449008D01*
X0428624D01*
Y0449081D01*
Y0449153D01*
X0428551D01*
Y0449226D01*
Y0449299D01*
Y0449371D01*
X0428478D01*
Y0449444D01*
Y0449517D01*
X0428406D01*
Y0449589D01*
Y0449662D01*
X0428333D01*
Y0449735D01*
Y0449808D01*
X0428260D01*
Y0449880D01*
Y0449953D01*
Y0450026D01*
X0428187D01*
Y0450098D01*
Y0450171D01*
X0428115D01*
Y0450244D01*
Y0450316D01*
X0428042D01*
Y0450389D01*
Y0450462D01*
X0427969D01*
Y0450534D01*
Y0450607D01*
Y0450680D01*
X0427897D01*
Y0450753D01*
Y0450825D01*
X0427824D01*
Y0450898D01*
Y0450971D01*
X0427751D01*
Y0451043D01*
Y0451116D01*
X0427678D01*
Y0451189D01*
Y0451262D01*
Y0451334D01*
X0427606D01*
Y0451407D01*
Y0451480D01*
X0427533D01*
Y0451552D01*
Y0451625D01*
X0427460D01*
Y0451698D01*
Y0451770D01*
X0427388D01*
Y0451843D01*
Y0451916D01*
Y0451989D01*
X0427315D01*
Y0452061D01*
Y0452134D01*
X0427242D01*
Y0452207D01*
Y0452279D01*
X0427170D01*
Y0452207D01*
Y0452134D01*
Y0452061D01*
Y0451989D01*
Y0451916D01*
Y0451843D01*
Y0451770D01*
Y0451698D01*
Y0451625D01*
Y0451552D01*
Y0451480D01*
Y0451407D01*
Y0451334D01*
Y0451262D01*
Y0451189D01*
Y0451116D01*
Y0451043D01*
Y0450971D01*
Y0450898D01*
Y0450825D01*
Y0450753D01*
Y0450680D01*
Y0450607D01*
Y0450534D01*
Y0450462D01*
Y0450389D01*
Y0450316D01*
Y0450244D01*
Y0450171D01*
Y0450098D01*
Y0450026D01*
Y0449953D01*
Y0449880D01*
Y0449808D01*
Y0449735D01*
Y0449662D01*
Y0449589D01*
Y0449517D01*
Y0449444D01*
Y0449371D01*
Y0449299D01*
Y0449226D01*
Y0449153D01*
Y0449081D01*
Y0449008D01*
Y0448935D01*
Y0448862D01*
Y0448790D01*
Y0448717D01*
Y0448644D01*
Y0448572D01*
X0427242D01*
Y0448499D01*
Y0448426D01*
Y0448353D01*
X0427315D01*
Y0448281D01*
X0427388D01*
Y0448208D01*
X0427533D01*
Y0448135D01*
X0427678D01*
Y0448063D01*
Y0447990D01*
Y0447917D01*
X0425934D01*
Y0447990D01*
Y0448063D01*
Y0448135D01*
X0426079D01*
Y0448208D01*
X0426225D01*
Y0448281D01*
X0426297D01*
Y0448353D01*
X0426370D01*
Y0448426D01*
Y0448499D01*
X0426443D01*
Y0448572D01*
Y0448644D01*
Y0448717D01*
Y0448790D01*
Y0448862D01*
Y0448935D01*
Y0449008D01*
Y0449081D01*
Y0449153D01*
Y0449226D01*
Y0449299D01*
Y0449371D01*
Y0449444D01*
Y0449517D01*
Y0449589D01*
Y0449662D01*
Y0449735D01*
Y0449808D01*
Y0449880D01*
Y0449953D01*
Y0450026D01*
Y0450098D01*
Y0450171D01*
Y0450244D01*
Y0450316D01*
Y0450389D01*
Y0450462D01*
Y0450534D01*
Y0450607D01*
Y0450680D01*
Y0450753D01*
Y0450825D01*
Y0450898D01*
Y0450971D01*
Y0451043D01*
Y0451116D01*
Y0451189D01*
Y0451262D01*
Y0451334D01*
Y0451407D01*
Y0451480D01*
Y0451552D01*
Y0451625D01*
Y0451698D01*
Y0451770D01*
Y0451843D01*
Y0451916D01*
Y0451989D01*
Y0452061D01*
Y0452134D01*
Y0452207D01*
Y0452279D01*
Y0452352D01*
Y0452425D01*
Y0452497D01*
Y0452570D01*
Y0452643D01*
Y0452715D01*
Y0452788D01*
Y0452861D01*
Y0452934D01*
Y0453006D01*
X0426370D01*
Y0453079D01*
Y0453152D01*
X0426297D01*
Y0453224D01*
X0426225D01*
Y0453297D01*
X0426007D01*
Y0453370D01*
X0425934D01*
Y0453442D01*
Y0453515D01*
Y0453588D01*
X0427969D01*
Y0453515D01*
Y0453442D01*
X0428042D01*
Y0453370D01*
Y0453297D01*
X0428115D01*
Y0453224D01*
Y0453152D01*
X0428187D01*
Y0453079D01*
Y0453006D01*
Y0452934D01*
X0428260D01*
Y0452861D01*
Y0452788D01*
X0428333D01*
Y0452715D01*
Y0452643D01*
X0428406D01*
Y0452570D01*
Y0452497D01*
X0428478D01*
Y0452425D01*
Y0452352D01*
Y0452279D01*
X0428551D01*
Y0452207D01*
Y0452134D01*
X0428624D01*
Y0452061D01*
Y0451989D01*
X0428696D01*
Y0451916D01*
Y0451843D01*
X0428769D01*
Y0451770D01*
Y0451698D01*
Y0451625D01*
X0428842D01*
Y0451552D01*
Y0451480D01*
X0428914D01*
Y0451407D01*
Y0451334D01*
X0428987D01*
Y0451262D01*
Y0451189D01*
X0429060D01*
Y0451116D01*
Y0451043D01*
Y0450971D01*
X0429133D01*
Y0450898D01*
Y0450825D01*
X0429205D01*
Y0450753D01*
Y0450680D01*
X0429278D01*
Y0450607D01*
Y0450534D01*
X0429351D01*
Y0450462D01*
Y0450389D01*
Y0450316D01*
X0429423D01*
Y0450244D01*
Y0450171D01*
X0429496D01*
Y0450098D01*
Y0450026D01*
X0429641D01*
Y0450098D01*
Y0450171D01*
X0429714D01*
Y0450244D01*
Y0450316D01*
X0429787D01*
Y0450389D01*
Y0450462D01*
Y0450534D01*
X0429860D01*
Y0450607D01*
Y0450680D01*
X0429932D01*
Y0450753D01*
Y0450825D01*
X0430005D01*
Y0450898D01*
Y0450971D01*
Y0451043D01*
X0430078D01*
Y0451116D01*
Y0451189D01*
X0430150D01*
Y0451262D01*
Y0451334D01*
X0430223D01*
Y0451407D01*
Y0451480D01*
Y0451552D01*
X0430296D01*
Y0451625D01*
Y0451698D01*
X0430369D01*
Y0451770D01*
Y0451843D01*
X0430441D01*
Y0451916D01*
Y0451989D01*
Y0452061D01*
X0430514D01*
Y0452134D01*
Y0452207D01*
X0430586D01*
Y0452279D01*
Y0452352D01*
X0430659D01*
Y0452425D01*
Y0452497D01*
Y0452570D01*
X0430732D01*
Y0452643D01*
Y0452715D01*
X0430805D01*
Y0452788D01*
Y0452861D01*
X0430877D01*
Y0452934D01*
Y0453006D01*
Y0453079D01*
X0430950D01*
Y0453152D01*
Y0453224D01*
X0431023D01*
Y0453297D01*
Y0453370D01*
X0431095D01*
Y0453442D01*
Y0453515D01*
X0431168D01*
Y0453588D01*
X0433131D01*
Y0453515D01*
D02*
G37*
G36*
X0384349D02*
Y0453442D01*
X0384422D01*
Y0453370D01*
Y0453297D01*
Y0453224D01*
X0384495D01*
Y0453152D01*
Y0453079D01*
X0384567D01*
Y0453006D01*
Y0452934D01*
Y0452861D01*
X0384640D01*
Y0452788D01*
Y0452715D01*
X0384713D01*
Y0452643D01*
Y0452570D01*
Y0452497D01*
X0384786D01*
Y0452425D01*
Y0452352D01*
Y0452279D01*
X0384858D01*
Y0452207D01*
Y0452134D01*
X0384931D01*
Y0452061D01*
Y0451989D01*
Y0451916D01*
X0385004D01*
Y0451843D01*
Y0451770D01*
Y0451698D01*
X0385076D01*
Y0451625D01*
Y0451552D01*
X0385149D01*
Y0451480D01*
Y0451407D01*
Y0451334D01*
X0385222D01*
Y0451262D01*
Y0451189D01*
X0385295D01*
Y0451116D01*
Y0451043D01*
Y0450971D01*
X0385367D01*
Y0450898D01*
Y0450825D01*
Y0450753D01*
X0385440D01*
Y0450680D01*
Y0450607D01*
X0385513D01*
Y0450534D01*
Y0450462D01*
Y0450389D01*
X0385585D01*
Y0450316D01*
Y0450244D01*
Y0450171D01*
X0385658D01*
Y0450098D01*
Y0450026D01*
X0385731D01*
Y0449953D01*
Y0449880D01*
Y0449808D01*
X0385803D01*
Y0449735D01*
Y0449662D01*
X0385876D01*
Y0449589D01*
Y0449517D01*
Y0449444D01*
X0385949D01*
Y0449371D01*
Y0449299D01*
Y0449226D01*
X0386021D01*
Y0449153D01*
Y0449081D01*
X0386094D01*
Y0449008D01*
Y0448935D01*
Y0448862D01*
X0386167D01*
Y0448790D01*
Y0448717D01*
Y0448644D01*
X0386240D01*
Y0448572D01*
X0386312D01*
Y0448499D01*
Y0448426D01*
X0386385D01*
Y0448353D01*
X0386458D01*
Y0448281D01*
X0386530D01*
Y0448208D01*
X0386676D01*
Y0448135D01*
X0386821D01*
Y0448063D01*
Y0447990D01*
Y0447917D01*
X0384422D01*
Y0447990D01*
Y0448063D01*
Y0448135D01*
X0384640D01*
Y0448208D01*
X0384786D01*
Y0448281D01*
X0384858D01*
Y0448353D01*
Y0448426D01*
Y0448499D01*
Y0448572D01*
Y0448644D01*
Y0448717D01*
X0384786D01*
Y0448790D01*
Y0448862D01*
Y0448935D01*
X0384713D01*
Y0449008D01*
Y0449081D01*
X0384640D01*
Y0449153D01*
Y0449226D01*
Y0449299D01*
X0384567D01*
Y0449371D01*
Y0449444D01*
X0384495D01*
Y0449517D01*
X0382241D01*
Y0449444D01*
Y0449371D01*
X0382168D01*
Y0449299D01*
Y0449226D01*
X0382096D01*
Y0449153D01*
Y0449081D01*
Y0449008D01*
X0382023D01*
Y0448935D01*
Y0448862D01*
Y0448790D01*
X0381950D01*
Y0448717D01*
Y0448644D01*
Y0448572D01*
X0381878D01*
Y0448499D01*
Y0448426D01*
Y0448353D01*
X0381950D01*
Y0448281D01*
X0382023D01*
Y0448208D01*
X0382096D01*
Y0448135D01*
X0382314D01*
Y0448063D01*
Y0447990D01*
Y0447917D01*
X0378461D01*
Y0447990D01*
Y0448063D01*
Y0448135D01*
X0378751D01*
Y0448208D01*
X0378824D01*
Y0448281D01*
X0378897D01*
Y0448353D01*
X0378970D01*
Y0448426D01*
Y0448499D01*
Y0448572D01*
X0378897D01*
Y0448644D01*
Y0448717D01*
X0378824D01*
Y0448790D01*
Y0448862D01*
X0378751D01*
Y0448935D01*
X0378679D01*
Y0449008D01*
Y0449081D01*
X0378606D01*
Y0449153D01*
X0378533D01*
Y0449226D01*
X0378461D01*
Y0449299D01*
Y0449371D01*
X0378388D01*
Y0449444D01*
X0378315D01*
Y0449517D01*
Y0449589D01*
X0378242D01*
Y0449662D01*
X0378170D01*
Y0449735D01*
Y0449808D01*
X0378097D01*
Y0449880D01*
X0378024D01*
Y0449953D01*
X0377952D01*
Y0450026D01*
Y0450098D01*
X0377879D01*
Y0450171D01*
X0377806D01*
Y0450098D01*
X0377734D01*
Y0450026D01*
Y0449953D01*
X0377661D01*
Y0449880D01*
X0377588D01*
Y0449808D01*
Y0449735D01*
X0377516D01*
Y0449662D01*
X0377443D01*
Y0449589D01*
Y0449517D01*
X0377370D01*
Y0449444D01*
X0377297D01*
Y0449371D01*
Y0449299D01*
X0377225D01*
Y0449226D01*
Y0449153D01*
X0377152D01*
Y0449081D01*
X0377079D01*
Y0449008D01*
Y0448935D01*
X0377007D01*
Y0448862D01*
X0376934D01*
Y0448790D01*
Y0448717D01*
X0376861D01*
Y0448644D01*
Y0448572D01*
X0376788D01*
Y0448499D01*
Y0448426D01*
Y0448353D01*
Y0448281D01*
X0376861D01*
Y0448208D01*
X0377007D01*
Y0448135D01*
X0377225D01*
Y0448063D01*
Y0447990D01*
Y0447917D01*
X0375044D01*
Y0447990D01*
Y0448063D01*
Y0448135D01*
X0375335D01*
Y0448208D01*
X0375480D01*
Y0448281D01*
X0375625D01*
Y0448353D01*
X0375698D01*
Y0448426D01*
X0375771D01*
Y0448499D01*
X0375843D01*
Y0448572D01*
X0375916D01*
Y0448644D01*
X0375989D01*
Y0448717D01*
Y0448790D01*
X0376062D01*
Y0448862D01*
X0376134D01*
Y0448935D01*
X0376207D01*
Y0449008D01*
Y0449081D01*
X0376280D01*
Y0449153D01*
X0376352D01*
Y0449226D01*
Y0449299D01*
X0376425D01*
Y0449371D01*
X0376498D01*
Y0449444D01*
X0376570D01*
Y0449517D01*
Y0449589D01*
X0376643D01*
Y0449662D01*
X0376716D01*
Y0449735D01*
Y0449808D01*
X0376788D01*
Y0449880D01*
X0376861D01*
Y0449953D01*
Y0450026D01*
X0376934D01*
Y0450098D01*
X0377007D01*
Y0450171D01*
X0377079D01*
Y0450244D01*
Y0450316D01*
X0377152D01*
Y0450389D01*
X0377225D01*
Y0450462D01*
Y0450534D01*
X0377297D01*
Y0450607D01*
X0377370D01*
Y0450680D01*
Y0450753D01*
Y0450825D01*
X0377297D01*
Y0450898D01*
Y0450971D01*
X0377225D01*
Y0451043D01*
X0377152D01*
Y0451116D01*
Y0451189D01*
X0377079D01*
Y0451262D01*
X0377007D01*
Y0451334D01*
Y0451407D01*
X0376934D01*
Y0451480D01*
X0376861D01*
Y0451552D01*
X0376788D01*
Y0451625D01*
Y0451698D01*
X0376716D01*
Y0451770D01*
X0376643D01*
Y0451843D01*
Y0451916D01*
X0376570D01*
Y0451989D01*
X0376498D01*
Y0452061D01*
X0376425D01*
Y0452134D01*
Y0452207D01*
X0376352D01*
Y0452279D01*
X0376280D01*
Y0452352D01*
Y0452425D01*
X0376207D01*
Y0452497D01*
X0376134D01*
Y0452570D01*
X0376062D01*
Y0452643D01*
Y0452715D01*
X0375989D01*
Y0452788D01*
X0375916D01*
Y0452861D01*
Y0452934D01*
X0375843D01*
Y0453006D01*
X0375771D01*
Y0453079D01*
X0375698D01*
Y0453152D01*
X0375553D01*
Y0453224D01*
X0375480D01*
Y0453297D01*
X0375262D01*
Y0453370D01*
X0375116D01*
Y0453442D01*
Y0453515D01*
Y0453588D01*
X0377806D01*
Y0453515D01*
Y0453442D01*
Y0453370D01*
X0377661D01*
Y0453297D01*
X0377516D01*
Y0453224D01*
X0377443D01*
Y0453152D01*
Y0453079D01*
X0377370D01*
Y0453006D01*
X0377443D01*
Y0452934D01*
Y0452861D01*
Y0452788D01*
X0377516D01*
Y0452715D01*
Y0452643D01*
X0377588D01*
Y0452570D01*
X0377661D01*
Y0452497D01*
Y0452425D01*
X0377734D01*
Y0452352D01*
X0377806D01*
Y0452279D01*
Y0452207D01*
X0377879D01*
Y0452134D01*
X0377952D01*
Y0452061D01*
Y0451989D01*
X0378024D01*
Y0451916D01*
X0378097D01*
Y0451843D01*
Y0451770D01*
X0378170D01*
Y0451698D01*
X0378242D01*
Y0451625D01*
Y0451552D01*
X0378315D01*
Y0451480D01*
X0378388D01*
Y0451552D01*
Y0451625D01*
X0378461D01*
Y0451698D01*
X0378533D01*
Y0451770D01*
Y0451843D01*
X0378606D01*
Y0451916D01*
X0378679D01*
Y0451989D01*
X0378751D01*
Y0452061D01*
Y0452134D01*
X0378824D01*
Y0452207D01*
X0378897D01*
Y0452279D01*
Y0452352D01*
X0378970D01*
Y0452425D01*
X0379042D01*
Y0452497D01*
Y0452570D01*
X0379115D01*
Y0452643D01*
X0379188D01*
Y0452715D01*
Y0452788D01*
X0379260D01*
Y0452861D01*
Y0452934D01*
X0379333D01*
Y0453006D01*
Y0453079D01*
Y0453152D01*
Y0453224D01*
X0379260D01*
Y0453297D01*
X0379115D01*
Y0453370D01*
X0378897D01*
Y0453442D01*
Y0453515D01*
Y0453588D01*
X0380932D01*
Y0453515D01*
Y0453442D01*
Y0453370D01*
X0380860D01*
Y0453297D01*
X0380642D01*
Y0453224D01*
X0380496D01*
Y0453152D01*
X0380423D01*
Y0453079D01*
X0380278D01*
Y0453006D01*
X0380205D01*
Y0452934D01*
X0380133D01*
Y0452861D01*
Y0452788D01*
X0380060D01*
Y0452715D01*
X0379987D01*
Y0452643D01*
X0379915D01*
Y0452570D01*
Y0452497D01*
X0379842D01*
Y0452425D01*
X0379769D01*
Y0452352D01*
Y0452279D01*
X0379696D01*
Y0452207D01*
X0379624D01*
Y0452134D01*
X0379551D01*
Y0452061D01*
Y0451989D01*
X0379479D01*
Y0451916D01*
X0379406D01*
Y0451843D01*
Y0451770D01*
X0379333D01*
Y0451698D01*
X0379260D01*
Y0451625D01*
X0379188D01*
Y0451552D01*
Y0451480D01*
X0379115D01*
Y0451407D01*
X0379042D01*
Y0451334D01*
Y0451262D01*
X0378970D01*
Y0451189D01*
X0378897D01*
Y0451116D01*
Y0451043D01*
X0378824D01*
Y0450971D01*
X0378751D01*
Y0450898D01*
X0378824D01*
Y0450825D01*
X0378897D01*
Y0450753D01*
Y0450680D01*
X0378970D01*
Y0450607D01*
X0379042D01*
Y0450534D01*
Y0450462D01*
X0379115D01*
Y0450389D01*
X0379188D01*
Y0450316D01*
X0379260D01*
Y0450244D01*
Y0450171D01*
X0379333D01*
Y0450098D01*
X0379406D01*
Y0450026D01*
Y0449953D01*
X0379479D01*
Y0449880D01*
X0379551D01*
Y0449808D01*
Y0449735D01*
X0379624D01*
Y0449662D01*
X0379696D01*
Y0449589D01*
X0379769D01*
Y0449517D01*
Y0449444D01*
X0379842D01*
Y0449371D01*
X0379915D01*
Y0449299D01*
Y0449226D01*
X0379987D01*
Y0449153D01*
X0380060D01*
Y0449081D01*
X0380133D01*
Y0449008D01*
Y0448935D01*
X0380205D01*
Y0448862D01*
X0380278D01*
Y0448790D01*
Y0448717D01*
X0380351D01*
Y0448644D01*
X0380423D01*
Y0448572D01*
X0380496D01*
Y0448499D01*
X0380569D01*
Y0448426D01*
X0380642D01*
Y0448353D01*
X0380714D01*
Y0448281D01*
X0380787D01*
Y0448353D01*
X0380932D01*
Y0448426D01*
Y0448499D01*
X0381005D01*
Y0448572D01*
X0381078D01*
Y0448644D01*
Y0448717D01*
X0381151D01*
Y0448790D01*
X0381223D01*
Y0448862D01*
Y0448935D01*
Y0449008D01*
X0381296D01*
Y0449081D01*
Y0449153D01*
X0381369D01*
Y0449226D01*
Y0449299D01*
Y0449371D01*
X0381441D01*
Y0449444D01*
Y0449517D01*
X0381514D01*
Y0449589D01*
Y0449662D01*
Y0449735D01*
X0381587D01*
Y0449808D01*
Y0449880D01*
X0381660D01*
Y0449953D01*
Y0450026D01*
Y0450098D01*
X0381732D01*
Y0450171D01*
Y0450244D01*
Y0450316D01*
X0381805D01*
Y0450389D01*
Y0450462D01*
X0381878D01*
Y0450534D01*
Y0450607D01*
Y0450680D01*
X0381950D01*
Y0450753D01*
Y0450825D01*
X0382023D01*
Y0450898D01*
Y0450971D01*
Y0451043D01*
X0382096D01*
Y0451116D01*
Y0451189D01*
X0382168D01*
Y0451262D01*
Y0451334D01*
Y0451407D01*
X0382241D01*
Y0451480D01*
Y0451552D01*
X0382314D01*
Y0451625D01*
Y0451698D01*
Y0451770D01*
X0382386D01*
Y0451843D01*
Y0451916D01*
X0382459D01*
Y0451989D01*
Y0452061D01*
Y0452134D01*
X0382532D01*
Y0452207D01*
Y0452279D01*
Y0452352D01*
X0382605D01*
Y0452425D01*
Y0452497D01*
X0382677D01*
Y0452570D01*
Y0452643D01*
Y0452715D01*
X0382750D01*
Y0452788D01*
Y0452861D01*
X0382823D01*
Y0452934D01*
Y0453006D01*
Y0453079D01*
X0382895D01*
Y0453152D01*
Y0453224D01*
X0382968D01*
Y0453297D01*
Y0453370D01*
Y0453442D01*
X0383041D01*
Y0453515D01*
Y0453588D01*
X0384349D01*
Y0453515D01*
D02*
G37*
G36*
X0397435Y0455260D02*
Y0455187D01*
Y0455115D01*
X0397290D01*
Y0455042D01*
X0397072D01*
Y0454969D01*
X0396999D01*
Y0454896D01*
X0396926D01*
Y0454824D01*
X0396854D01*
Y0454751D01*
Y0454678D01*
Y0454606D01*
X0396781D01*
Y0454533D01*
Y0454460D01*
Y0454388D01*
Y0454315D01*
Y0454242D01*
Y0454170D01*
Y0454097D01*
Y0454024D01*
Y0453951D01*
Y0453879D01*
Y0453806D01*
Y0453733D01*
Y0453661D01*
Y0453588D01*
Y0453515D01*
Y0453442D01*
Y0453370D01*
Y0453297D01*
Y0453224D01*
Y0453152D01*
Y0453079D01*
Y0453006D01*
Y0452934D01*
Y0452861D01*
Y0452788D01*
Y0452715D01*
Y0452643D01*
Y0452570D01*
Y0452497D01*
Y0452425D01*
Y0452352D01*
Y0452279D01*
Y0452207D01*
Y0452134D01*
Y0452061D01*
Y0451989D01*
Y0451916D01*
Y0451843D01*
Y0451770D01*
Y0451698D01*
Y0451625D01*
Y0451552D01*
Y0451480D01*
Y0451407D01*
Y0451334D01*
Y0451262D01*
Y0451189D01*
Y0451116D01*
Y0451043D01*
Y0450971D01*
Y0450898D01*
Y0450825D01*
Y0450753D01*
Y0450680D01*
Y0450607D01*
Y0450534D01*
Y0450462D01*
Y0450389D01*
Y0450316D01*
Y0450244D01*
Y0450171D01*
Y0450098D01*
Y0450026D01*
Y0449953D01*
Y0449880D01*
Y0449808D01*
Y0449735D01*
Y0449662D01*
Y0449589D01*
Y0449517D01*
Y0449444D01*
Y0449371D01*
Y0449299D01*
Y0449226D01*
Y0449153D01*
Y0449081D01*
Y0449008D01*
Y0448935D01*
Y0448862D01*
Y0448790D01*
Y0448717D01*
Y0448644D01*
X0396854D01*
Y0448572D01*
Y0448499D01*
Y0448426D01*
X0396926D01*
Y0448353D01*
X0396999D01*
Y0448281D01*
X0397072D01*
Y0448208D01*
X0397217D01*
Y0448135D01*
X0397435D01*
Y0448063D01*
Y0447990D01*
Y0447917D01*
X0394891D01*
Y0447990D01*
Y0448063D01*
Y0448135D01*
X0395036D01*
Y0448208D01*
X0395254D01*
Y0448281D01*
X0395327D01*
Y0448353D01*
X0395400D01*
Y0448426D01*
Y0448499D01*
Y0448572D01*
X0395472D01*
Y0448644D01*
Y0448717D01*
Y0448790D01*
Y0448862D01*
Y0448935D01*
Y0449008D01*
Y0449081D01*
Y0449153D01*
Y0449226D01*
Y0449299D01*
Y0449371D01*
Y0449444D01*
Y0449517D01*
Y0449589D01*
Y0449662D01*
Y0449735D01*
Y0449808D01*
Y0449880D01*
Y0449953D01*
Y0450026D01*
Y0450098D01*
Y0450171D01*
Y0450244D01*
Y0450316D01*
Y0450389D01*
Y0450462D01*
Y0450534D01*
Y0450607D01*
Y0450680D01*
Y0450753D01*
Y0450825D01*
Y0450898D01*
Y0450971D01*
Y0451043D01*
Y0451116D01*
Y0451189D01*
Y0451262D01*
Y0451334D01*
Y0451407D01*
Y0451480D01*
Y0451552D01*
Y0451625D01*
Y0451698D01*
Y0451770D01*
Y0451843D01*
Y0451916D01*
Y0451989D01*
Y0452061D01*
Y0452134D01*
Y0452207D01*
Y0452279D01*
Y0452352D01*
Y0452425D01*
Y0452497D01*
Y0452570D01*
Y0452643D01*
Y0452715D01*
Y0452788D01*
Y0452861D01*
Y0452934D01*
Y0453006D01*
Y0453079D01*
Y0453152D01*
Y0453224D01*
Y0453297D01*
Y0453370D01*
Y0453442D01*
Y0453515D01*
Y0453588D01*
Y0453661D01*
Y0453733D01*
Y0453806D01*
Y0453879D01*
Y0453951D01*
Y0454024D01*
Y0454097D01*
Y0454170D01*
Y0454242D01*
Y0454315D01*
Y0454388D01*
Y0454460D01*
Y0454533D01*
Y0454606D01*
Y0454678D01*
X0395400D01*
Y0454751D01*
Y0454824D01*
X0395327D01*
Y0454896D01*
X0395254D01*
Y0454969D01*
X0395182D01*
Y0455042D01*
X0395036D01*
Y0455115D01*
X0394891D01*
Y0455187D01*
Y0455260D01*
Y0455333D01*
X0397435D01*
Y0455260D01*
D02*
G37*
G36*
X0355851D02*
X0355778D01*
Y0455187D01*
Y0455115D01*
Y0455042D01*
Y0454969D01*
Y0454896D01*
X0355705D01*
Y0454824D01*
Y0454751D01*
Y0454678D01*
Y0454606D01*
Y0454533D01*
X0355633D01*
Y0454460D01*
Y0454388D01*
Y0454315D01*
Y0454242D01*
Y0454170D01*
X0355560D01*
Y0454097D01*
Y0454024D01*
Y0453951D01*
Y0453879D01*
Y0453806D01*
X0355487D01*
Y0453733D01*
Y0453661D01*
Y0453588D01*
Y0453515D01*
Y0453442D01*
X0355415D01*
Y0453370D01*
Y0453297D01*
Y0453224D01*
Y0453152D01*
Y0453079D01*
X0355342D01*
Y0453006D01*
Y0452934D01*
Y0452861D01*
Y0452788D01*
Y0452715D01*
X0355269D01*
Y0452643D01*
Y0452570D01*
Y0452497D01*
Y0452425D01*
Y0452352D01*
Y0452279D01*
X0355197D01*
Y0452207D01*
Y0452134D01*
Y0452061D01*
Y0451989D01*
Y0451916D01*
X0355124D01*
Y0451843D01*
Y0451770D01*
Y0451698D01*
Y0451625D01*
Y0451552D01*
X0355051D01*
Y0451480D01*
Y0451407D01*
Y0451334D01*
Y0451262D01*
Y0451189D01*
X0354978D01*
Y0451116D01*
Y0451043D01*
Y0450971D01*
Y0450898D01*
Y0450825D01*
X0354906D01*
Y0450753D01*
Y0450680D01*
Y0450607D01*
Y0450534D01*
Y0450462D01*
X0354833D01*
Y0450389D01*
Y0450316D01*
Y0450244D01*
Y0450171D01*
Y0450098D01*
X0354760D01*
Y0450026D01*
Y0449953D01*
Y0449880D01*
Y0449808D01*
Y0449735D01*
X0354688D01*
Y0449662D01*
Y0449589D01*
X0353379D01*
Y0449662D01*
Y0449735D01*
Y0449808D01*
X0353452D01*
Y0449880D01*
Y0449953D01*
Y0450026D01*
Y0450098D01*
Y0450171D01*
X0353524D01*
Y0450244D01*
Y0450316D01*
Y0450389D01*
Y0450462D01*
Y0450534D01*
X0353597D01*
Y0450607D01*
Y0450680D01*
Y0450753D01*
Y0450825D01*
Y0450898D01*
Y0450971D01*
X0353670D01*
Y0451043D01*
Y0451116D01*
Y0451189D01*
Y0451262D01*
Y0451334D01*
X0353743D01*
Y0451407D01*
Y0451480D01*
Y0451552D01*
Y0451625D01*
Y0451698D01*
X0353815D01*
Y0451770D01*
Y0451843D01*
Y0451916D01*
Y0451989D01*
Y0452061D01*
X0353888D01*
Y0452134D01*
Y0452207D01*
Y0452279D01*
Y0452352D01*
Y0452425D01*
X0353961D01*
Y0452497D01*
Y0452570D01*
Y0452643D01*
Y0452715D01*
Y0452788D01*
X0354033D01*
Y0452861D01*
Y0452934D01*
Y0453006D01*
Y0453079D01*
Y0453152D01*
X0354106D01*
Y0453224D01*
Y0453297D01*
Y0453370D01*
Y0453442D01*
Y0453515D01*
X0354179D01*
Y0453588D01*
Y0453661D01*
Y0453733D01*
Y0453806D01*
Y0453879D01*
X0354252D01*
Y0453951D01*
Y0454024D01*
Y0454097D01*
Y0454170D01*
Y0454242D01*
X0354324D01*
Y0454315D01*
Y0454388D01*
Y0454460D01*
Y0454533D01*
Y0454606D01*
X0354397D01*
Y0454678D01*
Y0454751D01*
Y0454824D01*
Y0454896D01*
Y0454969D01*
X0354470D01*
Y0455042D01*
Y0455115D01*
Y0455187D01*
Y0455260D01*
Y0455333D01*
X0355851D01*
Y0455260D01*
D02*
G37*
G36*
X0425570Y0453515D02*
Y0453442D01*
Y0453370D01*
X0425425D01*
Y0453297D01*
X0425279D01*
Y0453224D01*
X0425207D01*
Y0453152D01*
X0425134D01*
Y0453079D01*
Y0453006D01*
Y0452934D01*
X0425061D01*
Y0452861D01*
Y0452788D01*
Y0452715D01*
Y0452643D01*
Y0452570D01*
Y0452497D01*
Y0452425D01*
Y0452352D01*
Y0452279D01*
Y0452207D01*
Y0452134D01*
Y0452061D01*
Y0451989D01*
Y0451916D01*
Y0451843D01*
Y0451770D01*
Y0451698D01*
Y0451625D01*
Y0451552D01*
Y0451480D01*
Y0451407D01*
Y0451334D01*
Y0451262D01*
Y0451189D01*
Y0451116D01*
Y0451043D01*
Y0450971D01*
Y0450898D01*
Y0450825D01*
Y0450753D01*
Y0450680D01*
Y0450607D01*
Y0450534D01*
Y0450462D01*
Y0450389D01*
Y0450316D01*
Y0450244D01*
Y0450171D01*
Y0450098D01*
Y0450026D01*
Y0449953D01*
Y0449880D01*
Y0449808D01*
Y0449735D01*
Y0449662D01*
Y0449589D01*
Y0449517D01*
Y0449444D01*
Y0449371D01*
Y0449299D01*
X0424989D01*
Y0449226D01*
Y0449153D01*
Y0449081D01*
Y0449008D01*
X0424916D01*
Y0448935D01*
Y0448862D01*
X0424843D01*
Y0448790D01*
Y0448717D01*
X0424771D01*
Y0448644D01*
Y0448572D01*
X0424698D01*
Y0448499D01*
X0424625D01*
Y0448426D01*
X0424552D01*
Y0448353D01*
X0424480D01*
Y0448281D01*
X0424407D01*
Y0448208D01*
X0424334D01*
Y0448135D01*
X0424189D01*
Y0448063D01*
X0424044D01*
Y0447990D01*
X0423826D01*
Y0447917D01*
X0423535D01*
Y0447845D01*
X0421863D01*
Y0447917D01*
X0421572D01*
Y0447990D01*
X0421354D01*
Y0448063D01*
X0421136D01*
Y0448135D01*
X0421063D01*
Y0448208D01*
X0420918D01*
Y0448281D01*
X0420772D01*
Y0448353D01*
X0420699D01*
Y0448426D01*
X0420627D01*
Y0448499D01*
X0420554D01*
Y0448572D01*
X0420481D01*
Y0448644D01*
Y0448717D01*
X0420409D01*
Y0448790D01*
X0420336D01*
Y0448862D01*
Y0448935D01*
X0420263D01*
Y0449008D01*
Y0449081D01*
Y0449153D01*
X0420190D01*
Y0449226D01*
Y0449299D01*
Y0449371D01*
Y0449444D01*
Y0449517D01*
Y0449589D01*
X0420118D01*
Y0449662D01*
Y0449735D01*
Y0449808D01*
Y0449880D01*
Y0449953D01*
Y0450026D01*
Y0450098D01*
Y0450171D01*
Y0450244D01*
Y0450316D01*
Y0450389D01*
Y0450462D01*
Y0450534D01*
Y0450607D01*
Y0450680D01*
Y0450753D01*
Y0450825D01*
Y0450898D01*
Y0450971D01*
Y0451043D01*
Y0451116D01*
Y0451189D01*
Y0451262D01*
Y0451334D01*
Y0451407D01*
Y0451480D01*
Y0451552D01*
Y0451625D01*
Y0451698D01*
Y0451770D01*
Y0451843D01*
Y0451916D01*
Y0451989D01*
Y0452061D01*
Y0452134D01*
Y0452207D01*
Y0452279D01*
Y0452352D01*
Y0452425D01*
Y0452497D01*
Y0452570D01*
Y0452643D01*
Y0452715D01*
Y0452788D01*
Y0452861D01*
Y0452934D01*
Y0453006D01*
X0420045D01*
Y0453079D01*
Y0453152D01*
X0419972D01*
Y0453224D01*
X0419900D01*
Y0453297D01*
X0419754D01*
Y0453370D01*
X0419609D01*
Y0453442D01*
Y0453515D01*
Y0453588D01*
X0421935D01*
Y0453515D01*
Y0453442D01*
Y0453370D01*
X0421790D01*
Y0453297D01*
X0421572D01*
Y0453224D01*
X0421499D01*
Y0453152D01*
X0421426D01*
Y0453079D01*
Y0453006D01*
Y0452934D01*
X0421354D01*
Y0452861D01*
Y0452788D01*
Y0452715D01*
Y0452643D01*
Y0452570D01*
Y0452497D01*
Y0452425D01*
Y0452352D01*
Y0452279D01*
Y0452207D01*
Y0452134D01*
Y0452061D01*
Y0451989D01*
Y0451916D01*
Y0451843D01*
Y0451770D01*
Y0451698D01*
Y0451625D01*
Y0451552D01*
Y0451480D01*
Y0451407D01*
Y0451334D01*
Y0451262D01*
Y0451189D01*
Y0451116D01*
Y0451043D01*
Y0450971D01*
Y0450898D01*
Y0450825D01*
Y0450753D01*
Y0450680D01*
Y0450607D01*
Y0450534D01*
Y0450462D01*
Y0450389D01*
Y0450316D01*
Y0450244D01*
Y0450171D01*
Y0450098D01*
Y0450026D01*
Y0449953D01*
Y0449880D01*
Y0449808D01*
Y0449735D01*
Y0449662D01*
Y0449589D01*
Y0449517D01*
Y0449444D01*
X0421426D01*
Y0449371D01*
Y0449299D01*
Y0449226D01*
X0421499D01*
Y0449153D01*
Y0449081D01*
X0421572D01*
Y0449008D01*
Y0448935D01*
X0421644D01*
Y0448862D01*
X0421717D01*
Y0448790D01*
X0421790D01*
Y0448717D01*
X0421935D01*
Y0448644D01*
X0422153D01*
Y0448572D01*
X0422517D01*
Y0448499D01*
X0423171D01*
Y0448572D01*
X0423535D01*
Y0448644D01*
X0423753D01*
Y0448717D01*
X0423826D01*
Y0448790D01*
X0423898D01*
Y0448862D01*
X0423971D01*
Y0448935D01*
X0424044D01*
Y0449008D01*
X0424116D01*
Y0449081D01*
Y0449153D01*
X0424189D01*
Y0449226D01*
Y0449299D01*
Y0449371D01*
Y0449444D01*
X0424262D01*
Y0449517D01*
Y0449589D01*
Y0449662D01*
Y0449735D01*
Y0449808D01*
Y0449880D01*
Y0449953D01*
Y0450026D01*
Y0450098D01*
Y0450171D01*
Y0450244D01*
Y0450316D01*
Y0450389D01*
Y0450462D01*
Y0450534D01*
Y0450607D01*
Y0450680D01*
Y0450753D01*
Y0450825D01*
Y0450898D01*
Y0450971D01*
Y0451043D01*
Y0451116D01*
Y0451189D01*
Y0451262D01*
Y0451334D01*
Y0451407D01*
Y0451480D01*
Y0451552D01*
Y0451625D01*
Y0451698D01*
Y0451770D01*
Y0451843D01*
Y0451916D01*
Y0451989D01*
Y0452061D01*
Y0452134D01*
Y0452207D01*
Y0452279D01*
Y0452352D01*
Y0452425D01*
Y0452497D01*
Y0452570D01*
Y0452643D01*
Y0452715D01*
Y0452788D01*
Y0452861D01*
Y0452934D01*
X0424189D01*
Y0453006D01*
Y0453079D01*
X0424116D01*
Y0453152D01*
X0424044D01*
Y0453224D01*
X0423971D01*
Y0453297D01*
X0423826D01*
Y0453370D01*
X0423680D01*
Y0453442D01*
Y0453515D01*
Y0453588D01*
X0425570D01*
Y0453515D01*
D02*
G37*
G36*
X0438002D02*
X0438075D01*
Y0453442D01*
Y0453370D01*
Y0453297D01*
X0438147D01*
Y0453224D01*
Y0453152D01*
Y0453079D01*
X0438220D01*
Y0453006D01*
Y0452934D01*
X0438293D01*
Y0452861D01*
Y0452788D01*
Y0452715D01*
X0438365D01*
Y0452643D01*
Y0452570D01*
Y0452497D01*
X0438438D01*
Y0452425D01*
Y0452352D01*
Y0452279D01*
X0438365D01*
Y0452207D01*
X0438293D01*
Y0452279D01*
X0438220D01*
Y0452352D01*
X0438147D01*
Y0452425D01*
X0438002D01*
Y0452497D01*
X0437929D01*
Y0452570D01*
X0437856D01*
Y0452643D01*
X0437711D01*
Y0452715D01*
X0437566D01*
Y0452788D01*
X0437420D01*
Y0452861D01*
X0435457D01*
Y0452788D01*
X0435385D01*
Y0452715D01*
Y0452643D01*
Y0452570D01*
Y0452497D01*
Y0452425D01*
Y0452352D01*
Y0452279D01*
Y0452207D01*
Y0452134D01*
Y0452061D01*
Y0451989D01*
Y0451916D01*
Y0451843D01*
Y0451770D01*
Y0451698D01*
Y0451625D01*
Y0451552D01*
Y0451480D01*
Y0451407D01*
Y0451334D01*
Y0451262D01*
Y0451189D01*
X0437130D01*
Y0451262D01*
X0437275D01*
Y0451334D01*
X0437420D01*
Y0451407D01*
Y0451480D01*
X0437493D01*
Y0451552D01*
Y0451625D01*
X0437566D01*
Y0451698D01*
X0437784D01*
Y0451625D01*
Y0451552D01*
Y0451480D01*
Y0451407D01*
Y0451334D01*
Y0451262D01*
Y0451189D01*
Y0451116D01*
Y0451043D01*
Y0450971D01*
Y0450898D01*
Y0450825D01*
Y0450753D01*
Y0450680D01*
Y0450607D01*
Y0450534D01*
Y0450462D01*
Y0450389D01*
Y0450316D01*
Y0450244D01*
Y0450171D01*
Y0450098D01*
X0437493D01*
Y0450171D01*
Y0450244D01*
Y0450316D01*
X0437420D01*
Y0450389D01*
X0437348D01*
Y0450462D01*
X0437202D01*
Y0450534D01*
X0435385D01*
Y0450462D01*
Y0450389D01*
Y0450316D01*
Y0450244D01*
Y0450171D01*
Y0450098D01*
Y0450026D01*
Y0449953D01*
Y0449880D01*
Y0449808D01*
Y0449735D01*
Y0449662D01*
Y0449589D01*
Y0449517D01*
Y0449444D01*
Y0449371D01*
Y0449299D01*
Y0449226D01*
Y0449153D01*
Y0449081D01*
Y0449008D01*
Y0448935D01*
Y0448862D01*
Y0448790D01*
Y0448717D01*
Y0448644D01*
X0435530D01*
Y0448572D01*
X0437348D01*
Y0448644D01*
X0437711D01*
Y0448717D01*
X0437929D01*
Y0448790D01*
X0438002D01*
Y0448862D01*
X0438147D01*
Y0448935D01*
X0438220D01*
Y0449008D01*
X0438293D01*
Y0449081D01*
X0438365D01*
Y0449153D01*
X0438438D01*
Y0449226D01*
X0438511D01*
Y0449299D01*
X0438729D01*
Y0449226D01*
Y0449153D01*
Y0449081D01*
X0438656D01*
Y0449008D01*
Y0448935D01*
X0438584D01*
Y0448862D01*
Y0448790D01*
Y0448717D01*
X0438511D01*
Y0448644D01*
Y0448572D01*
X0438438D01*
Y0448499D01*
Y0448426D01*
Y0448353D01*
X0438365D01*
Y0448281D01*
Y0448208D01*
X0438293D01*
Y0448135D01*
Y0448063D01*
Y0447990D01*
X0438220D01*
Y0447917D01*
X0433567D01*
Y0447990D01*
Y0448063D01*
Y0448135D01*
X0433785D01*
Y0448208D01*
X0433931D01*
Y0448281D01*
X0434003D01*
Y0448353D01*
X0434076D01*
Y0448426D01*
Y0448499D01*
Y0448572D01*
X0434149D01*
Y0448644D01*
Y0448717D01*
Y0448790D01*
Y0448862D01*
Y0448935D01*
Y0449008D01*
Y0449081D01*
Y0449153D01*
Y0449226D01*
Y0449299D01*
Y0449371D01*
Y0449444D01*
Y0449517D01*
Y0449589D01*
Y0449662D01*
Y0449735D01*
Y0449808D01*
Y0449880D01*
Y0449953D01*
Y0450026D01*
Y0450098D01*
Y0450171D01*
Y0450244D01*
Y0450316D01*
Y0450389D01*
Y0450462D01*
Y0450534D01*
Y0450607D01*
Y0450680D01*
Y0450753D01*
Y0450825D01*
Y0450898D01*
Y0450971D01*
Y0451043D01*
Y0451116D01*
Y0451189D01*
Y0451262D01*
Y0451334D01*
Y0451407D01*
Y0451480D01*
Y0451552D01*
Y0451625D01*
Y0451698D01*
Y0451770D01*
Y0451843D01*
Y0451916D01*
Y0451989D01*
Y0452061D01*
Y0452134D01*
Y0452207D01*
Y0452279D01*
Y0452352D01*
Y0452425D01*
Y0452497D01*
Y0452570D01*
Y0452643D01*
Y0452715D01*
Y0452788D01*
Y0452861D01*
Y0452934D01*
X0434076D01*
Y0453006D01*
Y0453079D01*
X0434003D01*
Y0453152D01*
Y0453224D01*
X0433858D01*
Y0453297D01*
X0433713D01*
Y0453370D01*
X0433567D01*
Y0453442D01*
Y0453515D01*
Y0453588D01*
X0438002D01*
Y0453515D01*
D02*
G37*
G36*
X0374535D02*
Y0453442D01*
Y0453370D01*
X0374607D01*
Y0453297D01*
Y0453224D01*
Y0453152D01*
X0374680D01*
Y0453079D01*
Y0453006D01*
X0374753D01*
Y0452934D01*
Y0452861D01*
Y0452788D01*
X0374826D01*
Y0452715D01*
Y0452643D01*
Y0452570D01*
X0374898D01*
Y0452497D01*
Y0452425D01*
Y0452352D01*
X0374971D01*
Y0452279D01*
X0374898D01*
Y0452207D01*
X0374753D01*
Y0452279D01*
X0374680D01*
Y0452352D01*
X0374607D01*
Y0452425D01*
X0374535D01*
Y0452497D01*
X0374462D01*
Y0452570D01*
X0374317D01*
Y0452643D01*
X0374244D01*
Y0452715D01*
X0374099D01*
Y0452788D01*
X0373881D01*
Y0452861D01*
X0371990D01*
Y0452788D01*
X0371918D01*
Y0452715D01*
X0371845D01*
Y0452643D01*
Y0452570D01*
Y0452497D01*
Y0452425D01*
Y0452352D01*
Y0452279D01*
Y0452207D01*
Y0452134D01*
Y0452061D01*
Y0451989D01*
Y0451916D01*
Y0451843D01*
Y0451770D01*
Y0451698D01*
Y0451625D01*
Y0451552D01*
Y0451480D01*
Y0451407D01*
Y0451334D01*
Y0451262D01*
Y0451189D01*
X0373590D01*
Y0451262D01*
X0373808D01*
Y0451334D01*
X0373881D01*
Y0451407D01*
X0373953D01*
Y0451480D01*
Y0451552D01*
Y0451625D01*
X0374026D01*
Y0451698D01*
X0374244D01*
Y0451625D01*
Y0451552D01*
Y0451480D01*
Y0451407D01*
Y0451334D01*
Y0451262D01*
Y0451189D01*
Y0451116D01*
Y0451043D01*
Y0450971D01*
Y0450898D01*
Y0450825D01*
Y0450753D01*
Y0450680D01*
Y0450607D01*
Y0450534D01*
Y0450462D01*
Y0450389D01*
Y0450316D01*
Y0450244D01*
Y0450171D01*
Y0450098D01*
X0374026D01*
Y0450171D01*
X0373953D01*
Y0450244D01*
Y0450316D01*
X0373881D01*
Y0450389D01*
X0373808D01*
Y0450462D01*
X0373662D01*
Y0450534D01*
X0371845D01*
Y0450462D01*
Y0450389D01*
Y0450316D01*
Y0450244D01*
Y0450171D01*
Y0450098D01*
Y0450026D01*
Y0449953D01*
Y0449880D01*
Y0449808D01*
Y0449735D01*
Y0449662D01*
Y0449589D01*
Y0449517D01*
Y0449444D01*
Y0449371D01*
Y0449299D01*
Y0449226D01*
Y0449153D01*
Y0449081D01*
Y0449008D01*
Y0448935D01*
Y0448862D01*
Y0448790D01*
Y0448717D01*
X0371918D01*
Y0448644D01*
X0371990D01*
Y0448572D01*
X0373881D01*
Y0448644D01*
X0374171D01*
Y0448717D01*
X0374389D01*
Y0448790D01*
X0374535D01*
Y0448862D01*
X0374607D01*
Y0448935D01*
X0374753D01*
Y0449008D01*
X0374826D01*
Y0449081D01*
X0374898D01*
Y0449153D01*
X0374971D01*
Y0449226D01*
X0375044D01*
Y0449299D01*
X0375189D01*
Y0449226D01*
Y0449153D01*
Y0449081D01*
Y0449008D01*
X0375116D01*
Y0448935D01*
Y0448862D01*
X0375044D01*
Y0448790D01*
Y0448717D01*
Y0448644D01*
X0374971D01*
Y0448572D01*
Y0448499D01*
X0374898D01*
Y0448426D01*
Y0448353D01*
Y0448281D01*
X0374826D01*
Y0448208D01*
Y0448135D01*
X0374753D01*
Y0448063D01*
Y0447990D01*
Y0447917D01*
X0370100D01*
Y0447990D01*
Y0448063D01*
Y0448135D01*
X0370318D01*
Y0448208D01*
X0370391D01*
Y0448281D01*
X0370464D01*
Y0448353D01*
X0370536D01*
Y0448426D01*
Y0448499D01*
X0370609D01*
Y0448572D01*
Y0448644D01*
Y0448717D01*
Y0448790D01*
Y0448862D01*
Y0448935D01*
Y0449008D01*
Y0449081D01*
Y0449153D01*
Y0449226D01*
Y0449299D01*
Y0449371D01*
Y0449444D01*
Y0449517D01*
Y0449589D01*
Y0449662D01*
Y0449735D01*
Y0449808D01*
Y0449880D01*
Y0449953D01*
Y0450026D01*
Y0450098D01*
Y0450171D01*
Y0450244D01*
Y0450316D01*
Y0450389D01*
Y0450462D01*
Y0450534D01*
Y0450607D01*
Y0450680D01*
Y0450753D01*
Y0450825D01*
Y0450898D01*
Y0450971D01*
Y0451043D01*
Y0451116D01*
Y0451189D01*
Y0451262D01*
Y0451334D01*
Y0451407D01*
Y0451480D01*
Y0451552D01*
Y0451625D01*
Y0451698D01*
Y0451770D01*
Y0451843D01*
Y0451916D01*
Y0451989D01*
Y0452061D01*
Y0452134D01*
Y0452207D01*
Y0452279D01*
Y0452352D01*
Y0452425D01*
Y0452497D01*
Y0452570D01*
Y0452643D01*
Y0452715D01*
Y0452788D01*
Y0452861D01*
Y0452934D01*
Y0453006D01*
X0370536D01*
Y0453079D01*
Y0453152D01*
X0370464D01*
Y0453224D01*
X0370391D01*
Y0453297D01*
X0370173D01*
Y0453370D01*
X0370100D01*
Y0453442D01*
Y0453515D01*
Y0453588D01*
X0374535D01*
Y0453515D01*
D02*
G37*
G36*
X0356142Y0457078D02*
Y0457005D01*
Y0456932D01*
Y0456859D01*
Y0456787D01*
X0356069D01*
Y0456714D01*
Y0456641D01*
Y0456569D01*
Y0456496D01*
Y0456423D01*
Y0456351D01*
X0355996D01*
Y0456278D01*
Y0456205D01*
Y0456132D01*
Y0456060D01*
Y0455987D01*
X0355924D01*
Y0455914D01*
Y0455842D01*
X0354615D01*
Y0455914D01*
Y0455987D01*
Y0456060D01*
Y0456132D01*
X0354688D01*
Y0456205D01*
Y0456278D01*
Y0456351D01*
Y0456423D01*
Y0456496D01*
X0354760D01*
Y0456569D01*
Y0456641D01*
Y0456714D01*
Y0456787D01*
Y0456859D01*
X0354833D01*
Y0456932D01*
Y0457005D01*
Y0457078D01*
Y0457150D01*
X0356142D01*
Y0457078D01*
D02*
G37*
G36*
X0370973Y0455260D02*
Y0455187D01*
Y0455115D01*
X0371045D01*
Y0455042D01*
Y0454969D01*
Y0454896D01*
X0371118D01*
Y0454824D01*
Y0454751D01*
Y0454678D01*
X0371191D01*
Y0454606D01*
Y0454533D01*
Y0454460D01*
X0371263D01*
Y0454388D01*
Y0454315D01*
Y0454242D01*
X0371336D01*
Y0454170D01*
Y0454097D01*
Y0454024D01*
X0371409D01*
Y0453951D01*
X0371336D01*
Y0453879D01*
X0371191D01*
Y0453951D01*
Y0454024D01*
X0371118D01*
Y0454097D01*
X0371045D01*
Y0454170D01*
X0370973D01*
Y0454242D01*
X0370827D01*
Y0454315D01*
X0370682D01*
Y0454388D01*
X0370536D01*
Y0454460D01*
X0370173D01*
Y0454533D01*
X0368792D01*
Y0454460D01*
X0368719D01*
Y0454388D01*
X0368646D01*
Y0454315D01*
Y0454242D01*
Y0454170D01*
X0368573D01*
Y0454097D01*
Y0454024D01*
Y0453951D01*
Y0453879D01*
Y0453806D01*
Y0453733D01*
Y0453661D01*
Y0453588D01*
Y0453515D01*
Y0453442D01*
Y0453370D01*
Y0453297D01*
Y0453224D01*
Y0453152D01*
Y0453079D01*
Y0453006D01*
Y0452934D01*
Y0452861D01*
Y0452788D01*
Y0452715D01*
Y0452643D01*
Y0452570D01*
Y0452497D01*
Y0452425D01*
Y0452352D01*
Y0452279D01*
Y0452207D01*
Y0452134D01*
Y0452061D01*
Y0451989D01*
Y0451916D01*
Y0451843D01*
Y0451770D01*
Y0451698D01*
Y0451625D01*
Y0451552D01*
Y0451480D01*
Y0451407D01*
Y0451334D01*
Y0451262D01*
Y0451189D01*
Y0451116D01*
Y0451043D01*
Y0450971D01*
Y0450898D01*
Y0450825D01*
Y0450753D01*
Y0450680D01*
Y0450607D01*
Y0450534D01*
Y0450462D01*
Y0450389D01*
Y0450316D01*
Y0450244D01*
Y0450171D01*
Y0450098D01*
Y0450026D01*
Y0449953D01*
Y0449880D01*
Y0449808D01*
Y0449735D01*
Y0449662D01*
Y0449589D01*
Y0449517D01*
Y0449444D01*
Y0449371D01*
Y0449299D01*
Y0449226D01*
Y0449153D01*
Y0449081D01*
Y0449008D01*
Y0448935D01*
Y0448862D01*
Y0448790D01*
X0368646D01*
Y0448717D01*
Y0448644D01*
Y0448572D01*
Y0448499D01*
Y0448426D01*
X0368719D01*
Y0448353D01*
X0368792D01*
Y0448281D01*
X0368864D01*
Y0448208D01*
X0369010D01*
Y0448135D01*
X0369155D01*
Y0448063D01*
Y0447990D01*
Y0447917D01*
X0366756D01*
Y0447990D01*
Y0448063D01*
Y0448135D01*
X0366901D01*
Y0448208D01*
X0367047D01*
Y0448281D01*
X0367120D01*
Y0448353D01*
X0367192D01*
Y0448426D01*
Y0448499D01*
X0367265D01*
Y0448572D01*
Y0448644D01*
Y0448717D01*
Y0448790D01*
Y0448862D01*
Y0448935D01*
Y0449008D01*
Y0449081D01*
Y0449153D01*
Y0449226D01*
Y0449299D01*
Y0449371D01*
Y0449444D01*
Y0449517D01*
Y0449589D01*
Y0449662D01*
Y0449735D01*
Y0449808D01*
Y0449880D01*
Y0449953D01*
Y0450026D01*
Y0450098D01*
Y0450171D01*
Y0450244D01*
Y0450316D01*
Y0450389D01*
Y0450462D01*
Y0450534D01*
Y0450607D01*
Y0450680D01*
Y0450753D01*
Y0450825D01*
Y0450898D01*
Y0450971D01*
Y0451043D01*
Y0451116D01*
Y0451189D01*
Y0451262D01*
Y0451334D01*
Y0451407D01*
Y0451480D01*
Y0451552D01*
Y0451625D01*
Y0451698D01*
Y0451770D01*
Y0451843D01*
Y0451916D01*
Y0451989D01*
Y0452061D01*
Y0452134D01*
Y0452207D01*
Y0452279D01*
Y0452352D01*
Y0452425D01*
Y0452497D01*
Y0452570D01*
Y0452643D01*
Y0452715D01*
Y0452788D01*
Y0452861D01*
Y0452934D01*
Y0453006D01*
Y0453079D01*
Y0453152D01*
Y0453224D01*
Y0453297D01*
Y0453370D01*
Y0453442D01*
Y0453515D01*
Y0453588D01*
Y0453661D01*
Y0453733D01*
Y0453806D01*
Y0453879D01*
Y0453951D01*
Y0454024D01*
Y0454097D01*
Y0454170D01*
Y0454242D01*
Y0454315D01*
Y0454388D01*
X0367192D01*
Y0454460D01*
X0367120D01*
Y0454533D01*
X0365738D01*
Y0454460D01*
X0365375D01*
Y0454388D01*
X0365229D01*
Y0454315D01*
X0365084D01*
Y0454242D01*
X0364938D01*
Y0454170D01*
X0364866D01*
Y0454097D01*
X0364793D01*
Y0454024D01*
X0364720D01*
Y0453951D01*
X0364648D01*
Y0453879D01*
X0364575D01*
Y0453951D01*
X0364502D01*
Y0454024D01*
Y0454097D01*
X0364575D01*
Y0454170D01*
Y0454242D01*
Y0454315D01*
X0364648D01*
Y0454388D01*
Y0454460D01*
Y0454533D01*
X0364720D01*
Y0454606D01*
Y0454678D01*
Y0454751D01*
X0364793D01*
Y0454824D01*
Y0454896D01*
Y0454969D01*
X0364866D01*
Y0455042D01*
Y0455115D01*
Y0455187D01*
X0364938D01*
Y0455260D01*
Y0455333D01*
X0370973D01*
Y0455260D01*
D02*
G37*
G36*
X0449707Y0453515D02*
Y0453442D01*
X0449779D01*
Y0453370D01*
Y0453297D01*
Y0453224D01*
Y0453152D01*
X0449852D01*
Y0453079D01*
Y0453006D01*
Y0452934D01*
X0449925D01*
Y0452861D01*
Y0452788D01*
Y0452715D01*
X0449998D01*
Y0452643D01*
Y0452570D01*
Y0452497D01*
X0450070D01*
Y0452425D01*
Y0452352D01*
Y0452279D01*
Y0452207D01*
X0450143D01*
Y0452134D01*
Y0452061D01*
X0449925D01*
Y0452134D01*
X0449852D01*
Y0452207D01*
X0449779D01*
Y0452279D01*
X0449707D01*
Y0452352D01*
Y0452425D01*
X0449634D01*
Y0452497D01*
X0449561D01*
Y0452570D01*
X0449489D01*
Y0452643D01*
X0449343D01*
Y0452715D01*
X0449270D01*
Y0452788D01*
X0449052D01*
Y0452861D01*
X0448107D01*
Y0452788D01*
X0448035D01*
Y0452715D01*
Y0452643D01*
Y0452570D01*
Y0452497D01*
Y0452425D01*
Y0452352D01*
Y0452279D01*
Y0452207D01*
Y0452134D01*
Y0452061D01*
Y0451989D01*
Y0451916D01*
Y0451843D01*
Y0451770D01*
Y0451698D01*
Y0451625D01*
Y0451552D01*
Y0451480D01*
Y0451407D01*
Y0451334D01*
Y0451262D01*
Y0451189D01*
Y0451116D01*
Y0451043D01*
Y0450971D01*
Y0450898D01*
Y0450825D01*
Y0450753D01*
Y0450680D01*
Y0450607D01*
Y0450534D01*
Y0450462D01*
Y0450389D01*
Y0450316D01*
Y0450244D01*
Y0450171D01*
Y0450098D01*
Y0450026D01*
Y0449953D01*
Y0449880D01*
Y0449808D01*
Y0449735D01*
Y0449662D01*
Y0449589D01*
Y0449517D01*
Y0449444D01*
Y0449371D01*
Y0449299D01*
Y0449226D01*
Y0449153D01*
Y0449081D01*
Y0449008D01*
Y0448935D01*
Y0448862D01*
Y0448790D01*
Y0448717D01*
Y0448644D01*
Y0448572D01*
Y0448499D01*
Y0448426D01*
X0448107D01*
Y0448353D01*
Y0448281D01*
X0448253D01*
Y0448208D01*
X0448398D01*
Y0448135D01*
X0448616D01*
Y0448063D01*
Y0447990D01*
Y0447917D01*
X0446217D01*
Y0447990D01*
Y0448063D01*
Y0448135D01*
X0446435D01*
Y0448208D01*
X0446581D01*
Y0448281D01*
X0446653D01*
Y0448353D01*
X0446726D01*
Y0448426D01*
Y0448499D01*
X0446799D01*
Y0448572D01*
Y0448644D01*
Y0448717D01*
Y0448790D01*
Y0448862D01*
Y0448935D01*
Y0449008D01*
Y0449081D01*
Y0449153D01*
Y0449226D01*
Y0449299D01*
Y0449371D01*
Y0449444D01*
Y0449517D01*
Y0449589D01*
Y0449662D01*
Y0449735D01*
Y0449808D01*
Y0449880D01*
Y0449953D01*
Y0450026D01*
Y0450098D01*
Y0450171D01*
Y0450244D01*
Y0450316D01*
Y0450389D01*
Y0450462D01*
Y0450534D01*
Y0450607D01*
Y0450680D01*
Y0450753D01*
Y0450825D01*
Y0450898D01*
Y0450971D01*
Y0451043D01*
Y0451116D01*
Y0451189D01*
Y0451262D01*
Y0451334D01*
Y0451407D01*
Y0451480D01*
Y0451552D01*
Y0451625D01*
Y0451698D01*
Y0451770D01*
Y0451843D01*
Y0451916D01*
Y0451989D01*
Y0452061D01*
Y0452134D01*
Y0452207D01*
Y0452279D01*
Y0452352D01*
Y0452425D01*
Y0452497D01*
Y0452570D01*
Y0452643D01*
Y0452715D01*
Y0452788D01*
X0446726D01*
Y0452861D01*
X0445781D01*
Y0452788D01*
X0445563D01*
Y0452715D01*
X0445490D01*
Y0452643D01*
X0445417D01*
Y0452570D01*
X0445345D01*
Y0452497D01*
X0445272D01*
Y0452425D01*
X0445199D01*
Y0452352D01*
X0445127D01*
Y0452279D01*
X0445054D01*
Y0452207D01*
X0444981D01*
Y0452134D01*
Y0452061D01*
X0444908D01*
Y0451989D01*
X0444836D01*
Y0452061D01*
X0444763D01*
Y0452134D01*
Y0452207D01*
Y0452279D01*
Y0452352D01*
X0444836D01*
Y0452425D01*
Y0452497D01*
Y0452570D01*
Y0452643D01*
X0444908D01*
Y0452715D01*
Y0452788D01*
Y0452861D01*
X0444981D01*
Y0452934D01*
Y0453006D01*
Y0453079D01*
X0445054D01*
Y0453152D01*
Y0453224D01*
Y0453297D01*
X0445127D01*
Y0453370D01*
Y0453442D01*
Y0453515D01*
X0445199D01*
Y0453588D01*
X0449707D01*
Y0453515D01*
D02*
G37*
G36*
X0406523Y0453588D02*
X0406814D01*
Y0453515D01*
X0406959D01*
Y0453442D01*
X0407104D01*
Y0453370D01*
X0407395D01*
Y0453442D01*
X0407468D01*
Y0453515D01*
Y0453588D01*
X0407759D01*
Y0453515D01*
Y0453442D01*
Y0453370D01*
X0407831D01*
Y0453297D01*
Y0453224D01*
Y0453152D01*
Y0453079D01*
X0407904D01*
Y0453006D01*
Y0452934D01*
Y0452861D01*
X0407977D01*
Y0452788D01*
Y0452715D01*
Y0452643D01*
Y0452570D01*
X0408049D01*
Y0452497D01*
Y0452425D01*
Y0452352D01*
X0408122D01*
Y0452279D01*
Y0452207D01*
Y0452134D01*
Y0452061D01*
X0408049D01*
Y0451989D01*
X0407977D01*
Y0452061D01*
X0407904D01*
Y0452134D01*
X0407831D01*
Y0452207D01*
X0407759D01*
Y0452279D01*
X0407686D01*
Y0452352D01*
X0407613D01*
Y0452425D01*
X0407468D01*
Y0452497D01*
X0407395D01*
Y0452570D01*
X0407250D01*
Y0452643D01*
X0407104D01*
Y0452715D01*
X0406959D01*
Y0452788D01*
X0406741D01*
Y0452861D01*
X0406450D01*
Y0452934D01*
X0405723D01*
Y0452861D01*
X0405432D01*
Y0452788D01*
X0405287D01*
Y0452715D01*
X0405214D01*
Y0452643D01*
X0405142D01*
Y0452570D01*
X0405069D01*
Y0452497D01*
Y0452425D01*
Y0452352D01*
X0404996D01*
Y0452279D01*
Y0452207D01*
Y0452134D01*
X0405069D01*
Y0452061D01*
Y0451989D01*
Y0451916D01*
X0405142D01*
Y0451843D01*
X0405214D01*
Y0451770D01*
X0405360D01*
Y0451698D01*
X0405505D01*
Y0451625D01*
X0405723D01*
Y0451552D01*
X0406087D01*
Y0451480D01*
X0406377D01*
Y0451407D01*
X0406741D01*
Y0451334D01*
X0407032D01*
Y0451262D01*
X0407250D01*
Y0451189D01*
X0407468D01*
Y0451116D01*
X0407613D01*
Y0451043D01*
X0407759D01*
Y0450971D01*
X0407904D01*
Y0450898D01*
X0407977D01*
Y0450825D01*
X0408122D01*
Y0450753D01*
X0408195D01*
Y0450680D01*
Y0450607D01*
X0408268D01*
Y0450534D01*
X0408340D01*
Y0450462D01*
Y0450389D01*
X0408413D01*
Y0450316D01*
Y0450244D01*
X0408486D01*
Y0450171D01*
Y0450098D01*
Y0450026D01*
Y0449953D01*
Y0449880D01*
Y0449808D01*
X0408558D01*
Y0449735D01*
Y0449662D01*
Y0449589D01*
Y0449517D01*
Y0449444D01*
X0408486D01*
Y0449371D01*
Y0449299D01*
Y0449226D01*
Y0449153D01*
Y0449081D01*
Y0449008D01*
X0408413D01*
Y0448935D01*
Y0448862D01*
X0408340D01*
Y0448790D01*
Y0448717D01*
X0408268D01*
Y0448644D01*
X0408195D01*
Y0448572D01*
Y0448499D01*
X0408122D01*
Y0448426D01*
X0408049D01*
Y0448353D01*
X0407977D01*
Y0448281D01*
X0407831D01*
Y0448208D01*
X0407759D01*
Y0448135D01*
X0407613D01*
Y0448063D01*
X0407468D01*
Y0447990D01*
X0407250D01*
Y0447917D01*
X0407032D01*
Y0447845D01*
X0405505D01*
Y0447917D01*
X0405287D01*
Y0447990D01*
X0405069D01*
Y0448063D01*
X0404923D01*
Y0448135D01*
X0404633D01*
Y0448063D01*
Y0447990D01*
X0404560D01*
Y0447917D01*
X0404269D01*
Y0447990D01*
Y0448063D01*
Y0448135D01*
X0404197D01*
Y0448208D01*
Y0448281D01*
Y0448353D01*
Y0448426D01*
X0404124D01*
Y0448499D01*
Y0448572D01*
Y0448644D01*
X0404051D01*
Y0448717D01*
Y0448790D01*
Y0448862D01*
Y0448935D01*
X0403978D01*
Y0449008D01*
Y0449081D01*
Y0449153D01*
Y0449226D01*
X0403906D01*
Y0449299D01*
Y0449371D01*
Y0449444D01*
Y0449517D01*
X0403833D01*
Y0449589D01*
X0403906D01*
Y0449662D01*
X0404051D01*
Y0449589D01*
X0404124D01*
Y0449517D01*
X0404197D01*
Y0449444D01*
X0404269D01*
Y0449371D01*
X0404342D01*
Y0449299D01*
X0404415D01*
Y0449226D01*
X0404487D01*
Y0449153D01*
X0404633D01*
Y0449081D01*
X0404705D01*
Y0449008D01*
X0404778D01*
Y0448935D01*
X0404923D01*
Y0448862D01*
X0405069D01*
Y0448790D01*
X0405214D01*
Y0448717D01*
X0405360D01*
Y0448644D01*
X0405578D01*
Y0448572D01*
X0406087D01*
Y0448499D01*
X0406377D01*
Y0448572D01*
X0406814D01*
Y0448644D01*
X0406959D01*
Y0448717D01*
X0407104D01*
Y0448790D01*
X0407177D01*
Y0448862D01*
X0407250D01*
Y0448935D01*
X0407323D01*
Y0449008D01*
Y0449081D01*
X0407395D01*
Y0449153D01*
Y0449226D01*
Y0449299D01*
Y0449371D01*
Y0449444D01*
Y0449517D01*
Y0449589D01*
Y0449662D01*
X0407323D01*
Y0449735D01*
Y0449808D01*
X0407250D01*
Y0449880D01*
X0407177D01*
Y0449953D01*
X0407032D01*
Y0450026D01*
X0406886D01*
Y0450098D01*
X0406668D01*
Y0450171D01*
X0406377D01*
Y0450244D01*
X0406014D01*
Y0450316D01*
X0405723D01*
Y0450389D01*
X0405360D01*
Y0450462D01*
X0405142D01*
Y0450534D01*
X0404996D01*
Y0450607D01*
X0404778D01*
Y0450680D01*
X0404705D01*
Y0450753D01*
X0404560D01*
Y0450825D01*
X0404487D01*
Y0450898D01*
X0404415D01*
Y0450971D01*
X0404342D01*
Y0451043D01*
X0404269D01*
Y0451116D01*
X0404197D01*
Y0451189D01*
Y0451262D01*
X0404124D01*
Y0451334D01*
Y0451407D01*
X0404051D01*
Y0451480D01*
Y0451552D01*
Y0451625D01*
X0403978D01*
Y0451698D01*
Y0451770D01*
Y0451843D01*
Y0451916D01*
Y0451989D01*
Y0452061D01*
Y0452134D01*
Y0452207D01*
Y0452279D01*
X0404051D01*
Y0452352D01*
Y0452425D01*
Y0452497D01*
Y0452570D01*
X0404124D01*
Y0452643D01*
Y0452715D01*
X0404197D01*
Y0452788D01*
Y0452861D01*
X0404269D01*
Y0452934D01*
X0404342D01*
Y0453006D01*
Y0453079D01*
X0404415D01*
Y0453152D01*
X0404487D01*
Y0453224D01*
X0404633D01*
Y0453297D01*
X0404705D01*
Y0453370D01*
X0404851D01*
Y0453442D01*
X0404996D01*
Y0453515D01*
X0405214D01*
Y0453588D01*
X0405578D01*
Y0453661D01*
X0406523D01*
Y0453588D01*
D02*
G37*
G36*
X0389220D02*
X0389584D01*
Y0453515D01*
X0389729D01*
Y0453442D01*
X0389875D01*
Y0453370D01*
X0390020D01*
Y0453297D01*
X0390093D01*
Y0453370D01*
X0390165D01*
Y0453442D01*
Y0453515D01*
X0390238D01*
Y0453588D01*
X0390529D01*
Y0453515D01*
Y0453442D01*
Y0453370D01*
Y0453297D01*
X0390601D01*
Y0453224D01*
Y0453152D01*
Y0453079D01*
X0390674D01*
Y0453006D01*
Y0452934D01*
Y0452861D01*
Y0452788D01*
X0390747D01*
Y0452715D01*
Y0452643D01*
Y0452570D01*
X0390820D01*
Y0452497D01*
Y0452425D01*
Y0452352D01*
Y0452279D01*
X0390892D01*
Y0452207D01*
Y0452134D01*
Y0452061D01*
X0390820D01*
Y0451989D01*
X0390747D01*
Y0452061D01*
X0390674D01*
Y0452134D01*
X0390601D01*
Y0452207D01*
X0390529D01*
Y0452279D01*
X0390456D01*
Y0452352D01*
X0390383D01*
Y0452425D01*
X0390238D01*
Y0452497D01*
X0390165D01*
Y0452570D01*
X0390020D01*
Y0452643D01*
X0389875D01*
Y0452715D01*
X0389729D01*
Y0452788D01*
X0389511D01*
Y0452861D01*
X0389220D01*
Y0452934D01*
X0388493D01*
Y0452861D01*
X0388202D01*
Y0452788D01*
X0388057D01*
Y0452715D01*
X0387984D01*
Y0452643D01*
X0387912D01*
Y0452570D01*
X0387839D01*
Y0452497D01*
Y0452425D01*
Y0452352D01*
X0387766D01*
Y0452279D01*
Y0452207D01*
Y0452134D01*
Y0452061D01*
X0387839D01*
Y0451989D01*
Y0451916D01*
X0387912D01*
Y0451843D01*
X0387984D01*
Y0451770D01*
X0388057D01*
Y0451698D01*
X0388275D01*
Y0451625D01*
X0388493D01*
Y0451552D01*
X0388857D01*
Y0451480D01*
X0389148D01*
Y0451407D01*
X0389511D01*
Y0451334D01*
X0389802D01*
Y0451262D01*
X0390020D01*
Y0451189D01*
X0390238D01*
Y0451116D01*
X0390383D01*
Y0451043D01*
X0390529D01*
Y0450971D01*
X0390674D01*
Y0450898D01*
X0390747D01*
Y0450825D01*
X0390820D01*
Y0450753D01*
X0390892D01*
Y0450680D01*
X0390965D01*
Y0450607D01*
X0391038D01*
Y0450534D01*
X0391110D01*
Y0450462D01*
Y0450389D01*
X0391183D01*
Y0450316D01*
Y0450244D01*
Y0450171D01*
X0391256D01*
Y0450098D01*
Y0450026D01*
Y0449953D01*
Y0449880D01*
Y0449808D01*
Y0449735D01*
Y0449662D01*
Y0449589D01*
Y0449517D01*
Y0449444D01*
Y0449371D01*
Y0449299D01*
Y0449226D01*
Y0449153D01*
Y0449081D01*
X0391183D01*
Y0449008D01*
Y0448935D01*
Y0448862D01*
X0391110D01*
Y0448790D01*
Y0448717D01*
X0391038D01*
Y0448644D01*
X0390965D01*
Y0448572D01*
Y0448499D01*
X0390892D01*
Y0448426D01*
X0390820D01*
Y0448353D01*
X0390747D01*
Y0448281D01*
X0390601D01*
Y0448208D01*
X0390529D01*
Y0448135D01*
X0390383D01*
Y0448063D01*
X0390238D01*
Y0447990D01*
X0390020D01*
Y0447917D01*
X0389729D01*
Y0447845D01*
X0388275D01*
Y0447917D01*
X0388057D01*
Y0447990D01*
X0387839D01*
Y0448063D01*
X0387694D01*
Y0448135D01*
X0387403D01*
Y0448063D01*
Y0447990D01*
X0387330D01*
Y0447917D01*
X0387039D01*
Y0447990D01*
Y0448063D01*
X0386967D01*
Y0448135D01*
Y0448208D01*
Y0448281D01*
Y0448353D01*
X0386894D01*
Y0448426D01*
Y0448499D01*
Y0448572D01*
Y0448644D01*
X0386821D01*
Y0448717D01*
Y0448790D01*
Y0448862D01*
Y0448935D01*
X0386749D01*
Y0449008D01*
Y0449081D01*
Y0449153D01*
X0386676D01*
Y0449226D01*
Y0449299D01*
Y0449371D01*
Y0449444D01*
X0386603D01*
Y0449517D01*
Y0449589D01*
Y0449662D01*
X0386821D01*
Y0449589D01*
X0386894D01*
Y0449517D01*
X0386967D01*
Y0449444D01*
X0387039D01*
Y0449371D01*
X0387112D01*
Y0449299D01*
X0387185D01*
Y0449226D01*
X0387257D01*
Y0449153D01*
X0387330D01*
Y0449081D01*
X0387475D01*
Y0449008D01*
X0387548D01*
Y0448935D01*
X0387694D01*
Y0448862D01*
X0387766D01*
Y0448790D01*
X0387912D01*
Y0448717D01*
X0388130D01*
Y0448644D01*
X0388348D01*
Y0448572D01*
X0388857D01*
Y0448499D01*
X0389148D01*
Y0448572D01*
X0389511D01*
Y0448644D01*
X0389729D01*
Y0448717D01*
X0389875D01*
Y0448790D01*
X0389947D01*
Y0448862D01*
X0390020D01*
Y0448935D01*
X0390093D01*
Y0449008D01*
Y0449081D01*
X0390165D01*
Y0449153D01*
Y0449226D01*
Y0449299D01*
Y0449371D01*
Y0449444D01*
Y0449517D01*
Y0449589D01*
Y0449662D01*
X0390093D01*
Y0449735D01*
Y0449808D01*
X0390020D01*
Y0449880D01*
X0389947D01*
Y0449953D01*
X0389802D01*
Y0450026D01*
X0389656D01*
Y0450098D01*
X0389438D01*
Y0450171D01*
X0389075D01*
Y0450244D01*
X0388784D01*
Y0450316D01*
X0388493D01*
Y0450389D01*
X0388130D01*
Y0450462D01*
X0387912D01*
Y0450534D01*
X0387694D01*
Y0450607D01*
X0387548D01*
Y0450680D01*
X0387475D01*
Y0450753D01*
X0387330D01*
Y0450825D01*
X0387257D01*
Y0450898D01*
X0387185D01*
Y0450971D01*
X0387112D01*
Y0451043D01*
X0387039D01*
Y0451116D01*
X0386967D01*
Y0451189D01*
X0386894D01*
Y0451262D01*
Y0451334D01*
X0386821D01*
Y0451407D01*
Y0451480D01*
Y0451552D01*
Y0451625D01*
X0386749D01*
Y0451698D01*
Y0451770D01*
Y0451843D01*
Y0451916D01*
Y0451989D01*
Y0452061D01*
Y0452134D01*
Y0452207D01*
Y0452279D01*
Y0452352D01*
X0386821D01*
Y0452425D01*
Y0452497D01*
Y0452570D01*
X0386894D01*
Y0452643D01*
Y0452715D01*
Y0452788D01*
X0386967D01*
Y0452861D01*
X0387039D01*
Y0452934D01*
Y0453006D01*
X0387112D01*
Y0453079D01*
X0387185D01*
Y0453152D01*
X0387257D01*
Y0453224D01*
X0387403D01*
Y0453297D01*
X0387475D01*
Y0453370D01*
X0387621D01*
Y0453442D01*
X0387766D01*
Y0453515D01*
X0387984D01*
Y0453588D01*
X0388275D01*
Y0453661D01*
X0389220D01*
Y0453588D01*
D02*
G37*
G36*
X0452906D02*
X0453269D01*
Y0453515D01*
X0453414D01*
Y0453442D01*
X0453560D01*
Y0453370D01*
X0453705D01*
Y0453297D01*
X0453778D01*
Y0453370D01*
X0453851D01*
Y0453442D01*
Y0453515D01*
X0453923D01*
Y0453588D01*
X0454141D01*
Y0453515D01*
X0454214D01*
Y0453442D01*
Y0453370D01*
Y0453297D01*
X0454287D01*
Y0453224D01*
Y0453152D01*
Y0453079D01*
Y0453006D01*
X0454359D01*
Y0452934D01*
Y0452861D01*
Y0452788D01*
X0454432D01*
Y0452715D01*
Y0452643D01*
Y0452570D01*
X0454505D01*
Y0452497D01*
Y0452425D01*
Y0452352D01*
Y0452279D01*
X0454577D01*
Y0452207D01*
Y0452134D01*
Y0452061D01*
X0454505D01*
Y0451989D01*
X0454432D01*
Y0452061D01*
X0454359D01*
Y0452134D01*
X0454287D01*
Y0452207D01*
X0454214D01*
Y0452279D01*
X0454141D01*
Y0452352D01*
X0453996D01*
Y0452425D01*
X0453923D01*
Y0452497D01*
X0453851D01*
Y0452570D01*
X0453705D01*
Y0452643D01*
X0453560D01*
Y0452715D01*
X0453414D01*
Y0452788D01*
X0453196D01*
Y0452861D01*
X0452906D01*
Y0452934D01*
X0452178D01*
Y0452861D01*
X0451888D01*
Y0452788D01*
X0451742D01*
Y0452715D01*
X0451670D01*
Y0452643D01*
X0451597D01*
Y0452570D01*
X0451524D01*
Y0452497D01*
Y0452425D01*
X0451451D01*
Y0452352D01*
Y0452279D01*
Y0452207D01*
Y0452134D01*
Y0452061D01*
X0451524D01*
Y0451989D01*
Y0451916D01*
X0451597D01*
Y0451843D01*
X0451670D01*
Y0451770D01*
X0451742D01*
Y0451698D01*
X0451960D01*
Y0451625D01*
X0452178D01*
Y0451552D01*
X0452542D01*
Y0451480D01*
X0452833D01*
Y0451407D01*
X0453124D01*
Y0451334D01*
X0453487D01*
Y0451262D01*
X0453705D01*
Y0451189D01*
X0453923D01*
Y0451116D01*
X0454069D01*
Y0451043D01*
X0454214D01*
Y0450971D01*
X0454359D01*
Y0450898D01*
X0454432D01*
Y0450825D01*
X0454505D01*
Y0450753D01*
X0454577D01*
Y0450680D01*
X0454650D01*
Y0450607D01*
X0454723D01*
Y0450534D01*
X0454796D01*
Y0450462D01*
Y0450389D01*
X0454868D01*
Y0450316D01*
Y0450244D01*
Y0450171D01*
X0454941D01*
Y0450098D01*
Y0450026D01*
Y0449953D01*
Y0449880D01*
Y0449808D01*
Y0449735D01*
Y0449662D01*
Y0449589D01*
Y0449517D01*
Y0449444D01*
Y0449371D01*
Y0449299D01*
Y0449226D01*
Y0449153D01*
Y0449081D01*
X0454868D01*
Y0449008D01*
Y0448935D01*
Y0448862D01*
X0454796D01*
Y0448790D01*
Y0448717D01*
X0454723D01*
Y0448644D01*
X0454650D01*
Y0448572D01*
X0454577D01*
Y0448499D01*
Y0448426D01*
X0454505D01*
Y0448353D01*
X0454359D01*
Y0448281D01*
X0454287D01*
Y0448208D01*
X0454214D01*
Y0448135D01*
X0454069D01*
Y0448063D01*
X0453923D01*
Y0447990D01*
X0453705D01*
Y0447917D01*
X0453414D01*
Y0447845D01*
X0451960D01*
Y0447917D01*
X0451742D01*
Y0447990D01*
X0451524D01*
Y0448063D01*
X0451379D01*
Y0448135D01*
X0451088D01*
Y0448063D01*
Y0447990D01*
X0451015D01*
Y0447917D01*
X0450724D01*
Y0447990D01*
Y0448063D01*
X0450652D01*
Y0448135D01*
Y0448208D01*
Y0448281D01*
Y0448353D01*
X0450579D01*
Y0448426D01*
Y0448499D01*
Y0448572D01*
Y0448644D01*
X0450506D01*
Y0448717D01*
Y0448790D01*
Y0448862D01*
X0450434D01*
Y0448935D01*
Y0449008D01*
Y0449081D01*
Y0449153D01*
X0450361D01*
Y0449226D01*
Y0449299D01*
Y0449371D01*
Y0449444D01*
X0450288D01*
Y0449517D01*
Y0449589D01*
Y0449662D01*
X0450506D01*
Y0449589D01*
X0450579D01*
Y0449517D01*
X0450652D01*
Y0449444D01*
X0450724D01*
Y0449371D01*
X0450797D01*
Y0449299D01*
X0450870D01*
Y0449226D01*
X0450943D01*
Y0449153D01*
X0451015D01*
Y0449081D01*
X0451161D01*
Y0449008D01*
X0451233D01*
Y0448935D01*
X0451379D01*
Y0448862D01*
X0451451D01*
Y0448790D01*
X0451597D01*
Y0448717D01*
X0451815D01*
Y0448644D01*
X0452033D01*
Y0448572D01*
X0452469D01*
Y0448499D01*
X0452833D01*
Y0448572D01*
X0453196D01*
Y0448644D01*
X0453414D01*
Y0448717D01*
X0453560D01*
Y0448790D01*
X0453632D01*
Y0448862D01*
X0453705D01*
Y0448935D01*
X0453778D01*
Y0449008D01*
Y0449081D01*
Y0449153D01*
X0453851D01*
Y0449226D01*
Y0449299D01*
Y0449371D01*
Y0449444D01*
Y0449517D01*
Y0449589D01*
Y0449662D01*
X0453778D01*
Y0449735D01*
Y0449808D01*
X0453705D01*
Y0449880D01*
X0453632D01*
Y0449953D01*
X0453487D01*
Y0450026D01*
X0453342D01*
Y0450098D01*
X0453124D01*
Y0450171D01*
X0452760D01*
Y0450244D01*
X0452469D01*
Y0450316D01*
X0452178D01*
Y0450389D01*
X0451815D01*
Y0450462D01*
X0451597D01*
Y0450534D01*
X0451379D01*
Y0450607D01*
X0451233D01*
Y0450680D01*
X0451088D01*
Y0450753D01*
X0451015D01*
Y0450825D01*
X0450943D01*
Y0450898D01*
X0450797D01*
Y0450971D01*
Y0451043D01*
X0450724D01*
Y0451116D01*
X0450652D01*
Y0451189D01*
X0450579D01*
Y0451262D01*
Y0451334D01*
X0450506D01*
Y0451407D01*
Y0451480D01*
Y0451552D01*
X0450434D01*
Y0451625D01*
Y0451698D01*
Y0451770D01*
Y0451843D01*
Y0451916D01*
Y0451989D01*
Y0452061D01*
Y0452134D01*
Y0452207D01*
Y0452279D01*
Y0452352D01*
X0450506D01*
Y0452425D01*
Y0452497D01*
Y0452570D01*
Y0452643D01*
X0450579D01*
Y0452715D01*
Y0452788D01*
X0450652D01*
Y0452861D01*
X0450724D01*
Y0452934D01*
Y0453006D01*
X0450797D01*
Y0453079D01*
X0450870D01*
Y0453152D01*
X0450943D01*
Y0453224D01*
X0451088D01*
Y0453297D01*
X0451161D01*
Y0453370D01*
X0451306D01*
Y0453442D01*
X0451451D01*
Y0453515D01*
X0451670D01*
Y0453588D01*
X0451960D01*
Y0453661D01*
X0452906D01*
Y0453588D01*
D02*
G37*
G36*
X0413357Y0453515D02*
X0413429D01*
Y0453442D01*
Y0453370D01*
Y0453297D01*
Y0453224D01*
X0413502D01*
Y0453152D01*
Y0453079D01*
Y0453006D01*
X0413575D01*
Y0452934D01*
Y0452861D01*
Y0452788D01*
X0413648D01*
Y0452715D01*
Y0452643D01*
Y0452570D01*
X0413720D01*
Y0452497D01*
Y0452425D01*
Y0452352D01*
X0413793D01*
Y0452279D01*
Y0452207D01*
Y0452134D01*
Y0452061D01*
X0413720D01*
Y0451989D01*
X0413648D01*
Y0452061D01*
X0413575D01*
Y0452134D01*
X0413502D01*
Y0452207D01*
Y0452279D01*
X0413429D01*
Y0452352D01*
X0413357D01*
Y0452425D01*
X0413284D01*
Y0452497D01*
X0413211D01*
Y0452570D01*
X0413139D01*
Y0452643D01*
X0413066D01*
Y0452715D01*
X0412920D01*
Y0452788D01*
X0412702D01*
Y0452861D01*
X0411757D01*
Y0452788D01*
X0411685D01*
Y0452715D01*
Y0452643D01*
Y0452570D01*
Y0452497D01*
Y0452425D01*
Y0452352D01*
Y0452279D01*
Y0452207D01*
Y0452134D01*
Y0452061D01*
Y0451989D01*
Y0451916D01*
Y0451843D01*
Y0451770D01*
Y0451698D01*
Y0451625D01*
Y0451552D01*
Y0451480D01*
Y0451407D01*
Y0451334D01*
Y0451262D01*
Y0451189D01*
Y0451116D01*
Y0451043D01*
Y0450971D01*
Y0450898D01*
Y0450825D01*
Y0450753D01*
Y0450680D01*
Y0450607D01*
Y0450534D01*
Y0450462D01*
Y0450389D01*
Y0450316D01*
Y0450244D01*
Y0450171D01*
Y0450098D01*
Y0450026D01*
Y0449953D01*
Y0449880D01*
Y0449808D01*
Y0449735D01*
Y0449662D01*
Y0449589D01*
Y0449517D01*
Y0449444D01*
Y0449371D01*
Y0449299D01*
Y0449226D01*
Y0449153D01*
Y0449081D01*
Y0449008D01*
Y0448935D01*
Y0448862D01*
Y0448790D01*
Y0448717D01*
Y0448644D01*
Y0448572D01*
Y0448499D01*
X0411757D01*
Y0448426D01*
Y0448353D01*
X0411830D01*
Y0448281D01*
X0411903D01*
Y0448208D01*
X0412048D01*
Y0448135D01*
X0412266D01*
Y0448063D01*
Y0447990D01*
Y0447917D01*
X0409867D01*
Y0447990D01*
Y0448063D01*
Y0448135D01*
X0410158D01*
Y0448208D01*
X0410303D01*
Y0448281D01*
X0410376D01*
Y0448353D01*
Y0448426D01*
X0410449D01*
Y0448499D01*
Y0448572D01*
Y0448644D01*
Y0448717D01*
X0410521D01*
Y0448790D01*
Y0448862D01*
Y0448935D01*
Y0449008D01*
Y0449081D01*
Y0449153D01*
Y0449226D01*
Y0449299D01*
Y0449371D01*
Y0449444D01*
Y0449517D01*
Y0449589D01*
Y0449662D01*
Y0449735D01*
Y0449808D01*
Y0449880D01*
Y0449953D01*
Y0450026D01*
Y0450098D01*
Y0450171D01*
Y0450244D01*
Y0450316D01*
Y0450389D01*
Y0450462D01*
Y0450534D01*
Y0450607D01*
Y0450680D01*
Y0450753D01*
Y0450825D01*
Y0450898D01*
Y0450971D01*
Y0451043D01*
Y0451116D01*
Y0451189D01*
Y0451262D01*
Y0451334D01*
Y0451407D01*
Y0451480D01*
Y0451552D01*
Y0451625D01*
Y0451698D01*
Y0451770D01*
Y0451843D01*
Y0451916D01*
Y0451989D01*
Y0452061D01*
Y0452134D01*
Y0452207D01*
Y0452279D01*
Y0452352D01*
Y0452425D01*
Y0452497D01*
Y0452570D01*
Y0452643D01*
X0410449D01*
Y0452715D01*
Y0452788D01*
X0410376D01*
Y0452861D01*
X0409431D01*
Y0452788D01*
X0409285D01*
Y0452715D01*
X0409140D01*
Y0452643D01*
X0409067D01*
Y0452570D01*
X0408995D01*
Y0452497D01*
X0408922D01*
Y0452425D01*
X0408849D01*
Y0452352D01*
X0408777D01*
Y0452279D01*
X0408704D01*
Y0452207D01*
Y0452134D01*
X0408631D01*
Y0452061D01*
X0408558D01*
Y0451989D01*
X0408486D01*
Y0452061D01*
X0408413D01*
Y0452134D01*
Y0452207D01*
Y0452279D01*
X0408486D01*
Y0452352D01*
Y0452425D01*
Y0452497D01*
X0408558D01*
Y0452570D01*
Y0452643D01*
Y0452715D01*
Y0452788D01*
X0408631D01*
Y0452861D01*
Y0452934D01*
Y0453006D01*
X0408704D01*
Y0453079D01*
Y0453152D01*
Y0453224D01*
X0408777D01*
Y0453297D01*
Y0453370D01*
Y0453442D01*
X0408849D01*
Y0453515D01*
Y0453588D01*
X0413357D01*
Y0453515D01*
D02*
G37*
%LPC*%
G36*
X0417064Y0452861D02*
X0415828D01*
Y0452788D01*
X0415756D01*
Y0452715D01*
Y0452643D01*
X0415683D01*
Y0452570D01*
Y0452497D01*
Y0452425D01*
Y0452352D01*
Y0452279D01*
Y0452207D01*
Y0452134D01*
Y0452061D01*
Y0451989D01*
Y0451916D01*
Y0451843D01*
Y0451770D01*
Y0451698D01*
Y0451625D01*
Y0451552D01*
Y0451480D01*
Y0451407D01*
Y0451334D01*
Y0451262D01*
Y0451189D01*
Y0451116D01*
Y0451043D01*
Y0450971D01*
Y0450898D01*
X0416919D01*
Y0450971D01*
X0417137D01*
Y0451043D01*
X0417355D01*
Y0451116D01*
X0417428D01*
Y0451189D01*
X0417501D01*
Y0451262D01*
X0417573D01*
Y0451334D01*
X0417646D01*
Y0451407D01*
Y0451480D01*
X0417719D01*
Y0451552D01*
Y0451625D01*
Y0451698D01*
Y0451770D01*
X0417791D01*
Y0451843D01*
Y0451916D01*
Y0451989D01*
Y0452061D01*
Y0452134D01*
X0417719D01*
Y0452207D01*
Y0452279D01*
Y0452352D01*
X0417646D01*
Y0452425D01*
Y0452497D01*
X0417573D01*
Y0452570D01*
X0417501D01*
Y0452643D01*
X0417428D01*
Y0452715D01*
X0417282D01*
Y0452788D01*
X0417064D01*
Y0452861D01*
D02*
G37*
G36*
X0383477Y0452497D02*
X0383404D01*
Y0452425D01*
X0383332D01*
Y0452352D01*
Y0452279D01*
X0383259D01*
Y0452207D01*
Y0452134D01*
Y0452061D01*
X0383186D01*
Y0451989D01*
Y0451916D01*
Y0451843D01*
X0383114D01*
Y0451770D01*
Y0451698D01*
X0383041D01*
Y0451625D01*
Y0451552D01*
Y0451480D01*
X0382968D01*
Y0451407D01*
Y0451334D01*
X0382895D01*
Y0451262D01*
Y0451189D01*
Y0451116D01*
X0382823D01*
Y0451043D01*
Y0450971D01*
Y0450898D01*
X0382750D01*
Y0450825D01*
Y0450753D01*
X0382677D01*
Y0450680D01*
Y0450607D01*
Y0450534D01*
X0382605D01*
Y0450462D01*
Y0450389D01*
Y0450316D01*
X0382532D01*
Y0450244D01*
Y0450171D01*
Y0450098D01*
X0384277D01*
Y0450171D01*
Y0450244D01*
Y0450316D01*
X0384204D01*
Y0450389D01*
Y0450462D01*
X0384131D01*
Y0450534D01*
Y0450607D01*
Y0450680D01*
X0384059D01*
Y0450753D01*
Y0450825D01*
Y0450898D01*
X0383986D01*
Y0450971D01*
Y0451043D01*
Y0451116D01*
X0383913D01*
Y0451189D01*
Y0451262D01*
X0383840D01*
Y0451334D01*
Y0451407D01*
Y0451480D01*
X0383768D01*
Y0451552D01*
Y0451625D01*
Y0451698D01*
X0383695D01*
Y0451770D01*
Y0451843D01*
Y0451916D01*
X0383622D01*
Y0451989D01*
Y0452061D01*
X0383550D01*
Y0452134D01*
Y0452207D01*
Y0452279D01*
X0383477D01*
Y0452352D01*
Y0452425D01*
Y0452497D01*
D02*
G37*
%LPD*%
G54D10*
X0328449Y0471343D02*
X0327815Y0471976D01*
X0326549D01*
X0325916Y0471343D01*
Y0468810D01*
X0326549Y0468177D01*
X0327815D01*
X0328449Y0468810D01*
X0330348Y0470710D02*
X0331614D01*
X0332247Y0470077D01*
Y0468177D01*
X0330348D01*
X0329715Y0468810D01*
X0330348Y0469444D01*
X0332247D01*
X0333514Y0466911D02*
Y0470710D01*
X0335413D01*
X0336046Y0470077D01*
Y0468810D01*
X0335413Y0468177D01*
X0333514D01*
X0337946Y0470710D02*
X0339212D01*
X0339845Y0470077D01*
Y0468177D01*
X0337946D01*
X0337312Y0468810D01*
X0337946Y0469444D01*
X0339845D01*
X0343644Y0470710D02*
X0341744D01*
X0341111Y0470077D01*
Y0468810D01*
X0341744Y0468177D01*
X0343644D01*
X0344910D02*
X0346176D01*
X0345543D01*
Y0470710D01*
X0344910D01*
X0348709Y0471343D02*
Y0470710D01*
X0348076D01*
X0349342D01*
X0348709D01*
Y0468810D01*
X0349342Y0468177D01*
X0351241D02*
X0352507D01*
X0351874D01*
Y0470710D01*
X0351241D01*
X0354407D02*
X0355673Y0468177D01*
X0356939Y0470710D01*
X0360105Y0468177D02*
X0358839D01*
X0358206Y0468810D01*
Y0470077D01*
X0358839Y0470710D01*
X0360105D01*
X0360738Y0470077D01*
Y0469444D01*
X0358206D01*
X0362004Y0470077D02*
X0364537D01*
X0365803Y0471976D02*
Y0468177D01*
X0367703D01*
X0368336Y0468810D01*
Y0469444D01*
Y0470077D01*
X0367703Y0470710D01*
X0365803D01*
X0370235D02*
X0371501D01*
X0372134Y0470077D01*
Y0468177D01*
X0370235D01*
X0369602Y0468810D01*
X0370235Y0469444D01*
X0372134D01*
X0373401Y0468177D02*
X0375300D01*
X0375933Y0468810D01*
X0375300Y0469444D01*
X0374034D01*
X0373401Y0470077D01*
X0374034Y0470710D01*
X0375933D01*
X0379099Y0468177D02*
X0377833D01*
X0377199Y0468810D01*
Y0470077D01*
X0377833Y0470710D01*
X0379099D01*
X0379732Y0470077D01*
Y0469444D01*
X0377199D01*
X0383531Y0471976D02*
Y0468177D01*
X0381631D01*
X0380998Y0468810D01*
Y0470077D01*
X0381631Y0470710D01*
X0383531D01*
X0388596Y0468177D02*
X0389862D01*
X0389229D01*
Y0471976D01*
X0388596D01*
X0391761Y0468177D02*
X0393028D01*
X0392394D01*
Y0470710D01*
X0391761D01*
X0397460Y0466911D02*
Y0470710D01*
X0395560D01*
X0394927Y0470077D01*
Y0468810D01*
X0395560Y0468177D01*
X0397460D01*
X0398726Y0470710D02*
Y0468810D01*
X0399359Y0468177D01*
X0401258D01*
Y0470710D01*
X0402525Y0468177D02*
X0403791D01*
X0403158D01*
Y0470710D01*
X0402525D01*
X0408223Y0471976D02*
Y0468177D01*
X0406323D01*
X0405690Y0468810D01*
Y0470077D01*
X0406323Y0470710D01*
X0408223D01*
X0413288Y0468177D02*
X0414554D01*
X0413921D01*
Y0471976D01*
X0413288D01*
X0418353Y0468177D02*
X0417087D01*
X0416453Y0468810D01*
Y0470077D01*
X0417087Y0470710D01*
X0418353D01*
X0418986Y0470077D01*
Y0469444D01*
X0416453D01*
X0420252Y0470710D02*
X0421518Y0468177D01*
X0422785Y0470710D01*
X0425950Y0468177D02*
X0424684D01*
X0424051Y0468810D01*
Y0470077D01*
X0424684Y0470710D01*
X0425950D01*
X0426583Y0470077D01*
Y0469444D01*
X0424051D01*
X0427850Y0468177D02*
X0429116D01*
X0428483D01*
Y0471976D01*
X0427850D01*
X0434814Y0468177D02*
X0436714D01*
X0437347Y0468810D01*
X0436714Y0469444D01*
X0435447D01*
X0434814Y0470077D01*
X0435447Y0470710D01*
X0437347D01*
X0440512Y0468177D02*
X0439246D01*
X0438613Y0468810D01*
Y0470077D01*
X0439246Y0470710D01*
X0440512D01*
X0441145Y0470077D01*
Y0469444D01*
X0438613D01*
X0442412Y0468177D02*
Y0470710D01*
X0444311D01*
X0444944Y0470077D01*
Y0468177D01*
X0446210D02*
X0448110D01*
X0448743Y0468810D01*
X0448110Y0469444D01*
X0446843D01*
X0446210Y0470077D01*
X0446843Y0470710D01*
X0448743D01*
X0450009Y0468177D02*
X0451275D01*
X0450642D01*
Y0470710D01*
X0450009D01*
X0453175Y0468177D02*
Y0470710D01*
X0455074D01*
X0455707Y0470077D01*
Y0468177D01*
X0458240Y0466911D02*
X0458873D01*
X0459506Y0467544D01*
Y0470710D01*
X0457607D01*
X0456974Y0470077D01*
Y0468810D01*
X0457607Y0468177D01*
X0459506D01*
X0464571D02*
X0466470D01*
X0467104Y0468810D01*
X0466470Y0469444D01*
X0465204D01*
X0464571Y0470077D01*
X0465204Y0470710D01*
X0467104D01*
X0470269Y0468177D02*
X0469003D01*
X0468370Y0468810D01*
Y0470077D01*
X0469003Y0470710D01*
X0470269D01*
X0470902Y0470077D01*
Y0469444D01*
X0468370D01*
X0472169Y0468177D02*
Y0470710D01*
X0474068D01*
X0474701Y0470077D01*
Y0468177D01*
X0475968D02*
X0477867D01*
X0478500Y0468810D01*
X0477867Y0469444D01*
X0476601D01*
X0475968Y0470077D01*
X0476601Y0470710D01*
X0478500D01*
X0480399Y0468177D02*
X0481666D01*
X0482299Y0468810D01*
Y0470077D01*
X0481666Y0470710D01*
X0480399D01*
X0479766Y0470077D01*
Y0468810D01*
X0480399Y0468177D01*
X0483565Y0470710D02*
Y0468177D01*
Y0469444D01*
X0484198Y0470077D01*
X0484831Y0470710D01*
X0485464D01*
X0126900Y0073549D02*
X0130899D01*
X0128899D01*
Y0067551D01*
X0133898D02*
X0135897D01*
X0136897Y0068550D01*
Y0070550D01*
X0135897Y0071549D01*
X0133898D01*
X0132898Y0070550D01*
Y0068550D01*
X0133898Y0067551D01*
X0138896Y0065551D02*
Y0071549D01*
X0141895D01*
X0142895Y0070550D01*
Y0068550D01*
X0141895Y0067551D01*
X0138896D01*
X0153891Y0073549D02*
X0151892D01*
X0150892Y0072549D01*
Y0068550D01*
X0151892Y0067551D01*
X0153891D01*
X0154891Y0068550D01*
Y0072549D01*
X0153891Y0073549D01*
X0156890Y0071549D02*
X0158890Y0067551D01*
X0160889Y0071549D01*
X0165887Y0067551D02*
X0163888D01*
X0162888Y0068550D01*
Y0070550D01*
X0163888Y0071549D01*
X0165887D01*
X0166887Y0070550D01*
Y0069550D01*
X0162888D01*
X0168886Y0071549D02*
Y0067551D01*
Y0069550D01*
X0169886Y0070550D01*
X0170886Y0071549D01*
X0171885D01*
X0174884Y0067551D02*
X0176884D01*
X0175884D01*
Y0073549D01*
X0174884D01*
X0180883Y0071549D02*
X0182882D01*
X0183882Y0070550D01*
Y0067551D01*
X0180883D01*
X0179883Y0068550D01*
X0180883Y0069550D01*
X0183882D01*
X0185881Y0071549D02*
Y0068550D01*
X0186881Y0067551D01*
X0189880D01*
Y0066551D01*
X0188880Y0065551D01*
X0187880D01*
X0189880Y0067551D02*
Y0071549D01*
X0567400Y0087833D02*
Y0093831D01*
X0571399Y0087833D01*
Y0093831D01*
X0574398Y0087833D02*
X0576397D01*
X0577397Y0088833D01*
Y0090832D01*
X0576397Y0091832D01*
X0574398D01*
X0573398Y0090832D01*
Y0088833D01*
X0574398Y0087833D01*
X0580396Y0092832D02*
Y0091832D01*
X0579396D01*
X0581395D01*
X0580396D01*
Y0088833D01*
X0581395Y0087833D01*
X0590393Y0093831D02*
X0592392D01*
X0591392D01*
Y0087833D01*
X0590393D01*
X0592392D01*
X0595391D02*
Y0091832D01*
X0598390D01*
X0599390Y0090832D01*
Y0087833D01*
X0607387Y0093831D02*
Y0089833D01*
X0609386Y0087833D01*
X0611386Y0089833D01*
Y0093831D01*
X0616384Y0087833D02*
X0614385D01*
X0613385Y0088833D01*
Y0090832D01*
X0614385Y0091832D01*
X0616384D01*
X0617384Y0090832D01*
Y0089833D01*
X0613385D01*
X0619383Y0091832D02*
Y0087833D01*
Y0089833D01*
X0620383Y0090832D01*
X0621383Y0091832D01*
X0622382D01*
X0625381Y0087833D02*
X0628380D01*
X0629380Y0088833D01*
X0628380Y0089833D01*
X0626381D01*
X0625381Y0090832D01*
X0626381Y0091832D01*
X0629380D01*
X0631379Y0087833D02*
X0633379D01*
X0632379D01*
Y0091832D01*
X0631379D01*
X0637377Y0087833D02*
X0639377D01*
X0640376Y0088833D01*
Y0090832D01*
X0639377Y0091832D01*
X0637377D01*
X0636378Y0090832D01*
Y0088833D01*
X0637377Y0087833D01*
X0642376D02*
Y0091832D01*
X0645375D01*
X0646374Y0090832D01*
Y0087833D01*
X0652373Y0092832D02*
X0651373Y0093831D01*
X0649373D01*
X0648374Y0092832D01*
Y0088833D01*
X0649373Y0087833D01*
X0651373D01*
X0652373Y0088833D01*
X0655372Y0087833D02*
X0657371D01*
X0658371Y0088833D01*
Y0090832D01*
X0657371Y0091832D01*
X0655372D01*
X0654372Y0090832D01*
Y0088833D01*
X0655372Y0087833D01*
X0660370D02*
Y0091832D01*
X0663369D01*
X0664369Y0090832D01*
Y0087833D01*
X0667368Y0092832D02*
Y0091832D01*
X0666368D01*
X0668367D01*
X0667368D01*
Y0088833D01*
X0668367Y0087833D01*
X0671366Y0091832D02*
Y0087833D01*
Y0089833D01*
X0672366Y0090832D01*
X0673366Y0091832D01*
X0674365D01*
X0678364Y0087833D02*
X0680364D01*
X0681363Y0088833D01*
Y0090832D01*
X0680364Y0091832D01*
X0678364D01*
X0677364Y0090832D01*
Y0088833D01*
X0678364Y0087833D01*
X0683362D02*
X0685362D01*
X0684362D01*
Y0093831D01*
X0683362D01*
X0520799Y0092832D02*
X0519799Y0093831D01*
X0517800D01*
X0516800Y0092832D01*
Y0091832D01*
X0517800Y0090832D01*
X0519799D01*
X0520799Y0089833D01*
Y0088833D01*
X0519799Y0087833D01*
X0517800D01*
X0516800Y0088833D01*
X0522798Y0093831D02*
Y0089833D01*
X0524797Y0087833D01*
X0526797Y0089833D01*
Y0093831D01*
X0528796Y0087833D02*
Y0093831D01*
X0532795Y0087833D01*
Y0093831D01*
X0540792Y0087833D02*
Y0093831D01*
X0543791D01*
X0544791Y0092832D01*
Y0090832D01*
X0543791Y0089833D01*
X0540792D01*
X0542792D02*
X0544791Y0087833D01*
X0550789Y0093831D02*
X0546790D01*
Y0087833D01*
X0550789D01*
X0546790Y0090832D02*
X0548790D01*
X0552788Y0093831D02*
Y0089833D01*
X0554788Y0087833D01*
X0556787Y0089833D01*
Y0093831D01*
X0558786Y0091832D02*
X0559786D01*
Y0090832D01*
X0558786D01*
Y0091832D01*
Y0088833D02*
X0559786D01*
Y0087833D01*
X0558786D01*
Y0088833D01*
X0433000Y0087833D02*
Y0093831D01*
X0435999D01*
X0436999Y0092832D01*
Y0090832D01*
X0435999Y0089833D01*
X0433000D01*
X0434999D02*
X0436999Y0087833D01*
X0442997Y0093831D02*
X0438998D01*
Y0087833D01*
X0442997D01*
X0438998Y0090832D02*
X0440997D01*
X0444996Y0093831D02*
Y0089833D01*
X0446995Y0087833D01*
X0448995Y0089833D01*
Y0093831D01*
X0450994Y0091832D02*
X0451994D01*
Y0090832D01*
X0450994D01*
Y0091832D01*
Y0088833D02*
X0451994D01*
Y0087833D01*
X0450994D01*
Y0088833D01*
X0126900Y0052965D02*
X0130899D01*
X0128899D01*
Y0046966D01*
X0132898Y0052965D02*
X0134897D01*
X0133898D01*
Y0046966D01*
X0132898D01*
X0134897D01*
X0137896Y0052965D02*
Y0046966D01*
X0140895D01*
X0141895Y0047966D01*
Y0051965D01*
X0140895Y0052965D01*
X0137896D01*
X0143895Y0046966D02*
Y0050965D01*
X0145894Y0052965D01*
X0147893Y0050965D01*
Y0046966D01*
Y0049966D01*
X0143895D01*
X0149893Y0045967D02*
X0153891D01*
X0155891Y0051965D02*
X0156890Y0052965D01*
X0158890D01*
X0159889Y0051965D01*
Y0047966D01*
X0158890Y0046966D01*
X0156890D01*
X0155891Y0047966D01*
Y0051965D01*
X0161889D02*
X0162888Y0052965D01*
X0164888D01*
X0165887Y0051965D01*
Y0047966D01*
X0164888Y0046966D01*
X0162888D01*
X0161889Y0047966D01*
Y0051965D01*
X0167887D02*
X0168886Y0052965D01*
X0170886D01*
X0171885Y0051965D01*
Y0050965D01*
X0170886Y0049966D01*
X0169886D01*
X0170886D01*
X0171885Y0048966D01*
Y0047966D01*
X0170886Y0046966D01*
X0168886D01*
X0167887Y0047966D01*
X0173885Y0046966D02*
X0175884D01*
X0174884D01*
Y0052965D01*
X0173885Y0051965D01*
X0178883Y0052965D02*
X0182882D01*
Y0051965D01*
X0178883Y0047966D01*
Y0046966D01*
X0184881D02*
Y0047966D01*
X0185881D01*
Y0046966D01*
X0184881D01*
X0193878Y0051965D02*
X0192879Y0052965D01*
X0190879D01*
X0189880Y0051965D01*
Y0047966D01*
X0190879Y0046966D01*
X0192879D01*
X0193878Y0047966D01*
Y0049966D01*
X0191879D01*
X0195878Y0052965D02*
X0199876D01*
X0197877D01*
Y0046966D01*
X0204875Y0052965D02*
X0202875D01*
X0201876Y0051965D01*
Y0047966D01*
X0202875Y0046966D01*
X0204875D01*
X0205874Y0047966D01*
Y0051965D01*
X0204875Y0052965D01*
X0381150Y0046966D02*
X0383149D01*
X0382150D01*
Y0052965D01*
X0381150Y0051965D01*
X0386148Y0046966D02*
X0390147Y0050965D01*
X0392146Y0046966D02*
X0394146D01*
X0393146D01*
Y0052965D01*
X0392146Y0051965D01*
X0401144Y0046966D02*
X0397145D01*
X0401144Y0050965D01*
Y0051965D01*
X0400144Y0052965D01*
X0398145D01*
X0397145Y0051965D01*
X0403143Y0046966D02*
X0407142Y0050965D01*
X0413140Y0046966D02*
X0409141D01*
X0413140Y0050965D01*
Y0051965D01*
X0412140Y0052965D01*
X0410141D01*
X0409141Y0051965D01*
X0415139D02*
X0416139Y0052965D01*
X0418138D01*
X0419138Y0051965D01*
Y0047966D01*
X0418138Y0046966D01*
X0416139D01*
X0415139Y0047966D01*
Y0051965D01*
X0421137Y0046966D02*
X0423136D01*
X0422137D01*
Y0052965D01*
X0421137Y0051965D01*
X0430134Y0052965D02*
X0426135D01*
Y0049966D01*
X0428135Y0050965D01*
X0429135D01*
X0430134Y0049966D01*
Y0047966D01*
X0429135Y0046966D01*
X0427135D01*
X0426135Y0047966D01*
X0298199Y0051965D02*
X0297199Y0052965D01*
X0295200D01*
X0294200Y0051965D01*
Y0047966D01*
X0295200Y0046966D01*
X0297199D01*
X0298199Y0047966D01*
Y0049966D01*
X0296199D01*
X0304197Y0052965D02*
X0300198D01*
Y0046966D01*
X0304197D01*
X0300198Y0049966D02*
X0302197D01*
X0306196Y0046966D02*
Y0052965D01*
X0310195Y0046966D01*
Y0052965D01*
X0316193D02*
X0312194D01*
Y0046966D01*
X0316193D01*
X0312194Y0049966D02*
X0314194D01*
X0318192Y0046966D02*
Y0052965D01*
X0321191D01*
X0322191Y0051965D01*
Y0049966D01*
X0321191Y0048966D01*
X0318192D01*
X0320192D02*
X0322191Y0046966D01*
X0324190D02*
Y0050965D01*
X0326190Y0052965D01*
X0328189Y0050965D01*
Y0046966D01*
Y0049966D01*
X0324190D01*
X0330188Y0052965D02*
X0334187D01*
X0332188D01*
Y0046966D01*
X0340185Y0052965D02*
X0336186D01*
Y0046966D01*
X0340185D01*
X0336186Y0049966D02*
X0338186D01*
X0342184Y0052965D02*
Y0046966D01*
X0345183D01*
X0346183Y0047966D01*
Y0051965D01*
X0345183Y0052965D01*
X0342184D01*
X0372175Y0050965D02*
X0373175D01*
Y0049966D01*
X0372175D01*
Y0050965D01*
Y0047966D02*
X0373175D01*
Y0046966D01*
X0372175D01*
Y0047966D01*
X0046350Y0087833D02*
Y0091832D01*
X0048349Y0093831D01*
X0050349Y0091832D01*
Y0087833D01*
Y0090832D01*
X0046350D01*
X0052348Y0093831D02*
Y0087833D01*
X0056347D01*
X0058346Y0093831D02*
Y0087833D01*
X0062345D01*
X0070342D02*
Y0091832D01*
X0072342Y0093831D01*
X0074341Y0091832D01*
Y0087833D01*
Y0090832D01*
X0070342D01*
X0076340Y0087833D02*
Y0093831D01*
X0079339D01*
X0080339Y0092832D01*
Y0090832D01*
X0079339Y0089833D01*
X0076340D01*
X0078340D02*
X0080339Y0087833D01*
X0082338Y0093831D02*
X0086337D01*
X0084338D01*
Y0087833D01*
X0088336Y0093831D02*
Y0087833D01*
X0090336Y0089833D01*
X0092335Y0087833D01*
Y0093831D01*
X0097334D02*
X0095334D01*
X0094335Y0092832D01*
Y0088833D01*
X0095334Y0087833D01*
X0097334D01*
X0098333Y0088833D01*
Y0092832D01*
X0097334Y0093831D01*
X0100332Y0087833D02*
Y0093831D01*
X0103332D01*
X0104331Y0092832D01*
Y0090832D01*
X0103332Y0089833D01*
X0100332D01*
X0102332D02*
X0104331Y0087833D01*
X0106331Y0093831D02*
Y0087833D01*
Y0089833D01*
X0110329Y0093831D01*
X0107330Y0090832D01*
X0110329Y0087833D01*
X0118327Y0093831D02*
Y0089833D01*
X0120326Y0087833D01*
X0122325Y0089833D01*
Y0093831D01*
X0124325D02*
X0126324D01*
X0125324D01*
Y0087833D01*
X0124325D01*
X0126324D01*
X0133322Y0093831D02*
X0129323D01*
Y0087833D01*
X0133322D01*
X0129323Y0090832D02*
X0131323D01*
X0135321Y0093831D02*
Y0087833D01*
X0137321Y0089833D01*
X0139320Y0087833D01*
Y0093831D01*
X0145318D02*
X0141319D01*
Y0087833D01*
X0145318D01*
X0141319Y0090832D02*
X0143319D01*
X0147317Y0093831D02*
Y0087833D01*
X0150316D01*
X0151316Y0088833D01*
Y0092832D01*
X0150316Y0093831D01*
X0147317D01*
X0163312D02*
X0159313D01*
Y0090832D01*
X0161313D01*
X0159313D01*
Y0087833D01*
X0165312D02*
Y0093831D01*
X0168310D01*
X0169310Y0092832D01*
Y0090832D01*
X0168310Y0089833D01*
X0165312D01*
X0167311D02*
X0169310Y0087833D01*
X0174309Y0093831D02*
X0172309D01*
X0171310Y0092832D01*
Y0088833D01*
X0172309Y0087833D01*
X0174309D01*
X0175308Y0088833D01*
Y0092832D01*
X0174309Y0093831D01*
X0177308Y0087833D02*
Y0093831D01*
X0179307Y0091832D01*
X0181306Y0093831D01*
Y0087833D01*
X0189304Y0093831D02*
X0193303D01*
X0191303D01*
Y0087833D01*
X0198301Y0093831D02*
X0196301D01*
X0195302Y0092832D01*
Y0088833D01*
X0196301Y0087833D01*
X0198301D01*
X0199301Y0088833D01*
Y0092832D01*
X0198301Y0093831D01*
X0201300Y0087833D02*
Y0093831D01*
X0204299D01*
X0205299Y0092832D01*
Y0090832D01*
X0204299Y0089833D01*
X0201300D01*
X0217295Y0092832D02*
X0216295Y0093831D01*
X0214296D01*
X0213296Y0092832D01*
Y0091832D01*
X0214296Y0090832D01*
X0216295D01*
X0217295Y0089833D01*
Y0088833D01*
X0216295Y0087833D01*
X0214296D01*
X0213296Y0088833D01*
X0219294Y0093831D02*
X0221293D01*
X0220294D01*
Y0087833D01*
X0219294D01*
X0221293D01*
X0224292Y0093831D02*
Y0087833D01*
X0227291D01*
X0228291Y0088833D01*
Y0092832D01*
X0227291Y0093831D01*
X0224292D01*
X0234289D02*
X0230291D01*
Y0087833D01*
X0234289D01*
X0230291Y0090832D02*
X0232290D01*
X0462150Y0087833D02*
Y0091832D01*
X0464149Y0093831D01*
X0466149Y0091832D01*
Y0087833D01*
Y0090832D01*
X0462150D01*
X0294000Y0093831D02*
Y0087833D01*
X0296999D01*
X0297999Y0088833D01*
Y0089833D01*
X0296999Y0090832D01*
X0294000D01*
X0296999D01*
X0297999Y0091832D01*
Y0092832D01*
X0296999Y0093831D01*
X0294000D01*
X0302997D02*
X0300998D01*
X0299998Y0092832D01*
Y0088833D01*
X0300998Y0087833D01*
X0302997D01*
X0303997Y0088833D01*
Y0092832D01*
X0302997Y0093831D01*
X0305996Y0087833D02*
Y0091832D01*
X0307996Y0093831D01*
X0309995Y0091832D01*
Y0087833D01*
Y0090832D01*
X0305996D01*
X0311994Y0087833D02*
Y0093831D01*
X0314993D01*
X0315993Y0092832D01*
Y0090832D01*
X0314993Y0089833D01*
X0311994D01*
X0313994D02*
X0315993Y0087833D01*
X0317992Y0093831D02*
Y0087833D01*
X0320991D01*
X0321991Y0088833D01*
Y0092832D01*
X0320991Y0093831D01*
X0317992D01*
X0330988Y0087833D02*
Y0093831D01*
X0332987D02*
Y0087833D01*
X0329988Y0091832D02*
X0332987D01*
X0333987D01*
X0329988Y0089833D02*
X0333987D01*
X0335986Y0091832D02*
X0336986D01*
Y0090832D01*
X0335986D01*
Y0091832D01*
Y0088833D02*
X0336986D01*
Y0087833D01*
X0335986D01*
Y0088833D01*
X0046350Y0073549D02*
Y0067551D01*
X0050349D01*
X0052348D02*
Y0071549D01*
X0054347Y0073549D01*
X0056347Y0071549D01*
Y0067551D01*
Y0070550D01*
X0052348D01*
X0058346Y0073549D02*
Y0072549D01*
X0060346Y0070550D01*
X0062345Y0072549D01*
Y0073549D01*
X0060346Y0070550D02*
Y0067551D01*
X0068343Y0073549D02*
X0064344D01*
Y0067551D01*
X0068343D01*
X0064344Y0070550D02*
X0066343D01*
X0070342Y0067551D02*
Y0073549D01*
X0073341D01*
X0074341Y0072549D01*
Y0070550D01*
X0073341Y0069550D01*
X0070342D01*
X0072342D02*
X0074341Y0067551D01*
X0082338D02*
Y0073549D01*
X0086337Y0067551D01*
Y0073549D01*
X0088336Y0067551D02*
Y0071549D01*
X0090336Y0073549D01*
X0092335Y0071549D01*
Y0067551D01*
Y0070550D01*
X0088336D01*
X0094335Y0067551D02*
Y0073549D01*
X0096334Y0071549D01*
X0098333Y0073549D01*
Y0067551D01*
X0104331Y0073549D02*
X0100332D01*
Y0067551D01*
X0104331D01*
X0100332Y0070550D02*
X0102332D01*
X0112329Y0069550D02*
X0116327D01*
X0112329Y0071549D02*
X0116327D01*
X0046350Y0046966D02*
Y0052965D01*
X0049349D01*
X0050349Y0051965D01*
Y0049966D01*
X0049349Y0048966D01*
X0046350D01*
X0052348Y0052965D02*
Y0046966D01*
X0056347D01*
X0061345Y0052965D02*
X0059346D01*
X0058346Y0051965D01*
Y0047966D01*
X0059346Y0046966D01*
X0061345D01*
X0062345Y0047966D01*
Y0051965D01*
X0061345Y0052965D01*
X0064344D02*
X0068343D01*
X0066343D01*
Y0046966D01*
X0076340D02*
Y0052965D01*
X0080339Y0046966D01*
Y0052965D01*
X0082338Y0046966D02*
Y0050965D01*
X0084338Y0052965D01*
X0086337Y0050965D01*
Y0046966D01*
Y0049966D01*
X0082338D01*
X0088336Y0046966D02*
Y0052965D01*
X0090336Y0050965D01*
X0092335Y0052965D01*
Y0046966D01*
X0098333Y0052965D02*
X0094335D01*
Y0046966D01*
X0098333D01*
X0094335Y0049966D02*
X0096334D01*
X0106331Y0048966D02*
X0110329D01*
X0106331Y0050965D02*
X0110329D01*
X0454050Y0046966D02*
X0456049D01*
X0455050D01*
Y0052965D01*
X0454050Y0051965D01*
X0463047Y0046966D02*
X0459048D01*
X0463047Y0050965D01*
Y0051965D01*
X0462047Y0052965D01*
X0460048D01*
X0459048Y0051965D01*
X0465046Y0050965D02*
X0466046D01*
Y0049966D01*
X0465046D01*
Y0050965D01*
Y0047966D02*
X0466046D01*
Y0046966D01*
X0465046D01*
Y0047966D01*
X0474044Y0046966D02*
X0470045D01*
X0474044Y0050965D01*
Y0051965D01*
X0473044Y0052965D01*
X0471044D01*
X0470045Y0051965D01*
X0476043Y0047966D02*
X0477043Y0046966D01*
X0479042D01*
X0480042Y0047966D01*
Y0051965D01*
X0479042Y0052965D01*
X0477043D01*
X0476043Y0051965D01*
Y0050965D01*
X0477043Y0049966D01*
X0480042D01*
X0482041Y0050965D02*
X0483041D01*
Y0049966D01*
X0482041D01*
Y0050965D01*
Y0047966D02*
X0483041D01*
Y0046966D01*
X0482041D01*
Y0047966D01*
X0491038Y0052965D02*
X0487039D01*
Y0049966D01*
X0489039Y0050965D01*
X0490038D01*
X0491038Y0049966D01*
Y0047966D01*
X0490038Y0046966D01*
X0488039D01*
X0487039Y0047966D01*
X0496036Y0046966D02*
Y0052965D01*
X0493037Y0049966D01*
X0497036D01*
X0505033Y0046966D02*
Y0052965D01*
X0508033D01*
X0509032Y0051965D01*
Y0049966D01*
X0508033Y0048966D01*
X0505033D01*
X0511032Y0046966D02*
Y0052965D01*
X0513031Y0050965D01*
X0515030Y0052965D01*
Y0046966D01*
X0580500Y0052965D02*
X0584499D01*
X0582499D01*
Y0046966D01*
X0590497Y0052965D02*
X0586498D01*
Y0046966D01*
X0590497D01*
X0586498Y0049966D02*
X0588497D01*
X0592496Y0052965D02*
X0596495Y0046966D01*
Y0052965D02*
X0592496Y0046966D01*
X0598494D02*
Y0050965D01*
X0600493Y0052965D01*
X0602493Y0050965D01*
Y0046966D01*
Y0049966D01*
X0598494D01*
X0608491Y0051965D02*
X0607491Y0052965D01*
X0605492D01*
X0604492Y0051965D01*
Y0050965D01*
X0605492Y0049966D01*
X0607491D01*
X0608491Y0048966D01*
Y0047966D01*
X0607491Y0046966D01*
X0605492D01*
X0604492Y0047966D01*
X0616488Y0052965D02*
X0618488D01*
X0617488D01*
Y0046966D01*
X0616488D01*
X0618488D01*
X0621487D02*
Y0052965D01*
X0625486Y0046966D01*
Y0052965D01*
X0631484Y0051965D02*
X0630484Y0052965D01*
X0628484D01*
X0627485Y0051965D01*
Y0050965D01*
X0628484Y0049966D01*
X0630484D01*
X0631484Y0048966D01*
Y0047966D01*
X0630484Y0046966D01*
X0628484D01*
X0627485Y0047966D01*
X0633483Y0052965D02*
X0637482D01*
X0635482D01*
Y0046966D01*
X0639481D02*
Y0052965D01*
X0642480D01*
X0643480Y0051965D01*
Y0049966D01*
X0642480Y0048966D01*
X0639481D01*
X0641480D02*
X0643480Y0046966D01*
X0645479Y0052965D02*
Y0047966D01*
X0646479Y0046966D01*
X0648478D01*
X0649478Y0047966D01*
Y0052965D01*
X0651477Y0046966D02*
Y0052965D01*
X0653476Y0050965D01*
X0655476Y0052965D01*
Y0046966D01*
X0661474Y0052965D02*
X0657475D01*
Y0046966D01*
X0661474D01*
X0657475Y0049966D02*
X0659474D01*
X0663473Y0046966D02*
Y0052965D01*
X0667472Y0046966D01*
Y0052965D01*
X0669471D02*
X0673470D01*
X0671471D01*
Y0046966D01*
X0679468Y0051965D02*
X0678468Y0052965D01*
X0676469D01*
X0675469Y0051965D01*
Y0050965D01*
X0676469Y0049966D01*
X0678468D01*
X0679468Y0048966D01*
Y0047966D01*
X0678468Y0046966D01*
X0676469D01*
X0675469Y0047966D01*
G54D11*
X0497200Y0080717D02*
Y0101050D01*
X0413200Y0080717D02*
Y0101050D01*
X0040000Y0080717D02*
X0700200D01*
X0040000Y0060383D02*
X0700000D01*
X0040000Y0040050D02*
X0440500D01*
X0040050Y0101050D02*
X0700200D01*
X0040050Y0040050D02*
Y0101050D01*
Y0040050D02*
X0197600D01*
X0040000D02*
Y0101050D01*
X0286500Y0040050D02*
Y0101050D01*
X0700200Y0040050D02*
Y0101050D01*
X0440500Y0040050D02*
X0700200D01*
X0559400Y0039400D02*
Y0059683D01*
G54D21*
X0548877Y0447236D02*
Y0455110D01*
X0588247D01*
X0588247D02*
X0627617D01*
X0666987D01*
X0706357D01*
X0706357Y0455113D02*
X0745727D01*
X0785097D01*
X0824467D01*
X0863837D01*
X0824467Y0447236D02*
X0863837D01*
Y0455113D01*
X0785097Y0447236D02*
X0824467D01*
Y0455113D01*
X0785097Y0447236D02*
Y0455113D01*
X0745727Y0447236D02*
X0785097D01*
X0706357D02*
X0745727D01*
X0666987D02*
X0706357D01*
X0627617D02*
X0666987D01*
X0588247D02*
X0627617D01*
Y0455110D01*
X0588247Y0447236D02*
Y0455110D01*
X0666987Y0447236D02*
Y0455110D01*
X0745727Y0447236D02*
Y0455113D01*
X0706357Y0447236D02*
Y0455110D01*
X0548877Y0447236D02*
X0588247D01*
G54D22*
X0875550Y0453203D02*
Y0449205D01*
X0878216D01*
X0879549D02*
X0880882D01*
X0880215D01*
Y0451871D01*
X0879549D01*
X0885547Y0447872D02*
Y0451871D01*
X0883547D01*
X0882881Y0451204D01*
Y0449871D01*
X0883547Y0449205D01*
X0885547D01*
X0886880Y0451871D02*
Y0449871D01*
X0887546Y0449205D01*
X0889545D01*
Y0451871D01*
X0890878Y0449205D02*
X0892211D01*
X0891545D01*
Y0451871D01*
X0890878D01*
X0896876Y0453203D02*
Y0449205D01*
X0894877D01*
X0894211Y0449871D01*
Y0451204D01*
X0894877Y0451871D01*
X0896876D01*
X0902208Y0453203D02*
Y0449205D01*
Y0451204D01*
X0904874D01*
Y0453203D01*
Y0449205D01*
X0908206D02*
X0906873D01*
X0906207Y0449871D01*
Y0451204D01*
X0906873Y0451871D01*
X0908206D01*
X0908873Y0451204D01*
Y0450538D01*
X0906207D01*
X0910205Y0449205D02*
X0911538D01*
X0910872D01*
Y0451871D01*
X0910205D01*
X0914871Y0447872D02*
X0915537D01*
X0916203Y0448538D01*
Y0451871D01*
X0914204D01*
X0913538Y0451204D01*
Y0449871D01*
X0914204Y0449205D01*
X0916203D01*
X0917536Y0453203D02*
Y0449205D01*
Y0451204D01*
X0918203Y0451871D01*
X0919536D01*
X0920202Y0451204D01*
Y0449205D01*
X0922202Y0452537D02*
Y0451871D01*
X0921535D01*
X0922868D01*
X0922202D01*
Y0449871D01*
X0922868Y0449205D01*
X0865806Y0452146D02*
X0866472Y0452813D01*
X0867805D01*
X0868472Y0452146D01*
Y0451480D01*
X0867805Y0450813D01*
X0868472Y0450147D01*
Y0449481D01*
X0867805Y0448814D01*
X0866472D01*
X0865806Y0449481D01*
Y0450147D01*
X0866472Y0450813D01*
X0865806Y0451480D01*
Y0452146D01*
X0866472Y0450813D02*
X0867805D01*
X0826436Y0452813D02*
X0829101D01*
Y0452146D01*
X0826436Y0449481D01*
Y0448814D01*
X0789732Y0452813D02*
X0788399Y0452146D01*
X0787066Y0450813D01*
Y0449481D01*
X0787732Y0448814D01*
X0789065D01*
X0789732Y0449481D01*
Y0450147D01*
X0789065Y0450813D01*
X0787066D01*
X0750361Y0453206D02*
X0747696D01*
Y0451207D01*
X0749028Y0451874D01*
X0749695D01*
X0750361Y0451207D01*
Y0449874D01*
X0749695Y0449208D01*
X0748362D01*
X0747696Y0449874D01*
X0710325Y0449208D02*
Y0453206D01*
X0708325Y0451207D01*
X0710991D01*
X0668955Y0452540D02*
X0669622Y0453206D01*
X0670955D01*
X0671621Y0452540D01*
Y0451874D01*
X0670955Y0451207D01*
X0670288D01*
X0670955D01*
X0671621Y0450541D01*
Y0449874D01*
X0670955Y0449208D01*
X0669622D01*
X0668955Y0449874D01*
X0632251Y0449208D02*
X0629585D01*
X0632251Y0451874D01*
Y0452540D01*
X0631585Y0453206D01*
X0630252D01*
X0629585Y0452540D01*
X0590215Y0449208D02*
X0591548D01*
X0590882D01*
Y0453206D01*
X0590215Y0452540D01*
X0550845D02*
X0551512Y0453206D01*
X0552844D01*
X0553511Y0452540D01*
Y0449874D01*
X0552844Y0449208D01*
X0551512D01*
X0550845Y0449874D01*
Y0452540D01*
X0383916Y0440176D02*
X0386582D01*
X0385249D01*
Y0436177D01*
X0387915Y0440176D02*
X0389248D01*
X0388581D01*
Y0436177D01*
X0387915D01*
X0389248D01*
X0391247Y0440176D02*
Y0436177D01*
X0393246D01*
X0393913Y0436844D01*
Y0439509D01*
X0393246Y0440176D01*
X0391247D01*
X0395246Y0436177D02*
Y0438843D01*
X0396579Y0440176D01*
X0397912Y0438843D01*
Y0436177D01*
Y0438177D01*
X0395246D01*
X0399244D02*
X0401910D01*
X0403243Y0439509D02*
X0403910Y0440176D01*
X0405242D01*
X0405909Y0439509D01*
Y0436844D01*
X0405242Y0436177D01*
X0403910D01*
X0403243Y0436844D01*
Y0439509D01*
X0407242D02*
X0407908Y0440176D01*
X0409241D01*
X0409908Y0439509D01*
Y0436844D01*
X0409241Y0436177D01*
X0407908D01*
X0407242Y0436844D01*
Y0439509D01*
X0411241D02*
X0411907Y0440176D01*
X0413240D01*
X0413906Y0439509D01*
Y0438843D01*
X0413240Y0438177D01*
X0412573D01*
X0413240D01*
X0413906Y0437510D01*
Y0436844D01*
X0413240Y0436177D01*
X0411907D01*
X0411241Y0436844D01*
X0415239Y0436177D02*
X0416572D01*
X0415906D01*
Y0440176D01*
X0415239Y0439509D01*
X0418572Y0440176D02*
X0421237D01*
Y0439509D01*
X0418572Y0436844D01*
Y0436177D01*
X0597416Y0443677D02*
X0601415D01*
Y0441678D01*
X0600748Y0441011D01*
X0599415D01*
X0598749Y0441678D01*
Y0443677D01*
Y0442344D02*
X0597416Y0441011D01*
Y0437679D02*
Y0439012D01*
X0598082Y0439678D01*
X0599415D01*
X0600082Y0439012D01*
Y0437679D01*
X0599415Y0437013D01*
X0598749D01*
Y0439678D01*
X0597416Y0435013D02*
X0600748D01*
X0599415D01*
Y0435680D01*
Y0434347D01*
Y0435013D01*
X0600748D01*
X0601415Y0434347D01*
X0597416Y0430348D02*
Y0431681D01*
X0598082Y0432347D01*
X0599415D01*
X0600082Y0431681D01*
Y0430348D01*
X0599415Y0429682D01*
X0598749D01*
Y0432347D01*
X0600082Y0428349D02*
X0597416D01*
X0598749D01*
X0599415Y0427682D01*
X0600082Y0427016D01*
Y0426349D01*
X0597416Y0422351D02*
Y0423684D01*
X0598082Y0424350D01*
X0599415D01*
X0600082Y0423684D01*
Y0422351D01*
X0599415Y0421684D01*
X0598749D01*
Y0424350D01*
X0597416Y0420351D02*
X0600082D01*
Y0418352D01*
X0599415Y0417686D01*
X0597416D01*
X0600082Y0413687D02*
Y0415686D01*
X0599415Y0416353D01*
X0598082D01*
X0597416Y0415686D01*
Y0413687D01*
Y0410355D02*
Y0411688D01*
X0598082Y0412354D01*
X0599415D01*
X0600082Y0411688D01*
Y0410355D01*
X0599415Y0409688D01*
X0598749D01*
Y0412354D01*
X0896313Y0442005D02*
X0900312D01*
Y0440006D01*
X0899645Y0439339D01*
X0898312D01*
X0897646Y0440006D01*
Y0442005D01*
Y0440672D02*
X0896313Y0439339D01*
Y0436007D02*
Y0437340D01*
X0896979Y0438006D01*
X0898312D01*
X0898979Y0437340D01*
Y0436007D01*
X0898312Y0435341D01*
X0897646D01*
Y0438006D01*
X0896313Y0433341D02*
X0899645D01*
X0898312D01*
Y0434008D01*
Y0432675D01*
Y0433341D01*
X0899645D01*
X0900312Y0432675D01*
X0896313Y0428676D02*
Y0430009D01*
X0896979Y0430675D01*
X0898312D01*
X0898979Y0430009D01*
Y0428676D01*
X0898312Y0428010D01*
X0897646D01*
Y0430675D01*
X0898979Y0426677D02*
X0896313D01*
X0897646D01*
X0898312Y0426010D01*
X0898979Y0425344D01*
Y0424677D01*
X0896313Y0420679D02*
Y0422012D01*
X0896979Y0422678D01*
X0898312D01*
X0898979Y0422012D01*
Y0420679D01*
X0898312Y0420012D01*
X0897646D01*
Y0422678D01*
X0896313Y0418679D02*
X0898979D01*
Y0416680D01*
X0898312Y0416013D01*
X0896313D01*
X0898979Y0412015D02*
Y0414014D01*
X0898312Y0414681D01*
X0896979D01*
X0896313Y0414014D01*
Y0412015D01*
Y0408682D02*
Y0410015D01*
X0896979Y0410682D01*
X0898312D01*
X0898979Y0410015D01*
Y0408682D01*
X0898312Y0408016D01*
X0897646D01*
Y0410682D01*
X0892915Y0439511D02*
Y0442177D01*
X0888916D01*
Y0439511D01*
X0890915Y0442177D02*
Y0440844D01*
X0888916Y0438178D02*
X0891582D01*
Y0436179D01*
X0890915Y0435513D01*
X0888916D01*
X0891582Y0434180D02*
X0888916Y0432847D01*
X0891582Y0431514D01*
X0888916Y0430181D02*
Y0428848D01*
Y0429515D01*
X0891582D01*
Y0430181D01*
Y0426849D02*
X0888916D01*
X0890249D01*
X0890915Y0426182D01*
X0891582Y0425516D01*
Y0424850D01*
X0888916Y0422184D02*
Y0420851D01*
X0889583Y0420184D01*
X0890915D01*
X0891582Y0420851D01*
Y0422184D01*
X0890915Y0422850D01*
X0889583D01*
X0888916Y0422184D01*
Y0418851D02*
X0891582D01*
Y0416852D01*
X0890915Y0416186D01*
X0888916D01*
Y0414853D02*
X0891582D01*
Y0414186D01*
X0890915Y0413520D01*
X0888916D01*
X0890915D01*
X0891582Y0412853D01*
X0890915Y0412187D01*
X0888916D01*
Y0408855D02*
Y0410187D01*
X0889583Y0410854D01*
X0890915D01*
X0891582Y0410187D01*
Y0408855D01*
X0890915Y0408188D01*
X0890249D01*
Y0410854D01*
X0888916Y0406855D02*
X0891582D01*
Y0404856D01*
X0890915Y0404189D01*
X0888916D01*
X0892248Y0402190D02*
X0891582D01*
Y0402857D01*
Y0401524D01*
Y0402190D01*
X0889583D01*
X0888916Y0401524D01*
X0594630Y0437922D02*
X0590632D01*
Y0435257D01*
Y0433924D02*
Y0432591D01*
Y0433257D01*
X0593298D01*
Y0433924D01*
X0589299Y0427926D02*
X0593298D01*
Y0429925D01*
X0592631Y0430591D01*
X0591298D01*
X0590632Y0429925D01*
Y0427926D01*
X0593298Y0426593D02*
X0591298D01*
X0590632Y0425926D01*
Y0423927D01*
X0593298D01*
X0590632Y0422594D02*
Y0421261D01*
Y0421928D01*
X0593298D01*
Y0422594D01*
X0594630Y0416596D02*
X0590632D01*
Y0418595D01*
X0591298Y0419262D01*
X0592631D01*
X0593298Y0418595D01*
Y0416596D01*
X0870415Y0483177D02*
X0866416D01*
Y0480511D01*
Y0477179D02*
Y0478512D01*
X0867083Y0479178D01*
X0868415D01*
X0869082Y0478512D01*
Y0477179D01*
X0868415Y0476513D01*
X0867749D01*
Y0479178D01*
X0869082Y0475180D02*
X0866416Y0473847D01*
X0869082Y0472514D01*
X0866416Y0469182D02*
Y0470515D01*
X0867083Y0471181D01*
X0868415D01*
X0869082Y0470515D01*
Y0469182D01*
X0868415Y0468515D01*
X0867749D01*
Y0471181D01*
X0866416Y0467182D02*
Y0465849D01*
Y0466516D01*
X0870415D01*
Y0467182D01*
M02*
