%FSAX25Y25*%
%MOIN*%
G70*
G01*
G75*
G04 Layer_Color=2752767*
%ADD10C,0.00800*%
%ADD11C,0.01000*%
%ADD12R,0.05500X0.03800*%
%ADD13O,0.05500X0.03800*%
%ADD14C,0.02000*%
%ADD15C,0.01200*%
%ADD16R,0.39370X0.23622*%
%ADD17R,3.14961X0.23622*%
%ADD18C,0.02000*%
%ADD19R,4.01575X0.31496*%
%ADD20R,4.01575X0.31496*%
%ADD21C,0.00701*%
%ADD22C,0.00700*%
%ADD23R,0.06100X0.04400*%
%ADD24O,0.06100X0.04400*%
%ADD25C,0.00709*%
%ADD26C,0.00600*%
%ADD27R,0.12500X0.12500*%
%ADD28R,0.37500X0.12500*%
%ADD29C,0.00500*%
%ADD30C,0.00667*%
%ADD31C,0.01600*%
G54D10*
X0567400Y0087833D02*
Y0093831D01*
X0571399Y0087833D01*
Y0093831D01*
X0574398Y0087833D02*
X0576397D01*
X0577397Y0088833D01*
Y0090832D01*
X0576397Y0091832D01*
X0574398D01*
X0573398Y0090832D01*
Y0088833D01*
X0574398Y0087833D01*
X0580396Y0092832D02*
Y0091832D01*
X0579396D01*
X0581395D01*
X0580396D01*
Y0088833D01*
X0581395Y0087833D01*
X0590393Y0093831D02*
X0592392D01*
X0591392D01*
Y0087833D01*
X0590393D01*
X0592392D01*
X0595391D02*
Y0091832D01*
X0598390D01*
X0599390Y0090832D01*
Y0087833D01*
X0607387Y0093831D02*
Y0089833D01*
X0609386Y0087833D01*
X0611386Y0089833D01*
Y0093831D01*
X0616384Y0087833D02*
X0614385D01*
X0613385Y0088833D01*
Y0090832D01*
X0614385Y0091832D01*
X0616384D01*
X0617384Y0090832D01*
Y0089833D01*
X0613385D01*
X0619383Y0091832D02*
Y0087833D01*
Y0089833D01*
X0620383Y0090832D01*
X0621383Y0091832D01*
X0622382D01*
X0625381Y0087833D02*
X0628380D01*
X0629380Y0088833D01*
X0628380Y0089833D01*
X0626381D01*
X0625381Y0090832D01*
X0626381Y0091832D01*
X0629380D01*
X0631379Y0087833D02*
X0633379D01*
X0632379D01*
Y0091832D01*
X0631379D01*
X0637377Y0087833D02*
X0639377D01*
X0640376Y0088833D01*
Y0090832D01*
X0639377Y0091832D01*
X0637377D01*
X0636378Y0090832D01*
Y0088833D01*
X0637377Y0087833D01*
X0642376D02*
Y0091832D01*
X0645375D01*
X0646374Y0090832D01*
Y0087833D01*
X0652373Y0092832D02*
X0651373Y0093831D01*
X0649373D01*
X0648374Y0092832D01*
Y0088833D01*
X0649373Y0087833D01*
X0651373D01*
X0652373Y0088833D01*
X0655372Y0087833D02*
X0657371D01*
X0658371Y0088833D01*
Y0090832D01*
X0657371Y0091832D01*
X0655372D01*
X0654372Y0090832D01*
Y0088833D01*
X0655372Y0087833D01*
X0660370D02*
Y0091832D01*
X0663369D01*
X0664369Y0090832D01*
Y0087833D01*
X0667368Y0092832D02*
Y0091832D01*
X0666368D01*
X0668367D01*
X0667368D01*
Y0088833D01*
X0668367Y0087833D01*
X0671366Y0091832D02*
Y0087833D01*
Y0089833D01*
X0672366Y0090832D01*
X0673366Y0091832D01*
X0674365D01*
X0678364Y0087833D02*
X0680364D01*
X0681363Y0088833D01*
Y0090832D01*
X0680364Y0091832D01*
X0678364D01*
X0677364Y0090832D01*
Y0088833D01*
X0678364Y0087833D01*
X0683362D02*
X0685362D01*
X0684362D01*
Y0093831D01*
X0683362D01*
X0520799Y0092832D02*
X0519799Y0093831D01*
X0517800D01*
X0516800Y0092832D01*
Y0091832D01*
X0517800Y0090832D01*
X0519799D01*
X0520799Y0089833D01*
Y0088833D01*
X0519799Y0087833D01*
X0517800D01*
X0516800Y0088833D01*
X0522798Y0093831D02*
Y0089833D01*
X0524797Y0087833D01*
X0526797Y0089833D01*
Y0093831D01*
X0528796Y0087833D02*
Y0093831D01*
X0532795Y0087833D01*
Y0093831D01*
X0540792Y0087833D02*
Y0093831D01*
X0543791D01*
X0544791Y0092832D01*
Y0090832D01*
X0543791Y0089833D01*
X0540792D01*
X0542792D02*
X0544791Y0087833D01*
X0550789Y0093831D02*
X0546790D01*
Y0087833D01*
X0550789D01*
X0546790Y0090832D02*
X0548790D01*
X0552788Y0093831D02*
Y0089833D01*
X0554788Y0087833D01*
X0556787Y0089833D01*
Y0093831D01*
X0558786Y0091832D02*
X0559786D01*
Y0090832D01*
X0558786D01*
Y0091832D01*
Y0088833D02*
X0559786D01*
Y0087833D01*
X0558786D01*
Y0088833D01*
X0433000Y0087833D02*
Y0093831D01*
X0435999D01*
X0436999Y0092832D01*
Y0090832D01*
X0435999Y0089833D01*
X0433000D01*
X0434999D02*
X0436999Y0087833D01*
X0442997Y0093831D02*
X0438998D01*
Y0087833D01*
X0442997D01*
X0438998Y0090832D02*
X0440997D01*
X0444996Y0093831D02*
Y0089833D01*
X0446995Y0087833D01*
X0448995Y0089833D01*
Y0093831D01*
X0450994Y0091832D02*
X0451994D01*
Y0090832D01*
X0450994D01*
Y0091832D01*
Y0088833D02*
X0451994D01*
Y0087833D01*
X0450994D01*
Y0088833D01*
X0126900Y0052965D02*
X0130899D01*
X0128899D01*
Y0046966D01*
X0132898Y0052965D02*
X0134897D01*
X0133898D01*
Y0046966D01*
X0132898D01*
X0134897D01*
X0137896Y0052965D02*
Y0046966D01*
X0140895D01*
X0141895Y0047966D01*
Y0051965D01*
X0140895Y0052965D01*
X0137896D01*
X0143895Y0046966D02*
Y0050965D01*
X0145894Y0052965D01*
X0147893Y0050965D01*
Y0046966D01*
Y0049966D01*
X0143895D01*
X0149893Y0045967D02*
X0153891D01*
X0155891Y0051965D02*
X0156890Y0052965D01*
X0158890D01*
X0159889Y0051965D01*
Y0047966D01*
X0158890Y0046966D01*
X0156890D01*
X0155891Y0047966D01*
Y0051965D01*
X0161889D02*
X0162888Y0052965D01*
X0164888D01*
X0165887Y0051965D01*
Y0047966D01*
X0164888Y0046966D01*
X0162888D01*
X0161889Y0047966D01*
Y0051965D01*
X0167887D02*
X0168886Y0052965D01*
X0170886D01*
X0171885Y0051965D01*
Y0050965D01*
X0170886Y0049966D01*
X0169886D01*
X0170886D01*
X0171885Y0048966D01*
Y0047966D01*
X0170886Y0046966D01*
X0168886D01*
X0167887Y0047966D01*
X0173885Y0046966D02*
X0175884D01*
X0174884D01*
Y0052965D01*
X0173885Y0051965D01*
X0178883Y0052965D02*
X0182882D01*
Y0051965D01*
X0178883Y0047966D01*
Y0046966D01*
X0184881D02*
Y0047966D01*
X0185881D01*
Y0046966D01*
X0184881D01*
X0193878Y0051965D02*
X0192879Y0052965D01*
X0190879D01*
X0189880Y0051965D01*
Y0047966D01*
X0190879Y0046966D01*
X0192879D01*
X0193878Y0047966D01*
Y0049966D01*
X0191879D01*
X0195878Y0052965D02*
Y0046966D01*
X0198877D01*
X0199876Y0047966D01*
Y0051965D01*
X0198877Y0052965D01*
X0195878D01*
X0201876Y0046966D02*
X0203875D01*
X0202875D01*
Y0052965D01*
X0201876Y0051965D01*
X0381150Y0046966D02*
X0383149D01*
X0382150D01*
Y0052965D01*
X0381150Y0051965D01*
X0386148Y0046966D02*
X0390147Y0050965D01*
X0392146Y0046966D02*
X0394146D01*
X0393146D01*
Y0052965D01*
X0392146Y0051965D01*
X0401144Y0046966D02*
X0397145D01*
X0401144Y0050965D01*
Y0051965D01*
X0400144Y0052965D01*
X0398145D01*
X0397145Y0051965D01*
X0403143Y0046966D02*
X0407142Y0050965D01*
X0413140Y0046966D02*
X0409141D01*
X0413140Y0050965D01*
Y0051965D01*
X0412140Y0052965D01*
X0410141D01*
X0409141Y0051965D01*
X0415139D02*
X0416139Y0052965D01*
X0418138D01*
X0419138Y0051965D01*
Y0047966D01*
X0418138Y0046966D01*
X0416139D01*
X0415139Y0047966D01*
Y0051965D01*
X0421137Y0046966D02*
X0423136D01*
X0422137D01*
Y0052965D01*
X0421137Y0051965D01*
X0430134Y0052965D02*
X0426135D01*
Y0049966D01*
X0428135Y0050965D01*
X0429135D01*
X0430134Y0049966D01*
Y0047966D01*
X0429135Y0046966D01*
X0427135D01*
X0426135Y0047966D01*
X0298199Y0051965D02*
X0297199Y0052965D01*
X0295200D01*
X0294200Y0051965D01*
Y0047966D01*
X0295200Y0046966D01*
X0297199D01*
X0298199Y0047966D01*
Y0049966D01*
X0296199D01*
X0304197Y0052965D02*
X0300198D01*
Y0046966D01*
X0304197D01*
X0300198Y0049966D02*
X0302197D01*
X0306196Y0046966D02*
Y0052965D01*
X0310195Y0046966D01*
Y0052965D01*
X0316193D02*
X0312194D01*
Y0046966D01*
X0316193D01*
X0312194Y0049966D02*
X0314194D01*
X0318192Y0046966D02*
Y0052965D01*
X0321191D01*
X0322191Y0051965D01*
Y0049966D01*
X0321191Y0048966D01*
X0318192D01*
X0320192D02*
X0322191Y0046966D01*
X0324190D02*
Y0050965D01*
X0326190Y0052965D01*
X0328189Y0050965D01*
Y0046966D01*
Y0049966D01*
X0324190D01*
X0330188Y0052965D02*
X0334187D01*
X0332188D01*
Y0046966D01*
X0340185Y0052965D02*
X0336186D01*
Y0046966D01*
X0340185D01*
X0336186Y0049966D02*
X0338186D01*
X0342184Y0052965D02*
Y0046966D01*
X0345183D01*
X0346183Y0047966D01*
Y0051965D01*
X0345183Y0052965D01*
X0342184D01*
X0372175Y0050965D02*
X0373175D01*
Y0049966D01*
X0372175D01*
Y0050965D01*
Y0047966D02*
X0373175D01*
Y0046966D01*
X0372175D01*
Y0047966D01*
X0046350Y0087833D02*
Y0091832D01*
X0048349Y0093831D01*
X0050349Y0091832D01*
Y0087833D01*
Y0090832D01*
X0046350D01*
X0052348Y0093831D02*
Y0087833D01*
X0056347D01*
X0058346Y0093831D02*
Y0087833D01*
X0062345D01*
X0070342D02*
Y0091832D01*
X0072342Y0093831D01*
X0074341Y0091832D01*
Y0087833D01*
Y0090832D01*
X0070342D01*
X0076340Y0087833D02*
Y0093831D01*
X0079339D01*
X0080339Y0092832D01*
Y0090832D01*
X0079339Y0089833D01*
X0076340D01*
X0078340D02*
X0080339Y0087833D01*
X0082338Y0093831D02*
X0086337D01*
X0084338D01*
Y0087833D01*
X0088336Y0093831D02*
Y0087833D01*
X0090336Y0089833D01*
X0092335Y0087833D01*
Y0093831D01*
X0097334D02*
X0095334D01*
X0094335Y0092832D01*
Y0088833D01*
X0095334Y0087833D01*
X0097334D01*
X0098333Y0088833D01*
Y0092832D01*
X0097334Y0093831D01*
X0100332Y0087833D02*
Y0093831D01*
X0103332D01*
X0104331Y0092832D01*
Y0090832D01*
X0103332Y0089833D01*
X0100332D01*
X0102332D02*
X0104331Y0087833D01*
X0106331Y0093831D02*
Y0087833D01*
Y0089833D01*
X0110329Y0093831D01*
X0107330Y0090832D01*
X0110329Y0087833D01*
X0118327Y0093831D02*
Y0089833D01*
X0120326Y0087833D01*
X0122325Y0089833D01*
Y0093831D01*
X0124325D02*
X0126324D01*
X0125324D01*
Y0087833D01*
X0124325D01*
X0126324D01*
X0133322Y0093831D02*
X0129323D01*
Y0087833D01*
X0133322D01*
X0129323Y0090832D02*
X0131323D01*
X0135321Y0093831D02*
Y0087833D01*
X0137321Y0089833D01*
X0139320Y0087833D01*
Y0093831D01*
X0145318D02*
X0141319D01*
Y0087833D01*
X0145318D01*
X0141319Y0090832D02*
X0143319D01*
X0147317Y0093831D02*
Y0087833D01*
X0150316D01*
X0151316Y0088833D01*
Y0092832D01*
X0150316Y0093831D01*
X0147317D01*
X0163312D02*
X0159313D01*
Y0090832D01*
X0161313D01*
X0159313D01*
Y0087833D01*
X0165312D02*
Y0093831D01*
X0168310D01*
X0169310Y0092832D01*
Y0090832D01*
X0168310Y0089833D01*
X0165312D01*
X0167311D02*
X0169310Y0087833D01*
X0174309Y0093831D02*
X0172309D01*
X0171310Y0092832D01*
Y0088833D01*
X0172309Y0087833D01*
X0174309D01*
X0175308Y0088833D01*
Y0092832D01*
X0174309Y0093831D01*
X0177308Y0087833D02*
Y0093831D01*
X0179307Y0091832D01*
X0181306Y0093831D01*
Y0087833D01*
X0189304Y0093831D02*
X0193303D01*
X0191303D01*
Y0087833D01*
X0198301Y0093831D02*
X0196301D01*
X0195302Y0092832D01*
Y0088833D01*
X0196301Y0087833D01*
X0198301D01*
X0199301Y0088833D01*
Y0092832D01*
X0198301Y0093831D01*
X0201300Y0087833D02*
Y0093831D01*
X0204299D01*
X0205299Y0092832D01*
Y0090832D01*
X0204299Y0089833D01*
X0201300D01*
X0217295Y0092832D02*
X0216295Y0093831D01*
X0214296D01*
X0213296Y0092832D01*
Y0091832D01*
X0214296Y0090832D01*
X0216295D01*
X0217295Y0089833D01*
Y0088833D01*
X0216295Y0087833D01*
X0214296D01*
X0213296Y0088833D01*
X0219294Y0093831D02*
X0221293D01*
X0220294D01*
Y0087833D01*
X0219294D01*
X0221293D01*
X0224292Y0093831D02*
Y0087833D01*
X0227291D01*
X0228291Y0088833D01*
Y0092832D01*
X0227291Y0093831D01*
X0224292D01*
X0234289D02*
X0230291D01*
Y0087833D01*
X0234289D01*
X0230291Y0090832D02*
X0232290D01*
X0462150Y0087833D02*
Y0091832D01*
X0464149Y0093831D01*
X0466149Y0091832D01*
Y0087833D01*
Y0090832D01*
X0462150D01*
X0294000Y0093831D02*
Y0087833D01*
X0296999D01*
X0297999Y0088833D01*
Y0089833D01*
X0296999Y0090832D01*
X0294000D01*
X0296999D01*
X0297999Y0091832D01*
Y0092832D01*
X0296999Y0093831D01*
X0294000D01*
X0302997D02*
X0300998D01*
X0299998Y0092832D01*
Y0088833D01*
X0300998Y0087833D01*
X0302997D01*
X0303997Y0088833D01*
Y0092832D01*
X0302997Y0093831D01*
X0305996Y0087833D02*
Y0091832D01*
X0307996Y0093831D01*
X0309995Y0091832D01*
Y0087833D01*
Y0090832D01*
X0305996D01*
X0311994Y0087833D02*
Y0093831D01*
X0314993D01*
X0315993Y0092832D01*
Y0090832D01*
X0314993Y0089833D01*
X0311994D01*
X0313994D02*
X0315993Y0087833D01*
X0317992Y0093831D02*
Y0087833D01*
X0320991D01*
X0321991Y0088833D01*
Y0092832D01*
X0320991Y0093831D01*
X0317992D01*
X0330988Y0087833D02*
Y0093831D01*
X0332987D02*
Y0087833D01*
X0329988Y0091832D02*
X0332987D01*
X0333987D01*
X0329988Y0089833D02*
X0333987D01*
X0335986Y0091832D02*
X0336986D01*
Y0090832D01*
X0335986D01*
Y0091832D01*
Y0088833D02*
X0336986D01*
Y0087833D01*
X0335986D01*
Y0088833D01*
X0046350Y0073549D02*
Y0067551D01*
X0050349D01*
X0052348D02*
Y0071549D01*
X0054347Y0073549D01*
X0056347Y0071549D01*
Y0067551D01*
Y0070550D01*
X0052348D01*
X0058346Y0073549D02*
Y0072549D01*
X0060346Y0070550D01*
X0062345Y0072549D01*
Y0073549D01*
X0060346Y0070550D02*
Y0067551D01*
X0068343Y0073549D02*
X0064344D01*
Y0067551D01*
X0068343D01*
X0064344Y0070550D02*
X0066343D01*
X0070342Y0067551D02*
Y0073549D01*
X0073341D01*
X0074341Y0072549D01*
Y0070550D01*
X0073341Y0069550D01*
X0070342D01*
X0072342D02*
X0074341Y0067551D01*
X0082338D02*
Y0073549D01*
X0086337Y0067551D01*
Y0073549D01*
X0088336Y0067551D02*
Y0071549D01*
X0090336Y0073549D01*
X0092335Y0071549D01*
Y0067551D01*
Y0070550D01*
X0088336D01*
X0094335Y0067551D02*
Y0073549D01*
X0096334Y0071549D01*
X0098333Y0073549D01*
Y0067551D01*
X0104331Y0073549D02*
X0100332D01*
Y0067551D01*
X0104331D01*
X0100332Y0070550D02*
X0102332D01*
X0112329Y0069550D02*
X0116327D01*
X0112329Y0071549D02*
X0116327D01*
X0046350Y0046966D02*
Y0052965D01*
X0049349D01*
X0050349Y0051965D01*
Y0049966D01*
X0049349Y0048966D01*
X0046350D01*
X0052348Y0052965D02*
Y0046966D01*
X0056347D01*
X0061345Y0052965D02*
X0059346D01*
X0058346Y0051965D01*
Y0047966D01*
X0059346Y0046966D01*
X0061345D01*
X0062345Y0047966D01*
Y0051965D01*
X0061345Y0052965D01*
X0064344D02*
X0068343D01*
X0066343D01*
Y0046966D01*
X0076340D02*
Y0052965D01*
X0080339Y0046966D01*
Y0052965D01*
X0082338Y0046966D02*
Y0050965D01*
X0084338Y0052965D01*
X0086337Y0050965D01*
Y0046966D01*
Y0049966D01*
X0082338D01*
X0088336Y0046966D02*
Y0052965D01*
X0090336Y0050965D01*
X0092335Y0052965D01*
Y0046966D01*
X0098333Y0052965D02*
X0094335D01*
Y0046966D01*
X0098333D01*
X0094335Y0049966D02*
X0096334D01*
X0106331Y0048966D02*
X0110329D01*
X0106331Y0050965D02*
X0110329D01*
X0454050Y0046966D02*
X0456049D01*
X0455050D01*
Y0052965D01*
X0454050Y0051965D01*
X0463047Y0046966D02*
X0459048D01*
X0463047Y0050965D01*
Y0051965D01*
X0462047Y0052965D01*
X0460048D01*
X0459048Y0051965D01*
X0465046Y0050965D02*
X0466046D01*
Y0049966D01*
X0465046D01*
Y0050965D01*
Y0047966D02*
X0466046D01*
Y0046966D01*
X0465046D01*
Y0047966D01*
X0474044Y0046966D02*
X0470045D01*
X0474044Y0050965D01*
Y0051965D01*
X0473044Y0052965D01*
X0471044D01*
X0470045Y0051965D01*
X0476043Y0047966D02*
X0477043Y0046966D01*
X0479042D01*
X0480042Y0047966D01*
Y0051965D01*
X0479042Y0052965D01*
X0477043D01*
X0476043Y0051965D01*
Y0050965D01*
X0477043Y0049966D01*
X0480042D01*
X0482041Y0050965D02*
X0483041D01*
Y0049966D01*
X0482041D01*
Y0050965D01*
Y0047966D02*
X0483041D01*
Y0046966D01*
X0482041D01*
Y0047966D01*
X0491038Y0052965D02*
X0487039D01*
Y0049966D01*
X0489039Y0050965D01*
X0490038D01*
X0491038Y0049966D01*
Y0047966D01*
X0490038Y0046966D01*
X0488039D01*
X0487039Y0047966D01*
X0497036Y0052965D02*
X0495037Y0051965D01*
X0493037Y0049966D01*
Y0047966D01*
X0494037Y0046966D01*
X0496036D01*
X0497036Y0047966D01*
Y0048966D01*
X0496036Y0049966D01*
X0493037D01*
X0505033Y0046966D02*
Y0052965D01*
X0508033D01*
X0509032Y0051965D01*
Y0049966D01*
X0508033Y0048966D01*
X0505033D01*
X0511032Y0046966D02*
Y0052965D01*
X0513031Y0050965D01*
X0515030Y0052965D01*
Y0046966D01*
X0580500Y0052965D02*
X0584499D01*
X0582499D01*
Y0046966D01*
X0590497Y0052965D02*
X0586498D01*
Y0046966D01*
X0590497D01*
X0586498Y0049966D02*
X0588497D01*
X0592496Y0052965D02*
X0596495Y0046966D01*
Y0052965D02*
X0592496Y0046966D01*
X0598494D02*
Y0050965D01*
X0600493Y0052965D01*
X0602493Y0050965D01*
Y0046966D01*
Y0049966D01*
X0598494D01*
X0608491Y0051965D02*
X0607491Y0052965D01*
X0605492D01*
X0604492Y0051965D01*
Y0050965D01*
X0605492Y0049966D01*
X0607491D01*
X0608491Y0048966D01*
Y0047966D01*
X0607491Y0046966D01*
X0605492D01*
X0604492Y0047966D01*
X0616488Y0052965D02*
X0618488D01*
X0617488D01*
Y0046966D01*
X0616488D01*
X0618488D01*
X0621487D02*
Y0052965D01*
X0625486Y0046966D01*
Y0052965D01*
X0631484Y0051965D02*
X0630484Y0052965D01*
X0628484D01*
X0627485Y0051965D01*
Y0050965D01*
X0628484Y0049966D01*
X0630484D01*
X0631484Y0048966D01*
Y0047966D01*
X0630484Y0046966D01*
X0628484D01*
X0627485Y0047966D01*
X0633483Y0052965D02*
X0637482D01*
X0635482D01*
Y0046966D01*
X0639481D02*
Y0052965D01*
X0642480D01*
X0643480Y0051965D01*
Y0049966D01*
X0642480Y0048966D01*
X0639481D01*
X0641480D02*
X0643480Y0046966D01*
X0645479Y0052965D02*
Y0047966D01*
X0646479Y0046966D01*
X0648478D01*
X0649478Y0047966D01*
Y0052965D01*
X0651477Y0046966D02*
Y0052965D01*
X0653476Y0050965D01*
X0655476Y0052965D01*
Y0046966D01*
X0661474Y0052965D02*
X0657475D01*
Y0046966D01*
X0661474D01*
X0657475Y0049966D02*
X0659474D01*
X0663473Y0046966D02*
Y0052965D01*
X0667472Y0046966D01*
Y0052965D01*
X0669471D02*
X0673470D01*
X0671471D01*
Y0046966D01*
X0679468Y0051965D02*
X0678468Y0052965D01*
X0676469D01*
X0675469Y0051965D01*
Y0050965D01*
X0676469Y0049966D01*
X0678468D01*
X0679468Y0048966D01*
Y0047966D01*
X0678468Y0046966D01*
X0676469D01*
X0675469Y0047966D01*
X0126900Y0073549D02*
Y0067551D01*
X0129899D01*
X0130899Y0068550D01*
Y0072549D01*
X0129899Y0073549D01*
X0126900D01*
X0132898Y0071549D02*
Y0067551D01*
Y0069550D01*
X0133898Y0070550D01*
X0134897Y0071549D01*
X0135897D01*
X0138896Y0067551D02*
X0140895D01*
X0139896D01*
Y0071549D01*
X0138896D01*
X0143895Y0067551D02*
X0145894D01*
X0144894D01*
Y0073549D01*
X0143895D01*
X0148893Y0067551D02*
X0150892D01*
X0149893D01*
Y0073549D01*
X0148893D01*
X0159889D02*
Y0067551D01*
X0162888D01*
X0163888Y0068550D01*
Y0072549D01*
X0162888Y0073549D01*
X0159889D01*
X0165887Y0071549D02*
Y0067551D01*
Y0069550D01*
X0166887Y0070550D01*
X0167887Y0071549D01*
X0168886D01*
X0172885D02*
X0174884D01*
X0175884Y0070550D01*
Y0067551D01*
X0172885D01*
X0171885Y0068550D01*
X0172885Y0069550D01*
X0175884D01*
X0177884Y0071549D02*
Y0068550D01*
X0178883Y0067551D01*
X0179883Y0068550D01*
X0180883Y0067551D01*
X0181882Y0068550D01*
Y0071549D01*
X0183882Y0067551D02*
X0185881D01*
X0184881D01*
Y0071549D01*
X0183882D01*
X0188880Y0067551D02*
Y0071549D01*
X0191879D01*
X0192879Y0070550D01*
Y0067551D01*
X0196877Y0065551D02*
X0197877D01*
X0198877Y0066551D01*
Y0071549D01*
X0195878D01*
X0194878Y0070550D01*
Y0068550D01*
X0195878Y0067551D01*
X0198877D01*
X0254997Y0718349D02*
G03*
X0254997Y0718349I-0002400J0000000D01*
G01*
G54D11*
X0497200Y0080717D02*
Y0101050D01*
X0413200Y0080717D02*
Y0101050D01*
X0040000Y0080717D02*
X0700200D01*
X0040000Y0060383D02*
X0700000D01*
X0040000Y0040050D02*
X0440500D01*
X0040050Y0101050D02*
X0700200D01*
X0040050Y0040050D02*
Y0101050D01*
Y0040050D02*
X0197600D01*
X0040000D02*
Y0101050D01*
X0286500Y0040050D02*
Y0101050D01*
X0700200Y0040050D02*
Y0101050D01*
X0440500Y0040050D02*
X0700200D01*
X0559400Y0039400D02*
Y0059683D01*
X0257097Y0682847D02*
Y0676849D01*
X0260096D01*
X0261096Y0677849D01*
Y0681847D01*
X0260096Y0682847D01*
X0257097D01*
X0263095Y0680848D02*
Y0676849D01*
Y0678848D01*
X0264095Y0679848D01*
X0265094Y0680848D01*
X0266094D01*
X0269093Y0676849D02*
X0271092D01*
X0270093D01*
Y0680848D01*
X0269093D01*
X0274091Y0676849D02*
X0276091D01*
X0275091D01*
Y0682847D01*
X0274091D01*
X0279090Y0676849D02*
X0281089D01*
X0280089D01*
Y0682847D01*
X0279090D01*
X0290086D02*
X0294085D01*
X0292086D01*
Y0676849D01*
X0297084Y0680848D02*
X0299083D01*
X0300083Y0679848D01*
Y0676849D01*
X0297084D01*
X0296084Y0677849D01*
X0297084Y0678848D01*
X0300083D01*
X0302082Y0682847D02*
Y0676849D01*
X0305081D01*
X0306081Y0677849D01*
Y0678848D01*
Y0679848D01*
X0305081Y0680848D01*
X0302082D01*
X0308080Y0676849D02*
X0310080D01*
X0309080D01*
Y0682847D01*
X0308080D01*
X0316078Y0676849D02*
X0314078D01*
X0313079Y0677849D01*
Y0679848D01*
X0314078Y0680848D01*
X0316078D01*
X0317077Y0679848D01*
Y0678848D01*
X0313079D01*
X0304583Y0715349D02*
X0300584D01*
X0304583Y0719348D01*
Y0720347D01*
X0303583Y0721347D01*
X0301584D01*
X0300584Y0720347D01*
X0370166Y0715349D02*
X0372165D01*
X0371165D01*
Y0721347D01*
X0370166Y0720347D01*
X0375164D02*
X0376164Y0721347D01*
X0378163D01*
X0379163Y0720347D01*
Y0716349D01*
X0378163Y0715349D01*
X0376164D01*
X0375164Y0716349D01*
Y0720347D01*
X0381162Y0715349D02*
Y0719348D01*
X0382162D01*
X0383162Y0718348D01*
Y0715349D01*
Y0718348D01*
X0384161Y0719348D01*
X0385161Y0718348D01*
Y0715349D01*
X0387160D02*
X0389160D01*
X0388160D01*
Y0719348D01*
X0387160D01*
X0392159Y0715349D02*
X0394158D01*
X0393158D01*
Y0721347D01*
X0392159D01*
X0405154Y0715349D02*
X0403155Y0717348D01*
Y0719348D01*
X0405154Y0721347D01*
X0408153Y0720347D02*
X0409153Y0721347D01*
X0411153D01*
X0412152Y0720347D01*
Y0716349D01*
X0411153Y0715349D01*
X0409153D01*
X0408153Y0716349D01*
Y0720347D01*
X0414151Y0715349D02*
Y0716349D01*
X0415151D01*
Y0715349D01*
X0414151D01*
X0423149D02*
X0419150D01*
X0423149Y0719348D01*
Y0720347D01*
X0422149Y0721347D01*
X0420150D01*
X0419150Y0720347D01*
X0429147Y0721347D02*
X0425148D01*
Y0718348D01*
X0427147Y0719348D01*
X0428147D01*
X0429147Y0718348D01*
Y0716349D01*
X0428147Y0715349D01*
X0426148D01*
X0425148Y0716349D01*
X0434145Y0715349D02*
Y0721347D01*
X0431146Y0718348D01*
X0435145D01*
X0437144Y0715349D02*
Y0719348D01*
X0438144D01*
X0439144Y0718348D01*
Y0715349D01*
Y0718348D01*
X0440143Y0719348D01*
X0441143Y0718348D01*
Y0715349D01*
X0443142D02*
Y0719348D01*
X0444142D01*
X0445142Y0718348D01*
Y0715349D01*
Y0718348D01*
X0446141Y0719348D01*
X0447141Y0718348D01*
Y0715349D01*
X0449140D02*
X0451140Y0717348D01*
Y0719348D01*
X0449140Y0721347D01*
X0504526Y0715349D02*
Y0721347D01*
X0507525D01*
X0508525Y0720347D01*
Y0718348D01*
X0507525Y0717348D01*
X0504526D01*
X0510524Y0721347D02*
X0514523D01*
X0512524D01*
Y0715349D01*
X0516522Y0721347D02*
Y0715349D01*
Y0718348D01*
X0520521D01*
Y0721347D01*
Y0715349D01*
X0554914D02*
Y0721347D01*
X0557913D01*
X0558913Y0720347D01*
Y0718348D01*
X0557913Y0717348D01*
X0554914D01*
X0556913D02*
X0558913Y0715349D01*
X0561911D02*
X0563911D01*
X0564911Y0716349D01*
Y0718348D01*
X0563911Y0719348D01*
X0561911D01*
X0560912Y0718348D01*
Y0716349D01*
X0561911Y0715349D01*
X0566910Y0719348D02*
Y0716349D01*
X0567910Y0715349D01*
X0570909D01*
Y0719348D01*
X0572908Y0715349D02*
Y0719348D01*
X0575907D01*
X0576907Y0718348D01*
Y0715349D01*
X0582905Y0721347D02*
Y0715349D01*
X0579906D01*
X0578906Y0716349D01*
Y0718348D01*
X0579906Y0719348D01*
X0582905D01*
X0300584Y0703349D02*
X0302584D01*
X0301584D01*
Y0709347D01*
X0300584Y0708347D01*
X0305583D02*
X0306582Y0709347D01*
X0308582D01*
X0309581Y0708347D01*
Y0704349D01*
X0308582Y0703349D01*
X0306582D01*
X0305583Y0704349D01*
Y0708347D01*
X0374165Y0703349D02*
X0370166D01*
X0374165Y0707348D01*
Y0708347D01*
X0373165Y0709347D01*
X0371165D01*
X0370166Y0708347D01*
X0380163Y0709347D02*
X0378163Y0708347D01*
X0376164Y0706348D01*
Y0704349D01*
X0377164Y0703349D01*
X0379163D01*
X0380163Y0704349D01*
Y0705348D01*
X0379163Y0706348D01*
X0376164D01*
X0382162Y0703349D02*
Y0707348D01*
X0383162D01*
X0384161Y0706348D01*
Y0703349D01*
Y0706348D01*
X0385161Y0707348D01*
X0386161Y0706348D01*
Y0703349D01*
X0388160D02*
X0390159D01*
X0389160D01*
Y0707348D01*
X0388160D01*
X0393158Y0703349D02*
X0395158D01*
X0394158D01*
Y0709347D01*
X0393158D01*
X0406154Y0703349D02*
X0404155Y0705348D01*
Y0707348D01*
X0406154Y0709347D01*
X0409153Y0708347D02*
X0410153Y0709347D01*
X0412152D01*
X0413152Y0708347D01*
Y0704349D01*
X0412152Y0703349D01*
X0410153D01*
X0409153Y0704349D01*
Y0708347D01*
X0415151Y0703349D02*
Y0704349D01*
X0416151D01*
Y0703349D01*
X0415151D01*
X0424148Y0709347D02*
X0422149Y0708347D01*
X0420150Y0706348D01*
Y0704349D01*
X0421149Y0703349D01*
X0423149D01*
X0424148Y0704349D01*
Y0705348D01*
X0423149Y0706348D01*
X0420150D01*
X0430146Y0709347D02*
X0428147Y0708347D01*
X0426148Y0706348D01*
Y0704349D01*
X0427147Y0703349D01*
X0429147D01*
X0430146Y0704349D01*
Y0705348D01*
X0429147Y0706348D01*
X0426148D01*
X0432146Y0708347D02*
X0433145Y0709347D01*
X0435145D01*
X0436144Y0708347D01*
Y0704349D01*
X0435145Y0703349D01*
X0433145D01*
X0432146Y0704349D01*
Y0708347D01*
X0441143Y0703349D02*
Y0709347D01*
X0438144Y0706348D01*
X0442142D01*
X0444142Y0703349D02*
Y0707348D01*
X0445142D01*
X0446141Y0706348D01*
Y0703349D01*
Y0706348D01*
X0447141Y0707348D01*
X0448140Y0706348D01*
Y0703349D01*
X0450140D02*
Y0707348D01*
X0451140D01*
X0452139Y0706348D01*
Y0703349D01*
Y0706348D01*
X0453139Y0707348D01*
X0454139Y0706348D01*
Y0703349D01*
X0456138D02*
X0458137Y0705348D01*
Y0707348D01*
X0456138Y0709347D01*
X0504526Y0703349D02*
Y0709347D01*
X0507525D01*
X0508525Y0708347D01*
Y0706348D01*
X0507525Y0705348D01*
X0504526D01*
X0510524Y0709347D02*
X0514523D01*
X0512524D01*
Y0703349D01*
X0516522Y0709347D02*
Y0703349D01*
Y0706348D01*
X0520521D01*
Y0709347D01*
Y0703349D01*
X0554914D02*
Y0709347D01*
X0557913D01*
X0558913Y0708347D01*
Y0706348D01*
X0557913Y0705348D01*
X0554914D01*
X0556913D02*
X0558913Y0703349D01*
X0561911D02*
X0563911D01*
X0564911Y0704349D01*
Y0706348D01*
X0563911Y0707348D01*
X0561911D01*
X0560912Y0706348D01*
Y0704349D01*
X0561911Y0703349D01*
X0566910Y0707348D02*
Y0704349D01*
X0567910Y0703349D01*
X0570909D01*
Y0707348D01*
X0572908Y0703349D02*
Y0707348D01*
X0575907D01*
X0576907Y0706348D01*
Y0703349D01*
X0582905Y0709347D02*
Y0703349D01*
X0579906D01*
X0578906Y0704349D01*
Y0706348D01*
X0579906Y0707348D01*
X0582905D01*
X0300584Y0691349D02*
X0302584D01*
X0301584D01*
Y0697347D01*
X0300584Y0696347D01*
X0309581Y0691349D02*
X0305583D01*
X0309581Y0695348D01*
Y0696347D01*
X0308582Y0697347D01*
X0306582D01*
X0305583Y0696347D01*
X0320381Y0697347D02*
X0324380D01*
X0322381D01*
Y0691349D01*
X0327379D02*
X0329379D01*
X0330378Y0692349D01*
Y0694348D01*
X0329379Y0695348D01*
X0327379D01*
X0326380Y0694348D01*
Y0692349D01*
X0327379Y0691349D01*
X0333377Y0696347D02*
Y0695348D01*
X0332378D01*
X0334377D01*
X0333377D01*
Y0692349D01*
X0334377Y0691349D01*
X0338376Y0695348D02*
X0340375D01*
X0341375Y0694348D01*
Y0691349D01*
X0338376D01*
X0337376Y0692349D01*
X0338376Y0693348D01*
X0341375D01*
X0343374Y0691349D02*
X0345373D01*
X0344374D01*
Y0697347D01*
X0343374D01*
G54D29*
X0245838Y0471677D02*
Y0475677D01*
X0249838D01*
Y0471677D01*
X0245838D01*
Y0466677D02*
Y0470677D01*
X0249838D01*
Y0466677D01*
X0245838D01*
Y0461677D02*
Y0465677D01*
X0249838D01*
Y0461677D01*
X0245838D01*
Y0456677D02*
Y0460677D01*
X0249838D01*
Y0456677D01*
X0245838D01*
Y0451677D02*
Y0455677D01*
X0249838D01*
Y0451677D01*
X0245838D01*
Y0446677D02*
Y0450677D01*
X0249838D01*
Y0446677D01*
X0245838D01*
Y0441677D02*
Y0445677D01*
X0249838D01*
Y0441677D01*
X0245838D01*
Y0436677D02*
Y0440677D01*
X0249838D01*
Y0436677D01*
X0245838D01*
Y0431677D02*
Y0435677D01*
X0249838D01*
Y0431677D01*
X0245838D01*
Y0426677D02*
Y0430677D01*
X0249838D01*
Y0426677D01*
X0245838D01*
X0250197Y0703949D02*
Y0708749D01*
X0254997D01*
Y0703949D01*
X0250197D01*
G54D30*
X0257916Y0477677D02*
G03*
X0257916Y0477677I-0002000J0000000D01*
G01*
X0255916Y0446677D02*
G03*
X0255916Y0446677I-0002000J0000000D01*
G01*
G54D31*
X0254995Y0735747D02*
X0253796Y0736947D01*
X0251396D01*
X0250197Y0735747D01*
Y0734547D01*
X0251396Y0733348D01*
X0253796D01*
X0254995Y0732148D01*
Y0730948D01*
X0253796Y0729749D01*
X0251396D01*
X0250197Y0730948D01*
X0257395Y0734547D02*
Y0730948D01*
X0258594Y0729749D01*
X0262193D01*
Y0728549D01*
X0260993Y0727350D01*
X0259794D01*
X0262193Y0729749D02*
Y0734547D01*
X0264592Y0729749D02*
Y0734547D01*
X0265792D01*
X0266991Y0733348D01*
Y0729749D01*
Y0733348D01*
X0268191Y0734547D01*
X0269391Y0733348D01*
Y0729749D01*
X0271790Y0736947D02*
Y0729749D01*
X0275389D01*
X0276588Y0730948D01*
Y0732148D01*
Y0733348D01*
X0275389Y0734547D01*
X0271790D01*
X0280187Y0729749D02*
X0282586D01*
X0283786Y0730948D01*
Y0733348D01*
X0282586Y0734547D01*
X0280187D01*
X0278988Y0733348D01*
Y0730948D01*
X0280187Y0729749D01*
X0286185D02*
X0288584D01*
X0287385D01*
Y0736947D01*
X0286185D01*
X0300584D02*
Y0729749D01*
Y0733348D01*
X0305383D01*
Y0736947D01*
Y0729749D01*
X0307782D02*
X0310181D01*
X0308982D01*
Y0734547D01*
X0307782D01*
X0314980Y0735747D02*
Y0734547D01*
X0313780D01*
X0316179D01*
X0314980D01*
Y0730948D01*
X0316179Y0729749D01*
X0331774Y0735747D02*
X0330575Y0736947D01*
X0328175D01*
X0326976Y0735747D01*
Y0730948D01*
X0328175Y0729749D01*
X0330575D01*
X0331774Y0730948D01*
X0335373Y0729749D02*
X0337772D01*
X0338972Y0730948D01*
Y0733348D01*
X0337772Y0734547D01*
X0335373D01*
X0334173Y0733348D01*
Y0730948D01*
X0335373Y0729749D01*
X0341371Y0734547D02*
Y0730948D01*
X0342571Y0729749D01*
X0346170D01*
Y0734547D01*
X0348569Y0729749D02*
Y0734547D01*
X0352168D01*
X0353367Y0733348D01*
Y0729749D01*
X0356966Y0735747D02*
Y0734547D01*
X0355767D01*
X0358166D01*
X0356966D01*
Y0730948D01*
X0358166Y0729749D01*
X0374964Y0736947D02*
X0370166D01*
Y0733348D01*
X0372565D01*
X0370166D01*
Y0729749D01*
X0377363D02*
X0379763D01*
X0378563D01*
Y0734547D01*
X0377363D01*
X0383362Y0729749D02*
Y0734547D01*
X0386960D01*
X0388160Y0733348D01*
Y0729749D01*
X0390559D02*
X0392958D01*
X0391759D01*
Y0734547D01*
X0390559D01*
X0396557Y0729749D02*
X0400156D01*
X0401356Y0730948D01*
X0400156Y0732148D01*
X0397757D01*
X0396557Y0733348D01*
X0397757Y0734547D01*
X0401356D01*
X0403755Y0736947D02*
Y0729749D01*
Y0733348D01*
X0404954Y0734547D01*
X0407354D01*
X0408553Y0733348D01*
Y0729749D01*
X0414551D02*
X0412152D01*
X0410953Y0730948D01*
Y0733348D01*
X0412152Y0734547D01*
X0414551D01*
X0415751Y0733348D01*
Y0732148D01*
X0410953D01*
X0422949Y0736947D02*
Y0729749D01*
X0419350D01*
X0418150Y0730948D01*
Y0733348D01*
X0419350Y0734547D01*
X0422949D01*
X0432546Y0736947D02*
Y0729749D01*
Y0733348D01*
X0437344D01*
Y0736947D01*
Y0729749D01*
X0440943D02*
X0443342D01*
X0444542Y0730948D01*
Y0733348D01*
X0443342Y0734547D01*
X0440943D01*
X0439743Y0733348D01*
Y0730948D01*
X0440943Y0729749D01*
X0446941D02*
X0449340D01*
X0448140D01*
Y0736947D01*
X0446941D01*
X0456538Y0729749D02*
X0454139D01*
X0452939Y0730948D01*
Y0733348D01*
X0454139Y0734547D01*
X0456538D01*
X0457737Y0733348D01*
Y0732148D01*
X0452939D01*
X0472133Y0735747D02*
X0470933Y0736947D01*
X0468534D01*
X0467334Y0735747D01*
Y0734547D01*
X0468534Y0733348D01*
X0470933D01*
X0472133Y0732148D01*
Y0730948D01*
X0470933Y0729749D01*
X0468534D01*
X0467334Y0730948D01*
X0474532Y0729749D02*
X0476931D01*
X0475732D01*
Y0734547D01*
X0474532D01*
X0480530D02*
X0485328D01*
X0480530Y0729749D01*
X0485328D01*
X0491327D02*
X0488927D01*
X0487728Y0730948D01*
Y0733348D01*
X0488927Y0734547D01*
X0491327D01*
X0492526Y0733348D01*
Y0732148D01*
X0487728D01*
X0504526Y0729749D02*
Y0736947D01*
X0508125D01*
X0509325Y0735747D01*
Y0733348D01*
X0508125Y0732148D01*
X0504526D01*
X0511724Y0729749D02*
X0514123D01*
X0512923D01*
Y0736947D01*
X0511724D01*
X0518922Y0734547D02*
X0521321D01*
X0522520Y0733348D01*
Y0729749D01*
X0518922D01*
X0517722Y0730948D01*
X0518922Y0732148D01*
X0522520D01*
X0526119Y0735747D02*
Y0734547D01*
X0524920D01*
X0527319D01*
X0526119D01*
Y0730948D01*
X0527319Y0729749D01*
X0534516D02*
X0532117D01*
X0530918Y0730948D01*
Y0733348D01*
X0532117Y0734547D01*
X0534516D01*
X0535716Y0733348D01*
Y0732148D01*
X0530918D01*
X0542914Y0736947D02*
Y0729749D01*
X0539315D01*
X0538115Y0730948D01*
Y0733348D01*
X0539315Y0734547D01*
X0542914D01*
X0554914Y0736947D02*
Y0729749D01*
Y0733348D01*
X0559712D01*
Y0736947D01*
Y0729749D01*
X0563311D02*
X0565710D01*
X0566910Y0730948D01*
Y0733348D01*
X0565710Y0734547D01*
X0563311D01*
X0562111Y0733348D01*
Y0730948D01*
X0563311Y0729749D01*
X0569309D02*
X0571708D01*
X0570509D01*
Y0736947D01*
X0569309D01*
X0578906Y0729749D02*
X0576507D01*
X0575307Y0730948D01*
Y0733348D01*
X0576507Y0734547D01*
X0578906D01*
X0580106Y0733348D01*
Y0732148D01*
X0575307D01*
X0589703Y0736947D02*
X0594501D01*
X0592102D01*
Y0729749D01*
X0596900Y0734547D02*
Y0730948D01*
X0598100Y0729749D01*
X0601699D01*
Y0728549D01*
X0600499Y0727350D01*
X0599299D01*
X0601699Y0729749D02*
Y0734547D01*
X0604098Y0727350D02*
Y0734547D01*
X0607697D01*
X0608896Y0733348D01*
Y0730948D01*
X0607697Y0729749D01*
X0604098D01*
X0614894D02*
X0612495D01*
X0611296Y0730948D01*
Y0733348D01*
X0612495Y0734547D01*
X0614894D01*
X0616094Y0733348D01*
Y0732148D01*
X0611296D01*
X0241397Y0740549D02*
X0628094D01*
X0241397Y0724349D02*
X0628094D01*
X0241397Y0740549D02*
Y0688349D01*
X0628094Y0740549D02*
Y0688349D01*
X0296184Y0740549D02*
Y0688349D01*
X0365766Y0740549D02*
Y0688349D01*
X0500126Y0740549D02*
Y0688349D01*
X0550514Y0740549D02*
Y0688349D01*
X0241397Y0700349D02*
X0628094D01*
X0241397Y0688349D02*
X0628094D01*
M02*
